OpenSans-LightCondensed.ufo
<glyph name="exclam" format="1">
  <advance width="451"/>
  <unicode hex="0021"/>
  <note>
    exclam
  </note>
  <outline>
    <contour>
      <point x="197" y="367" type="line"/>
      <point x="252" y="367" type="line"/>
      <point x="287" y="1462" type="line"/>
      <point x="162" y="1462" type="line"/>
    </contour>
    <contour>
      <point x="225" y="-16" type="curve" smooth="yes"/>
      <point x="268" y="-16"/>
      <point x="303" y="14"/>
      <point x="303" y="90" type="curve" smooth="yes"/>
      <point x="303" y="169"/>
      <point x="268" y="197"/>
      <point x="225" y="197" type="curve" smooth="yes"/>
      <point x="173" y="197"/>
      <point x="147" y="161"/>
      <point x="147" y="90" type="curve" smooth="yes"/>
      <point x="147" y="19"/>
      <point x="173" y="-16"/>
    </contour>
  </outline>
</glyph>
<glyph name="ampersand" format="1">
  <advance width="834"/>
  <unicode hex="0026"/>
  <note>
ampersand
</note>
  <outline>
    <contour>
      <point x="328.0" y="-20.0" type="qcurve" smooth="yes"/>
      <point x="205.75" y="-20.0"/>
      <point x="66.0" y="178.25"/>
      <point x="66.0" y="356.0" type="qcurve" smooth="yes"/>
      <point x="66.0" y="501.5"/>
      <point x="173.25" y="691.25"/>
      <point x="285" y="788" type="qcurve"/>
      <point x="284.0" y="790.0" type="line" smooth="yes"/>
      <point x="235.0" y="880.0"/>
      <point x="184.16666666666669" y="1012.8333333333333"/>
      <point x="166.0" y="1133.0"/>
      <point x="166.0" y="1204.0" type="qcurve" smooth="yes"/>
      <point x="166.0" y="1336.0"/>
      <point x="270.0" y="1483.0"/>
      <point x="360.0" y="1483.0" type="qcurve" smooth="yes"/>
      <point x="450.75" y="1483.0"/>
      <point x="555.0" y="1332.0"/>
      <point x="555.0" y="1194.0" type="qcurve" smooth="yes"/>
      <point x="555.0" y="1056.0"/>
      <point x="478.75" y="861.75"/>
      <point x="391" y="774" type="qcurve"/>
      <point x="627.0" y="352.0" type="line"/>
      <point x="684.0" y="470.5"/>
      <point x="684" y="645" type="qcurve"/>
      <point x="778.0" y="645.0" type="line"/>
      <point x="778.0" y="582.5"/>
      <point x="751.0833333333333" y="440.0"/>
      <point x="706.5" y="307.5"/>
      <point x="680" y="260" type="qcurve"/>
      <point x="836" y="0" type="line"/>
      <point x="727" y="0" type="line"/>
      <point x="629.0" y="178.0" type="line"/>
      <point x="556.25" y="67.75"/>
      <point x="418.0" y="-20.0"/>
    </contour>
    <contour>
      <point x="336.0" y="74.0" type="qcurve" smooth="yes"/>
      <point x="474.25" y="74.0"/>
      <point x="580" y="262" type="qcurve"/>
      <point x="326.0" y="717.0" type="line"/>
      <point x="230.75" y="629.25"/>
      <point x="162.0" y="470.25"/>
      <point x="162.0" y="354.0" type="qcurve" smooth="yes"/>
      <point x="162.0" y="219.0"/>
      <point x="257.25" y="74.0"/>
    </contour>
    <contour>
      <point x="348.0" y="850.0" type="qcurve"/>
      <point x="413.25" y="916.0"/>
      <point x="461.0" y="1088.25"/>
      <point x="461.0" y="1194.0" type="qcurve" smooth="yes"/>
      <point x="461.0" y="1393.0"/>
      <point x="356.0" y="1393.0" type="qcurve" smooth="yes"/>
      <point x="260.0" y="1393.0"/>
      <point x="260.0" y="1194.0" type="qcurve" smooth="yes"/>
      <point x="260.0" y="1107.0"/>
      <point x="309.0" y="915.25"/>
    </contour>
  </outline>
</glyph>
<glyph name="parenright" format="1">
  <advance width="565"/>
  <unicode hex="0029"/>
  <note>
parenright
</note>
  <outline>
    <contour>
      <point x="86" y="-324" type="line"/>
      <point x="215.0" y="-143.25"/>
      <point x="356.0" y="325.25"/>
      <point x="356.0" y="563.0" type="qcurve" smooth="yes"/>
      <point x="356.0" y="802.25"/>
      <point x="218.25" y="1263.25"/>
      <point x="84" y="1462" type="qcurve"/>
      <point x="164.0" y="1462.0" type="line"/>
      <point x="307.25" y="1291.75"/>
      <point x="461.0" y="818.25"/>
      <point x="461.0" y="561.0" type="qcurve" smooth="yes"/>
      <point x="461.0" y="303.0"/>
      <point x="308.0" y="-158.25"/>
      <point x="164" y="-324" type="qcurve"/>
    </contour>
  </outline>
</glyph>
<glyph name="three" format="1">
  <advance width="819"/>
  <unicode hex="0033"/>
  <outline>
    <contour>
      <point x="360.0" y="-20.0" type="qcurve" smooth="yes"/>
      <point x="193.0285714285714" y="-20.0"/>
      <point x="84" y="33" type="qcurve"/>
      <point x="84.0" y="141.0" type="line"/>
      <point x="209.14285714285714" y="68.0"/>
      <point x="360.0" y="68.0" type="qcurve" smooth="yes"/>
      <point x="482.25" y="68.0"/>
      <point x="618.0" y="245.25"/>
      <point x="618.0" y="399.0" type="qcurve" smooth="yes"/>
      <point x="618.0" y="509.25"/>
      <point x="528.5" y="658.5"/>
      <point x="440.0" y="690.0" type="qcurve" smooth="yes"/>
      <point x="381.5" y="711.0"/>
      <point x="305" y="711" type="qcurve" smooth="yes"/>
      <point x="231" y="711" type="line"/>
      <point x="231" y="803" type="line"/>
      <point x="311.0" y="803.0" type="line" smooth="yes"/>
      <point x="439.25" y="803.0"/>
      <point x="598.0" y="981.75"/>
      <point x="598.0" y="1128.0" type="qcurve" smooth="yes"/>
      <point x="598.0" y="1253.25"/>
      <point x="485.0" y="1395.0"/>
      <point x="383.0" y="1395.0" type="qcurve" smooth="yes"/>
      <point x="314.0" y="1395.0"/>
      <point x="205.25" y="1349.0"/>
      <point x="137" y="1286" type="qcurve"/>
      <point x="76.0" y="1350.0" type="line"/>
      <point x="150.25" y="1422.0"/>
      <point x="294.75" y="1483.0"/>
      <point x="381.0" y="1483.0" type="qcurve" smooth="yes"/>
      <point x="525.0" y="1483.0"/>
      <point x="696.0" y="1293.0"/>
      <point x="696.0" y="1137.0" type="qcurve" smooth="yes"/>
      <point x="696.0" y="999.75"/>
      <point x="578.25" y="808.75"/>
      <point x="459" y="766" type="qcurve"/>
      <point x="459.0" y="758.0" type="line"/>
      <point x="582.0" y="731.0"/>
      <point x="719.0" y="539.75"/>
      <point x="719.0" y="395.0" type="qcurve" smooth="yes"/>
      <point x="719.0" y="205.25"/>
      <point x="525.75" y="-20.0"/>
    </contour>
  </outline>
</glyph>
<glyph name="four" format="1">
  <advance width="819"/>
  <unicode hex="0034"/>
  <outline>
    <contour>
      <point x="541" y="0" type="line"/>
      <point x="637" y="0" type="line"/>
      <point x="637" y="332" type="line"/>
      <point x="793" y="332" type="line"/>
      <point x="793" y="422" type="line"/>
      <point x="637" y="422" type="line"/>
      <point x="637" y="1479" type="line"/>
      <point x="516" y="1479" type="line"/>
      <point x="37" y="416" type="line"/>
      <point x="37" y="332" type="line"/>
      <point x="541" y="332" type="line"/>
    </contour>
    <contour>
      <point x="137" y="422" type="line"/>
      <point x="469" y="1178" type="line"/>
      <point x="494" y="1241"/>
      <point x="518" y="1303"/>
      <point x="543" y="1366" type="curve"/>
      <point x="549" y="1366" type="line"/>
      <point x="544" y="1289"/>
      <point x="541" y="1209"/>
      <point x="541" y="1128" type="curve" smooth="yes"/>
      <point x="541" y="422" type="line"/>
    </contour>
  </outline>
</glyph>
<glyph name="six" format="1">
  <advance width="819"/>
  <unicode hex="0036"/>
  <outline>
    <contour>
      <point x="422" y="-20" type="curve" smooth="yes"/>
      <point x="610" y="-20"/>
      <point x="729" y="157"/>
      <point x="729" y="449" type="curve" smooth="yes"/>
      <point x="729" y="732"/>
      <point x="617" y="903"/>
      <point x="436" y="903" type="curve" smooth="yes"/>
      <point x="333" y="903"/>
      <point x="252" y="842"/>
      <point x="207" y="741" type="curve"/>
      <point x="199" y="741" type="line"/>
      <point x="206" y="952"/>
      <point x="236" y="1113"/>
      <point x="291" y="1224" type="curve" smooth="yes"/>
      <point x="345" y="1334"/>
      <point x="420" y="1389"/>
      <point x="516" y="1389" type="curve" smooth="yes"/>
      <point x="567" y="1389"/>
      <point x="612" y="1381"/>
      <point x="651" y="1364" type="curve"/>
      <point x="651" y="1460" type="line"/>
      <point x="618" y="1475"/>
      <point x="575" y="1483"/>
      <point x="524" y="1483" type="curve" smooth="yes"/>
      <point x="412" y="1483"/>
      <point x="321" y="1439"/>
      <point x="253" y="1348" type="curve" smooth="yes"/>
      <point x="152" y="1212"/>
      <point x="100" y="973"/>
      <point x="100" y="623" type="curve" smooth="yes"/>
      <point x="100" y="206"/>
      <point x="213" y="-20"/>
    </contour>
    <contour>
      <point x="424" y="74" type="curve" smooth="yes"/>
      <point x="379" y="74"/>
      <point x="341" y="92"/>
      <point x="308" y="129" type="curve" smooth="yes"/>
      <point x="242" y="202"/>
      <point x="201" y="357"/>
      <point x="201" y="524" type="curve" smooth="yes"/>
      <point x="201" y="614"/>
      <point x="227" y="691"/>
      <point x="271" y="742" type="curve" smooth="yes"/>
      <point x="309" y="786"/>
      <point x="361" y="811"/>
      <point x="422" y="811" type="curve" smooth="yes"/>
      <point x="559" y="811"/>
      <point x="629" y="681"/>
      <point x="629" y="444" type="curve" smooth="yes"/>
      <point x="629" y="310"/>
      <point x="608" y="213"/>
      <point x="567" y="152" type="curve" smooth="yes"/>
      <point x="533" y="100"/>
      <point x="485" y="74"/>
    </contour>
  </outline>
</glyph>
<glyph name="eight" format="1">
  <advance width="819"/>
  <unicode hex="0038"/>
  <outline>
    <contour>
      <point x="422.0" y="-20.0" type="qcurve" smooth="yes"/>
      <point x="319.5" y="-20.0"/>
      <point x="161.58333333333331" y="73.33333333333333"/>
      <point x="72.0" y="240.00000000000003"/>
      <point x="72.0" y="350.0" type="qcurve" smooth="yes"/>
      <point x="72.0" y="476.0"/>
      <point x="181.25" y="672.75"/>
      <point x="317.0" y="762.0" type="qcurve"/>
      <point x="106.0" y="923.6170212765958"/>
      <point x="106.0" y="1143.0" type="qcurve" smooth="yes"/>
      <point x="106.0" y="1293.75"/>
      <point x="277.0" y="1483.0"/>
      <point x="412.0" y="1483.0" type="qcurve" smooth="yes"/>
      <point x="550.0" y="1483.0"/>
      <point x="719.0" y="1303.75"/>
      <point x="719.0" y="1147.0" type="qcurve" smooth="yes"/>
      <point x="719.0" y="904.5"/>
      <point x="479.0" y="762.0" type="qcurve"/>
      <point x="608.0" y="675.75"/>
      <point x="750.0" y="496.25"/>
      <point x="750.0" y="362.0" type="qcurve" smooth="yes"/>
      <point x="750.0" y="250.50000000000003"/>
      <point x="665.5833333333334" y="78.08333333333334"/>
      <point x="517.5" y="-20.0"/>
    </contour>
    <contour>
      <point x="414.0" y="70.0" type="qcurve" smooth="yes"/>
      <point x="519.75" y="70.0"/>
      <point x="647.0" y="229.0"/>
      <point x="647.0" y="367.0" type="qcurve" smooth="yes"/>
      <point x="647.0" y="469.75"/>
      <point x="527.5" y="627.25"/>
      <point x="391.0" y="721.0" type="qcurve"/>
      <point x="270.25" y="643.0"/>
      <point x="174.0" y="476.25"/>
      <point x="174.0" y="348.0" type="qcurve" smooth="yes"/>
      <point x="174.0" y="222.0"/>
      <point x="306.0" y="70.0"/>
    </contour>
    <contour>
      <point x="410.0" y="807.0" type="qcurve"/>
      <point x="518.75" y="872.25"/>
      <point x="618.0" y="1036.25"/>
      <point x="618.0" y="1139.0" type="qcurve" smooth="yes"/>
      <point x="618.0" y="1259.0"/>
      <point x="509.0" y="1393.0"/>
      <point x="410.0" y="1393.0" type="qcurve" smooth="yes"/>
      <point x="316.25" y="1393.0"/>
      <point x="207.0" y="1259.0"/>
      <point x="207.0" y="1139.0" type="qcurve" smooth="yes"/>
      <point x="207.0" y="1036.25"/>
      <point x="296.75" y="882.0"/>
    </contour>
  </outline>
</glyph>
<glyph name="semicolon" format="1">
  <advance width="422"/>
  <unicode hex="003B"/>
  <note>
semicolon
</note>
  <outline>
    <contour>
      <point x="78" y="-264" type="line"/>
      <point x="152.2605633802817" y="-11.514084507042256"/>
      <point x="178" y="205" type="qcurve"/>
      <point x="293" y="205" type="line"/>
      <point x="307.0" y="182.0" type="line"/>
      <point x="274.0" y="69.5"/>
      <point x="191.25" y="-153.75"/>
      <point x="141" y="-264" type="qcurve"/>
    </contour>
    <contour>
      <point x="211.0" y="874.0" type="qcurve" smooth="yes"/>
      <point x="133.0" y="874.0"/>
      <point x="133.0" y="981.0" type="qcurve" smooth="yes"/>
      <point x="133.0" y="1087.0"/>
      <point x="211.0" y="1087.0" type="qcurve" smooth="yes"/>
      <point x="289.0" y="1087.0"/>
      <point x="289.0" y="981.0" type="qcurve" smooth="yes"/>
      <point x="289.0" y="924.0"/>
      <point x="243.25" y="874.0"/>
    </contour>
  </outline>
</glyph>
<glyph name="question" format="1">
  <advance width="578"/>
  <unicode hex="003F"/>
  <note>
question
</note>
  <outline>
    <contour>
      <point x="190" y="367" type="line"/>
      <point x="190.0" y="418.0" type="line" smooth="yes"/>
      <point x="190.0" y="494.0"/>
      <point x="207.41666666666666" y="607.0"/>
      <point x="250.49999999999997" y="708.0"/>
      <point x="289.0" y="766.0" type="qcurve" smooth="yes"/>
      <point x="301.0" y="784.75"/>
      <point x="323.25" y="819.5"/>
      <point x="333.0" y="836.0" type="qcurve" smooth="yes"/>
      <point x="392.25" y="935.75"/>
      <point x="430.0" y="1072.75"/>
      <point x="430.0" y="1153.0" type="qcurve" smooth="yes"/>
      <point x="430.0" y="1269.25"/>
      <point x="338.75" y="1393.0"/>
      <point x="260.0" y="1393.0" type="qcurve" smooth="yes"/>
      <point x="203.0" y="1393.0"/>
      <point x="123.25" y="1360.75"/>
      <point x="82" y="1333" type="qcurve"/>
      <point x="35.0" y="1409.0" type="line"/>
      <point x="134.67346938775512" y="1483.0"/>
      <point x="260.0" y="1483.0" type="qcurve" smooth="yes"/>
      <point x="389.75" y="1483.0"/>
      <point x="530.0" y="1317.25"/>
      <point x="530.0" y="1159.0" type="qcurve" smooth="yes"/>
      <point x="530.0" y="1101.2447499999998"/>
      <point x="517.75" y="1010.0"/>
      <point x="502.0" y="965.0" type="qcurve" smooth="yes"/>
      <point x="484.75" y="916.25"/>
      <point x="421.25" y="805.5"/>
      <point x="371.0" y="729.0" type="qcurve" smooth="yes"/>
      <point x="336.5" y="677.25"/>
      <point x="292.0" y="590.75"/>
      <point x="280.0" y="545.0" type="qcurve" smooth="yes"/>
      <point x="264.0" y="483.90909090909093"/>
      <point x="264" y="403" type="qcurve" smooth="yes"/>
      <point x="264" y="367" type="line"/>
    </contour>
    <contour>
      <point x="233.0" y="-16.0" type="qcurve" smooth="yes"/>
      <point x="156.0" y="-16.0"/>
      <point x="156.0" y="90.0" type="qcurve" smooth="yes"/>
      <point x="156.0" y="197.0"/>
      <point x="233.0" y="197.0" type="qcurve" smooth="yes"/>
      <point x="265.25" y="197.0"/>
      <point x="311.0" y="149.25"/>
      <point x="311.0" y="90.0" type="qcurve" smooth="yes"/>
      <point x="311.0" y="33.0"/>
      <point x="265.25" y="-16.0"/>
    </contour>
  </outline>
</glyph>
<glyph name="at" format="1">
  <advance width="1233"/>
  <unicode hex="0040"/>
  <note>
at
</note>
  <outline>
    <contour>
      <point x="584.0" y="-180.0" type="qcurve" smooth="yes"/>
      <point x="451.25" y="-180.0"/>
      <point x="269.6458333333333" y="-60.385416666666664"/>
      <point x="159.85416666666666" y="149.88541666666666"/>
      <point x="111.0" y="424.75"/>
      <point x="111.0" y="580.0" type="qcurve" smooth="yes"/>
      <point x="111.0" y="753.25"/>
      <point x="173.06770833333334" y="1073.5416666666667"/>
      <point x="304.1822916666667" y="1325.9583333333333"/>
      <point x="510.625" y="1473.0"/>
      <point x="655.0" y="1473.0" type="qcurve" smooth="yes"/>
      <point x="775.75" y="1473.0"/>
      <point x="954.4583333333334" y="1349.140625"/>
      <point x="1072.0416666666667" y="1138.609375"/>
      <point x="1130.0" y="874.875"/>
      <point x="1130.0" y="735.0" type="qcurve" smooth="yes"/>
      <point x="1130.0" y="231.0"/>
      <point x="905.0" y="231.0" type="qcurve" smooth="yes"/>
      <point x="821.75" y="231.0"/>
      <point x="750.25" y="339.0"/>
      <point x="748" y="438" type="qcurve"/>
      <point x="739.0" y="438.0" type="line"/>
      <point x="721.75" y="330.0"/>
      <point x="648.0" y="231.0"/>
      <point x="582.0" y="231.0" type="qcurve" smooth="yes"/>
      <point x="494.25" y="231.0"/>
      <point x="397.0" y="417.75"/>
      <point x="397.0" y="588.0" type="qcurve" smooth="yes"/>
      <point x="397.0" y="1061.0"/>
      <point x="659.0" y="1061.0" type="qcurve" smooth="yes"/>
      <point x="745.1578947368421" y="1061.0"/>
      <point x="823" y="1032" type="qcurve"/>
      <point x="803.0" y="555.0" type="line"/>
      <point x="803.0" y="540.0"/>
      <point x="803.0" y="509.0"/>
      <point x="803.0" y="494.0" type="qcurve" smooth="yes"/>
      <point x="803.0" y="404.5"/>
      <point x="830.0" y="364.0" type="qcurve" smooth="yes"/>
      <point x="854.8461538461538" y="326.0"/>
      <point x="905.0" y="326.0" type="qcurve" smooth="yes"/>
      <point x="948.125" y="326.0"/>
      <point x="999.0677083333334" y="400.3645833333333"/>
      <point x="1024.1822916666667" y="522.6354166666666"/>
      <point x="1032.0" y="669.0"/>
      <point x="1032.0" y="741.0" type="qcurve" smooth="yes"/>
      <point x="1032.0" y="861.0"/>
      <point x="986.8385416666666" y="1090.2395833333333"/>
      <point x="893.9114583333334" y="1274.7604166666667"/>
      <point x="750.875" y="1384.0"/>
      <point x="653.0" y="1384.0" type="qcurve" smooth="yes"/>
      <point x="534.875" y="1384.0"/>
      <point x="364.484375" y="1247.6927083333333"/>
      <point x="255.265625" y="1019.5572916666666"/>
      <point x="203.0" y="739.625"/>
      <point x="203.0" y="596.0" type="qcurve" smooth="yes"/>
      <point x="203.0" y="269.75"/>
      <point x="407.75" y="-94.0"/>
      <point x="590.0" y="-94.0" type="qcurve" smooth="yes"/>
      <point x="659.0" y="-94.0"/>
      <point x="778.25" y="-54.25"/>
      <point x="815" y="-25" type="qcurve"/>
      <point x="815.0" y="-119.0" type="line"/>
      <point x="764.75" y="-149.75"/>
      <point x="656.75" y="-180.0"/>
    </contour>
    <contour>
      <point x="600.0" y="326.0" type="qcurve" smooth="yes"/>
      <point x="645.3454545454546" y="326.0"/>
      <point x="671.0" y="409.0" type="qcurve" smooth="yes"/>
      <point x="695.8684531059683" y="489.4567600487211"/>
      <point x="705" y="666" type="qcurve" smooth="yes"/>
      <point x="721.0" y="971.0" type="line"/>
      <point x="692.2" y="979.0"/>
      <point x="649.0" y="979.0" type="qcurve" smooth="yes"/>
      <point x="574.8059701492538" y="979.0"/>
      <point x="536.0" y="879.0" type="qcurve" smooth="yes"/>
      <point x="496.0" y="779.7407407407408"/>
      <point x="496.0" y="584.0" type="qcurve" smooth="yes"/>
      <point x="496.0" y="435.9130434782609"/>
      <point x="531.0" y="372.0" type="qcurve" smooth="yes"/>
      <point x="556.2258064516129" y="326.0"/>
    </contour>
  </outline>
</glyph>
<glyph name="D" format="1">
  <advance width="995"/>
  <unicode hex="0044"/>
  <outline>
    <contour>
      <point x="885" y="745" type="curve" smooth="yes"/>
      <point x="885" y="1214"/>
      <point x="727" y="1462"/>
      <point x="426" y="1462" type="curve" smooth="yes"/>
      <point x="160" y="1462" type="line"/>
      <point x="160" y="0" type="line"/>
      <point x="420" y="0" type="line" smooth="yes"/>
      <point x="730" y="0"/>
      <point x="885" y="248"/>
    </contour>
    <contour>
      <point x="782" y="739" type="curve" smooth="yes"/>
      <point x="782" y="316"/>
      <point x="667" y="90"/>
      <point x="414" y="90" type="curve" smooth="yes"/>
      <point x="258" y="90" type="line"/>
      <point x="258" y="1372" type="line"/>
      <point x="422" y="1372" type="line" smooth="yes"/>
      <point x="659" y="1372"/>
      <point x="782" y="1151"/>
    </contour>
    <contour>
      <point x="498" y="0" type="move" name="bottom"/>
    </contour>
    <contour>
      <point x="498" y="731" type="move" name="center"/>
    </contour>
    <contour>
      <point x="498" y="1462" type="move" name="top"/>
    </contour>
  </outline>
</glyph>
<glyph name="E" format="1">
  <advance width="788"/>
  <unicode hex="0045"/>
  <outline>
    <contour>
      <point x="690" y="94" type="line"/>
      <point x="690" y="0" type="line"/>
      <point x="160" y="0" type="line"/>
      <point x="160" y="1462" type="line"/>
      <point x="690" y="1462" type="line"/>
      <point x="690" y="1368" type="line"/>
      <point x="258" y="1368" type="line"/>
      <point x="258" y="813" type="line"/>
      <point x="666" y="813" type="line"/>
      <point x="666" y="719" type="line"/>
      <point x="258" y="719" type="line"/>
      <point x="258" y="94" type="line"/>
    </contour>
    <contour>
      <point x="394" y="0" type="move" name="bottom"/>
    </contour>
    <contour>
      <point x="709" y="10" type="move" name="ogonek"/>
    </contour>
    <contour>
      <point x="394" y="1462" type="move" name="top"/>
    </contour>
    <contour>
      <point x="20" y="1462" type="move" name="topleft"/>
    </contour>
  </outline>
</glyph>
<glyph name="G" format="1">
  <advance width="1075"/>
  <unicode hex="0047"/>
  <outline>
    <contour>
      <point x="614.0" y="-20.0" type="qcurve" smooth="yes"/>
      <point x="374.75" y="-20.0"/>
      <point x="111.0" y="380.25"/>
      <point x="111.0" y="735.0" type="qcurve" smooth="yes"/>
      <point x="111.0" y="972.0"/>
      <point x="233.5" y="1306.25"/>
      <point x="349.0" y="1394.0" type="qcurve" smooth="yes"/>
      <point x="467.1551724137931" y="1483.0"/>
      <point x="631.0" y="1483.0" type="qcurve" smooth="yes"/>
      <point x="797.7777777777778" y="1483.0"/>
      <point x="944" y="1389" type="qcurve"/>
      <point x="897.0" y="1303.0" type="line"/>
      <point x="759.7796610169491" y="1391.0"/>
      <point x="631.0" y="1391.0" type="qcurve" smooth="yes"/>
      <point x="426.25" y="1391.0"/>
      <point x="215.0" y="1054.0"/>
      <point x="215.0" y="733.0" type="qcurve" smooth="yes"/>
      <point x="215.0" y="418.75"/>
      <point x="428.0" y="74.0"/>
      <point x="623.0" y="74.0" type="qcurve" smooth="yes"/>
      <point x="764.3199999999999" y="74.0"/>
      <point x="862" y="111" type="qcurve"/>
      <point x="862" y="643" type="line"/>
      <point x="641" y="643" type="line"/>
      <point x="641" y="737" type="line"/>
      <point x="961" y="737" type="line"/>
      <point x="961.0" y="45.0" type="line"/>
      <point x="793.2093023255813" y="-20.0"/>
    </contour>
    <contour>
      <point x="568" y="0" type="move" name="bottom"/>
    </contour>
    <contour>
      <point x="631" y="1462" type="move" name="top"/>
    </contour>
  </outline>
</glyph>
<glyph name="H" format="1">
  <advance width="1026"/>
  <unicode hex="0048"/>
  <outline>
    <contour>
      <point x="866" y="1462" type="line"/>
      <point x="768" y="1462" type="line"/>
      <point x="768" y="813" type="line"/>
      <point x="258" y="813" type="line"/>
      <point x="258" y="1462" type="line"/>
      <point x="160" y="1462" type="line"/>
      <point x="160" y="0" type="line"/>
      <point x="258" y="0" type="line"/>
      <point x="258" y="719" type="line"/>
      <point x="768" y="719" type="line"/>
      <point x="768" y="0" type="line"/>
      <point x="866" y="0" type="line"/>
    </contour>
    <contour>
      <point x="513" y="0" type="move" name="bottom"/>
    </contour>
    <contour>
      <point x="513" y="731" type="move" name="center"/>
    </contour>
    <contour>
      <point x="513" y="1462" type="move" name="top"/>
    </contour>
    <contour>
      <point x="20" y="1462" type="move" name="topleft"/>
    </contour>
  </outline>
</glyph>
<glyph name="O" format="1">
  <advance width="1065"/>
  <unicode hex="004F"/>
  <outline>
    <contour>
      <point x="954.0" y="733.0" type="qcurve" smooth="yes"/>
      <point x="954.0" y="370.0"/>
      <point x="736.75" y="-20.0"/>
      <point x="532.0" y="-20.0" type="qcurve" smooth="yes"/>
      <point x="325.0" y="-20.0"/>
      <point x="111.0" y="372.75"/>
      <point x="111.0" y="735.0" type="qcurve" smooth="yes"/>
      <point x="111.0" y="1113.0"/>
      <point x="322.75" y="1483.0"/>
      <point x="535.0" y="1483.0" type="qcurve" smooth="yes"/>
      <point x="739.0" y="1483.0"/>
      <point x="954.0" y="1093.75"/>
    </contour>
    <contour>
      <point x="213.0" y="733.0" type="qcurve" smooth="yes"/>
      <point x="213.0" y="406.75"/>
      <point x="376.0" y="74.0"/>
      <point x="532.0" y="74.0" type="qcurve" smooth="yes"/>
      <point x="852.0" y="74.0"/>
      <point x="852.0" y="733.0" type="qcurve" smooth="yes"/>
      <point x="852.0" y="1389.0"/>
      <point x="535.0" y="1389.0" type="qcurve" smooth="yes"/>
      <point x="373.75" y="1389.0"/>
      <point x="213.0" y="1054.0"/>
    </contour>
    <contour>
      <point x="533" y="0" type="move" name="bottom"/>
    </contour>
    <contour>
      <point x="533" y="731" type="move" name="center"/>
    </contour>
    <contour>
      <point x="958" y="10" type="move" name="ogonek"/>
    </contour>
    <contour>
      <point x="533" y="1462" type="move" name="top"/>
    </contour>
    <contour>
      <point x="180" y="1462" type="move" name="topleft"/>
    </contour>
    <contour>
      <point x="1045" y="1462" type="move" name="topright"/>
    </contour>
  </outline>
</glyph>
<glyph name="P" format="1">
  <advance width="840"/>
  <unicode hex="0050"/>
  <outline>
    <contour>
      <point x="160" y="0" type="line"/>
      <point x="160" y="1462" type="line"/>
      <point x="360.0" y="1462.0" type="line" smooth="yes"/>
      <point x="573.75" y="1462.0"/>
      <point x="772.0" y="1260.25"/>
      <point x="772.0" y="1042.0" type="qcurve" smooth="yes"/>
      <point x="772.0" y="816.25"/>
      <point x="565.25" y="604.0"/>
      <point x="362" y="604" type="qcurve" smooth="yes"/>
      <point x="258" y="604" type="line"/>
      <point x="258" y="0" type="line"/>
    </contour>
    <contour>
      <point x="258" y="694" type="line"/>
      <point x="356.0" y="694.0" type="line" smooth="yes"/>
      <point x="527.75" y="694.0"/>
      <point x="672.0" y="856.0"/>
      <point x="672.0" y="1042.0" type="qcurve" smooth="yes"/>
      <point x="672.0" y="1219.0"/>
      <point x="523.0" y="1372.0"/>
      <point x="367" y="1372" type="qcurve" smooth="yes"/>
      <point x="258" y="1372" type="line"/>
    </contour>
    <contour>
      <point x="420" y="0" type="move" name="bottom"/>
    </contour>
    <contour>
      <point x="420" y="1462" type="move" name="top"/>
    </contour>
  </outline>
</glyph>
<glyph name="S" format="1">
  <advance width="809"/>
  <unicode hex="0053"/>
  <outline>
    <contour>
      <point x="346" y="-20" type="curve" smooth="yes"/>
      <point x="597" y="-20"/>
      <point x="721" y="158"/>
      <point x="721" y="383" type="curve" smooth="yes"/>
      <point x="721" y="603"/>
      <point x="603" y="696"/>
      <point x="436" y="787" type="curve" smooth="yes"/>
      <point x="339" y="840"/>
      <point x="268" y="879"/>
      <point x="229" y="948" type="curve" smooth="yes"/>
      <point x="207" y="987"/>
      <point x="195" y="1035"/>
      <point x="195" y="1100" type="curve" smooth="yes"/>
      <point x="195" y="1289"/>
      <point x="294" y="1386"/>
      <point x="445" y="1386" type="curve" smooth="yes"/>
      <point x="512" y="1386"/>
      <point x="590" y="1367"/>
      <point x="664" y="1329" type="curve"/>
      <point x="702" y="1423" type="line"/>
      <point x="652" y="1451"/>
      <point x="548" y="1483"/>
      <point x="444" y="1483" type="curve" smooth="yes"/>
      <point x="235" y="1483"/>
      <point x="98" y="1331"/>
      <point x="98" y="1107" type="curve" smooth="yes"/>
      <point x="98" y="1048"/>
      <point x="107" y="993"/>
      <point x="125" y="944" type="curve" smooth="yes"/>
      <point x="170" y="823"/>
      <point x="256" y="773"/>
      <point x="377" y="709" type="curve" smooth="yes"/>
      <point x="521" y="633"/>
      <point x="623" y="575"/>
      <point x="623" y="385" type="curve" smooth="yes"/>
      <point x="623" y="200"/>
      <point x="527" y="74"/>
      <point x="353" y="74" type="curve" smooth="yes"/>
      <point x="279" y="74"/>
      <point x="155" y="97"/>
      <point x="86" y="137" type="curve"/>
      <point x="86" y="31" type="line"/>
      <point x="160" y="-6"/>
      <point x="276" y="-20"/>
    </contour>
    <contour>
      <point x="349" y="0" type="move" name="bottom"/>
    </contour>
    <contour>
      <point x="405" y="1462" type="move" name="top"/>
    </contour>
  </outline>
</glyph>
<glyph name="U" format="1">
  <advance width="1012"/>
  <unicode hex="0055"/>
  <outline>
    <contour>
      <point x="510.0" y="-20.0" type="qcurve" smooth="yes"/>
      <point x="333.0" y="-20.0"/>
      <point x="147.0" y="235.75"/>
      <point x="147" y="475" type="qcurve" smooth="yes"/>
      <point x="147" y="1462" type="line"/>
      <point x="246" y="1462" type="line"/>
      <point x="246.0" y="463.0" type="line" smooth="yes"/>
      <point x="246.0" y="273.25"/>
      <point x="383.25" y="74.0"/>
      <point x="510.0" y="74.0" type="qcurve" smooth="yes"/>
      <point x="766.0" y="74.0"/>
      <point x="766" y="467" type="qcurve" smooth="yes"/>
      <point x="766" y="1462" type="line"/>
      <point x="864" y="1462" type="line"/>
      <point x="864.0" y="475.0" type="line" smooth="yes"/>
      <point x="864.0" y="-20.0"/>
    </contour>
    <contour>
      <point x="506" y="0" type="move" name="bottom"/>
    </contour>
    <contour>
      <point x="703" y="10" type="move" name="ogonek"/>
    </contour>
    <contour>
      <point x="506" y="1462" type="move" name="top"/>
    </contour>
    <contour>
      <point x="992" y="1462" type="move" name="topright"/>
    </contour>
  </outline>
</glyph>
<glyph name="Z" format="1">
  <advance width="643"/>
  <unicode hex="005A"/>
  <outline>
    <contour>
      <point x="602" y="94" type="line"/>
      <point x="160" y="94" type="line"/>
      <point x="590" y="1372" type="line"/>
      <point x="590" y="1462" type="line"/>
      <point x="63" y="1462" type="line"/>
      <point x="63" y="1366" type="line"/>
      <point x="481" y="1366" type="line"/>
      <point x="57" y="88" type="line"/>
      <point x="57" y="0" type="line"/>
      <point x="602" y="0" type="line"/>
    </contour>
    <contour>
      <point x="322" y="0" type="move" name="bottom"/>
    </contour>
    <contour>
      <point x="322" y="1462" type="move" name="top"/>
    </contour>
  </outline>
</glyph>
<glyph name="b" format="1">
  <advance width="893"/>
  <unicode hex="0062"/>
  <outline>
    <contour>
      <point x="494.0" y="-20.0" type="qcurve" smooth="yes"/>
      <point x="329.0" y="-20.0"/>
      <point x="244" y="150" type="qcurve"/>
      <point x="236" y="150" type="line"/>
      <point x="223" y="0" type="line"/>
      <point x="145" y="0" type="line"/>
      <point x="145" y="1556" type="line"/>
      <point x="240" y="1556" type="line"/>
      <point x="240.0" y="1073.0" type="line" smooth="yes"/>
      <point x="240.0" y="1040.0"/>
      <point x="238.25" y="975.0"/>
      <point x="236" y="942" type="qcurve"/>
      <point x="244.0" y="942.0" type="line"/>
      <point x="330.7857142857143" y="1104.0"/>
      <point x="486.0" y="1104.0" type="qcurve" smooth="yes"/>
      <point x="639.0" y="1104.0"/>
      <point x="799.0" y="825.25"/>
      <point x="799.0" y="547.0" type="qcurve" smooth="yes"/>
      <point x="799.0" y="270.25"/>
      <point x="641.75" y="-20.0"/>
    </contour>
    <contour>
      <point x="478.0" y="66.0" type="qcurve" smooth="yes"/>
      <point x="570.0" y="66.0"/>
      <point x="665.6666666666665" y="201.83333333333331"/>
      <point x="700.0" y="421.0"/>
      <point x="700.0" y="546.0" type="qcurve" smooth="yes"/>
      <point x="700.0" y="783.75"/>
      <point x="592.75" y="1016.0"/>
      <point x="472.0" y="1016.0" type="qcurve" smooth="yes"/>
      <point x="374.0" y="1016.0"/>
      <point x="274.33333333333326" y="887.1666666666665"/>
      <point x="240.0" y="673.0"/>
      <point x="240" y="545" type="qcurve" smooth="yes"/>
      <point x="240.0" y="520.0" type="line" smooth="yes"/>
      <point x="240.0" y="403.0"/>
      <point x="280.25" y="195.50000000000003"/>
      <point x="383.5" y="66.0"/>
    </contour>
    <contour>
      <point x="447" y="0" type="move" name="bottom"/>
    </contour>
    <contour>
      <point x="447" y="1085" type="move" name="top"/>
    </contour>
  </outline>
</glyph>
<glyph name="c" format="1">
  <advance width="635"/>
  <unicode hex="0063"/>
  <outline>
    <contour>
      <point x="424" y="-20" type="curve" smooth="yes"/>
      <point x="471" y="-20"/>
      <point x="544" y="-6"/>
      <point x="588" y="18" type="curve"/>
      <point x="588" y="98" type="line"/>
      <point x="533" y="77"/>
      <point x="481" y="66"/>
      <point x="434" y="66" type="curve" smooth="yes"/>
      <point x="356" y="66"/>
      <point x="297" y="104"/>
      <point x="257" y="180" type="curve" smooth="yes"/>
      <point x="216" y="259"/>
      <point x="195" y="379"/>
      <point x="195" y="539" type="curve" smooth="yes"/>
      <point x="195" y="700"/>
      <point x="215" y="820"/>
      <point x="256" y="899" type="curve" smooth="yes"/>
      <point x="296" y="977"/>
      <point x="355" y="1016"/>
      <point x="434" y="1016" type="curve" smooth="yes"/>
      <point x="471" y="1016"/>
      <point x="512" y="1006"/>
      <point x="557" y="985" type="curve"/>
      <point x="594" y="1069" type="line"/>
      <point x="549" y="1094"/>
      <point x="493" y="1106"/>
      <point x="426" y="1106" type="curve" smooth="yes"/>
      <point x="209" y="1106"/>
      <point x="96" y="908"/>
      <point x="96" y="537" type="curve" smooth="yes"/>
      <point x="96" y="172"/>
      <point x="207" y="-20"/>
    </contour>
    <contour>
      <point x="398" y="0" type="move" name="bottom"/>
    </contour>
    <contour>
      <point x="318" y="1085" type="move" name="top"/>
    </contour>
  </outline>
</glyph>
<glyph name="d" format="1">
  <advance width="893"/>
  <unicode hex="0064"/>
  <outline>
    <contour>
      <point x="410.0" y="-20.0" type="qcurve" smooth="yes"/>
      <point x="94.0" y="-20.0"/>
      <point x="94.0" y="541.0" type="qcurve" smooth="yes"/>
      <point x="94.0" y="817.0"/>
      <point x="252.25" y="1106.0"/>
      <point x="406.0" y="1106.0" type="qcurve" smooth="yes"/>
      <point x="478.75" y="1106.0"/>
      <point x="610.0" y="1022.25"/>
      <point x="649" y="948" type="qcurve"/>
      <point x="657.0" y="948.0" type="line"/>
      <point x="656.25" y="978.0"/>
      <point x="653.75" y="1039.0"/>
      <point x="653" y="1069" type="qcurve" smooth="yes"/>
      <point x="653" y="1556" type="line"/>
      <point x="748" y="1556" type="line"/>
      <point x="748" y="0" type="line"/>
      <point x="670" y="0" type="line"/>
      <point x="662" y="152" type="line"/>
      <point x="653.0" y="152.0" type="line"/>
      <point x="572.4234234234234" y="-20.000000000000007"/>
    </contour>
    <contour>
      <point x="416.0" y="63.0" type="qcurve" smooth="yes"/>
      <point x="505.5" y="63.0"/>
      <point x="609.0833333333333" y="179.75"/>
      <point x="653.0" y="369.5"/>
      <point x="653" y="479" type="qcurve" smooth="yes"/>
      <point x="653.0" y="541.0" type="line" smooth="yes"/>
      <point x="653.0" y="669.5"/>
      <point x="614.5833333333333" y="885.5833333333333"/>
      <point x="510.5" y="1016.0"/>
      <point x="412.0" y="1016.0" type="qcurve" smooth="yes"/>
      <point x="321.0" y="1016.0"/>
      <point x="226.66666666666663" y="880.0"/>
      <point x="193.0" y="662.0"/>
      <point x="193.0" y="539.0" type="qcurve" smooth="yes"/>
      <point x="193.0" y="414.0"/>
      <point x="228.66666666666666" y="196.83333333333331"/>
      <point x="325.0" y="63.0"/>
    </contour>
    <contour>
      <point x="447" y="0" type="move" name="bottom"/>
    </contour>
    <contour>
      <point x="447" y="543" type="move" name="center"/>
    </contour>
    <contour>
      <point x="447" y="1085" type="move" name="top"/>
    </contour>
    <contour>
      <point x="873" y="1085" type="move" name="topright"/>
    </contour>
  </outline>
</glyph>
<glyph name="f" format="1">
  <advance width="453"/>
  <unicode hex="0066"/>
  <outline>
    <contour>
      <point x="158" y="0" type="line"/>
      <point x="252" y="0" type="line"/>
      <point x="252" y="1001" type="line"/>
      <point x="422" y="1001" type="line"/>
      <point x="422" y="1085" type="line"/>
      <point x="252" y="1085" type="line"/>
      <point x="252" y="1176" type="line" smooth="yes"/>
      <point x="252" y="1253"/>
      <point x="256" y="1313"/>
      <point x="264" y="1356" type="curve" smooth="yes"/>
      <point x="280" y="1443"/>
      <point x="310" y="1479"/>
      <point x="375" y="1479" type="curve" smooth="yes"/>
      <point x="404" y="1479"/>
      <point x="436" y="1471"/>
      <point x="471" y="1454" type="curve"/>
      <point x="504" y="1542" type="line"/>
      <point x="466" y="1559"/>
      <point x="424" y="1567"/>
      <point x="377" y="1567" type="curve" smooth="yes"/>
      <point x="216" y="1567"/>
      <point x="158" y="1454"/>
      <point x="158" y="1178" type="curve" smooth="yes"/>
      <point x="158" y="1096" type="line"/>
      <point x="20" y="1055" type="line"/>
      <point x="20" y="1001" type="line"/>
      <point x="158" y="1001" type="line"/>
    </contour>
    <contour>
      <point x="227" y="0" type="move" name="bottom"/>
    </contour>
    <contour>
      <point x="227" y="1085" type="move" name="top"/>
    </contour>
  </outline>
</glyph>
<glyph name="g" format="1">
  <advance width="741"/>
  <unicode hex="0067"/>
  <outline>
    <contour>
      <point x="483" y="1085" type="qcurve"/>
      <point x="713" y="1085" type="line"/>
      <point x="713" y="1018" type="line"/>
      <point x="565.0" y="1001.0" type="line"/>
      <point x="595.0" y="962.0"/>
      <point x="633.0" y="816.75"/>
      <point x="633.0" y="741.0" type="qcurve" smooth="yes"/>
      <point x="633.0" y="582.75"/>
      <point x="490.0" y="387.0"/>
      <point x="373.0" y="387.0" type="qcurve" smooth="yes"/>
      <point x="361.75" y="387.0"/>
      <point x="339.25" y="387.5"/>
      <point x="328.0" y="389.0" type="qcurve"/>
      <point x="280.0" y="355.25"/>
      <point x="225.0" y="287.0"/>
      <point x="225.0" y="242.0" type="qcurve" smooth="yes"/>
      <point x="225.0" y="196.25"/>
      <point x="297.25" y="145.0"/>
      <point x="358" y="145" type="qcurve" smooth="yes"/>
      <point x="426.0" y="145.0" type="line" smooth="yes"/>
      <point x="570.75" y="145.0"/>
      <point x="731.0" y="-5.25"/>
      <point x="731.0" y="-147.0" type="qcurve" smooth="yes"/>
      <point x="731.0" y="-306.0"/>
      <point x="516.25" y="-492.0"/>
      <point x="340.0" y="-492.0" type="qcurve" smooth="yes"/>
      <point x="193.0" y="-492.0"/>
      <point x="35.0" y="-343.25"/>
      <point x="35.0" y="-203.0" type="qcurve" smooth="yes"/>
      <point x="35.0" y="-101.0"/>
      <point x="139.0" y="44.0"/>
      <point x="250.0" y="86.0" type="qcurve"/>
      <point x="199.75" y="107.75"/>
      <point x="139.0" y="186.0"/>
      <point x="139.0" y="240.0" type="qcurve" smooth="yes"/>
      <point x="139.0" y="288.75"/>
      <point x="204.0" y="365.75"/>
      <point x="264.0" y="410.0" type="qcurve"/>
      <point x="180.75" y="448.25"/>
      <point x="96.0" y="618.25"/>
      <point x="96.0" y="733.0" type="qcurve" smooth="yes"/>
      <point x="96.0" y="906.25"/>
      <point x="242.25" y="1106.0"/>
      <point x="369.0" y="1106.0" type="qcurve" smooth="yes"/>
      <point x="436.5" y="1106.0"/>
    </contour>
    <contour>
      <point x="129.0" y="-195.0" type="qcurve" smooth="yes"/>
      <point x="129.0" y="-297.75"/>
      <point x="236.0" y="-414.0"/>
      <point x="344.0" y="-414.0" type="qcurve" smooth="yes"/>
      <point x="478.25" y="-414.0"/>
      <point x="635.0" y="-274.25"/>
      <point x="635.0" y="-152.0" type="qcurve" smooth="yes"/>
      <point x="635.0" y="-53.75"/>
      <point x="528.0" y="53.0"/>
      <point x="426" y="53" type="qcurve" smooth="yes"/>
      <point x="356.0" y="53.0" type="line" smooth="yes"/>
      <point x="257.75" y="53.0"/>
      <point x="129.0" y="-84.0"/>
    </contour>
    <contour>
      <point x="188.0" y="731.0" type="qcurve" smooth="yes"/>
      <point x="188.0" y="598.25"/>
      <point x="286.0" y="461.0"/>
      <point x="367.0" y="461.0" type="qcurve" smooth="yes"/>
      <point x="541.0" y="461.0"/>
      <point x="541.0" y="741.0" type="qcurve" smooth="yes"/>
      <point x="541.0" y="876.0"/>
      <point x="451.75" y="1028.0"/>
      <point x="367.0" y="1028.0" type="qcurve" smooth="yes"/>
      <point x="280.0" y="1028.0"/>
      <point x="188.0" y="872.0"/>
    </contour>
    <contour>
      <point x="371" y="0" type="move" name="bottom"/>
    </contour>
    <contour>
      <point x="371" y="1085" type="move" name="top"/>
    </contour>
  </outline>
</glyph>
<glyph name="h" format="1">
  <advance width="870"/>
  <unicode hex="0068"/>
  <outline>
    <contour>
      <point x="145" y="0" type="line"/>
      <point x="145" y="1556" type="line"/>
      <point x="240" y="1556" type="line"/>
      <point x="240.0" y="1051.0" type="line" smooth="yes"/>
      <point x="240.0" y="1016.5"/>
      <point x="238.25" y="959.25"/>
      <point x="236" y="936" type="qcurve"/>
      <point x="244.0" y="936.0" type="line"/>
      <point x="276.25" y="1013.25"/>
      <point x="397.25" y="1106.0"/>
      <point x="488.0" y="1106.0" type="qcurve" smooth="yes"/>
      <point x="616.25" y="1106.0"/>
      <point x="729.0" y="917.5"/>
      <point x="729" y="748" type="qcurve" smooth="yes"/>
      <point x="729" y="0" type="line"/>
      <point x="635" y="0" type="line"/>
      <point x="635.0" y="748.0" type="line" smooth="yes"/>
      <point x="635.0" y="894.25"/>
      <point x="558.25" y="1018.0"/>
      <point x="472.0" y="1018.0" type="qcurve" smooth="yes"/>
      <point x="352.19718309859155" y="1018.0"/>
      <point x="296.0" y="913.0" type="qcurve" smooth="yes"/>
      <point x="269.0" y="862.75"/>
      <point x="240.0" y="703.5"/>
      <point x="240" y="594" type="qcurve" smooth="yes"/>
      <point x="240" y="0" type="line"/>
    </contour>
    <contour>
      <point x="435" y="0" type="move" name="bottom"/>
    </contour>
    <contour>
      <point x="435" y="543" type="move" name="center"/>
    </contour>
    <contour>
      <point x="435" y="1485" type="move" name="top"/>
    </contour>
  </outline>
</glyph>
<glyph name="m" format="1">
  <advance width="1303"/>
  <unicode hex="006D"/>
  <outline>
    <contour>
      <point x="145" y="0" type="line"/>
      <point x="145" y="1085" type="line"/>
      <point x="225" y="1085" type="line"/>
      <point x="233" y="934" type="line"/>
      <point x="242.0" y="934.0" type="line"/>
      <point x="306.31304347826085" y="1106.0"/>
      <point x="463.0" y="1106.0" type="qcurve" smooth="yes"/>
      <point x="553.0" y="1106.0"/>
      <point x="655.75" y="1009.5"/>
      <point x="679" y="918" type="qcurve"/>
      <point x="680.0" y="918.0" type="line"/>
      <point x="719.0" y="1017.75"/>
      <point x="833.25" y="1106.0"/>
      <point x="924.0" y="1106.0" type="qcurve" smooth="yes"/>
      <point x="1047.0" y="1106.0"/>
      <point x="1161.0" y="916.75"/>
      <point x="1161" y="709" type="qcurve" smooth="yes"/>
      <point x="1161" y="0" type="line"/>
      <point x="1067" y="0" type="line"/>
      <point x="1067.0" y="739.0" type="line" smooth="yes"/>
      <point x="1067.0" y="1012.0"/>
      <point x="907.0" y="1012.0" type="qcurve" smooth="yes"/>
      <point x="798.7619047619048" y="1012.0"/>
      <point x="749.0" y="917.0" type="qcurve" smooth="yes"/>
      <point x="723.5" y="869.75"/>
      <point x="700.0" y="728.0"/>
      <point x="700" y="635" type="qcurve" smooth="yes"/>
      <point x="700" y="0" type="line"/>
      <point x="606" y="0" type="line"/>
      <point x="606.0" y="739.0" type="line" smooth="yes"/>
      <point x="606.0" y="1012.0"/>
      <point x="446.0" y="1012.0" type="qcurve" smooth="yes"/>
      <point x="338.75384615384615" y="1012.0"/>
      <point x="289.0" y="914.0" type="qcurve" smooth="yes"/>
      <point x="240.0" y="817.4848484848485"/>
      <point x="240" y="596" type="qcurve" smooth="yes"/>
      <point x="240" y="0" type="line"/>
    </contour>
    <contour>
      <point x="652" y="0" type="move" name="bottom"/>
    </contour>
    <contour>
      <point x="652" y="1085" type="move" name="top"/>
    </contour>
  </outline>
</glyph>
<glyph name="s" format="1">
  <advance width="645"/>
  <unicode hex="0073"/>
  <outline>
    <contour>
      <point x="289" y="-20" type="curve" smooth="yes"/>
      <point x="473" y="-20"/>
      <point x="571" y="89"/>
      <point x="571" y="272" type="curve" smooth="yes"/>
      <point x="571" y="317"/>
      <point x="565" y="356"/>
      <point x="552" y="391" type="curve" smooth="yes"/>
      <point x="520" y="478"/>
      <point x="461" y="519"/>
      <point x="344" y="597" type="curve" smooth="yes"/>
      <point x="261" y="653"/>
      <point x="212" y="691"/>
      <point x="187" y="736" type="curve" smooth="yes"/>
      <point x="172" y="762"/>
      <point x="166" y="791"/>
      <point x="166" y="827" type="curve" smooth="yes"/>
      <point x="166" y="949"/>
      <point x="238" y="1016"/>
      <point x="351" y="1016" type="curve" smooth="yes"/>
      <point x="410" y="1016"/>
      <point x="469" y="998"/>
      <point x="524" y="961" type="curve"/>
      <point x="573" y="1044" type="line"/>
      <point x="518" y="1083"/>
      <point x="440" y="1106"/>
      <point x="361" y="1106" type="curve" smooth="yes"/>
      <point x="185" y="1106"/>
      <point x="74" y="992"/>
      <point x="74" y="832" type="curve" smooth="yes"/>
      <point x="74" y="786"/>
      <point x="83" y="746"/>
      <point x="97" y="712" type="curve" smooth="yes"/>
      <point x="132" y="626"/>
      <point x="173" y="598"/>
      <point x="311" y="506" type="curve" smooth="yes"/>
      <point x="441" y="419"/>
      <point x="477" y="370"/>
      <point x="477" y="276" type="curve" smooth="yes"/>
      <point x="477" y="150"/>
      <point x="413" y="70"/>
      <point x="293" y="70" type="curve" smooth="yes"/>
      <point x="214" y="70"/>
      <point x="121" y="104"/>
      <point x="74" y="152" type="curve"/>
      <point x="74" y="41" type="line"/>
      <point x="115" y="10"/>
      <point x="193" y="-20"/>
    </contour>
    <contour>
      <point x="291" y="0" type="move" name="bottom"/>
    </contour>
    <contour>
      <point x="323" y="1085" type="move" name="top"/>
    </contour>
  </outline>
</glyph>
<glyph name="v" format="1">
  <advance width="653"/>
  <unicode hex="0076"/>
  <outline>
    <contour>
      <point x="266" y="0" type="line"/>
      <point x="10" y="1085" type="line"/>
      <point x="106" y="1085" type="line"/>
      <point x="268.0" y="387.0" type="line" smooth="yes"/>
      <point x="296.5" y="265.5"/>
      <point x="322" y="123" type="qcurve"/>
      <point x="330.0" y="123.0" type="line"/>
      <point x="333.0" y="149.25"/>
      <point x="342.5" y="206.75"/>
      <point x="350" y="239" type="qcurve" smooth="yes"/>
      <point x="547" y="1085" type="line"/>
      <point x="643" y="1085" type="line"/>
      <point x="379" y="0" type="line"/>
    </contour>
    <contour>
      <point x="327" y="0" type="move" name="bottom"/>
    </contour>
    <contour>
      <point x="327" y="1085" type="move" name="top"/>
    </contour>
  </outline>
</glyph>
<glyph name="w" format="1">
  <advance width="1123"/>
  <unicode hex="0077"/>
  <outline>
    <contour>
      <point x="255" y="0" type="line"/>
      <point x="20" y="1086" type="line"/>
      <point x="114" y="1086" type="line"/>
      <point x="250.0" y="454.0" type="line" smooth="yes"/>
      <point x="251.125" y="449.5"/>
      <point x="264.8697916666667" y="379.5416666666667"/>
      <point x="284.3802083333333" y="276.9583333333333"/>
      <point x="304.5" y="167.25"/>
      <point x="312" y="123" type="qcurve"/>
      <point x="318.0" y="123.0" type="line"/>
      <point x="327.75" y="195.0"/>
      <point x="356.75" y="360.75"/>
      <point x="377" y="456" type="qcurve" smooth="yes"/>
      <point x="512" y="1086" type="line"/>
      <point x="613" y="1086" type="line"/>
      <point x="749.0" y="454.0" type="line" smooth="yes"/>
      <point x="755.75" y="423.25"/>
      <point x="788.0" y="239.25"/>
      <point x="806" y="123" type="qcurve"/>
      <point x="811.0" y="123.0" type="line"/>
      <point x="815.5" y="160.5"/>
      <point x="827.5" y="224.5"/>
      <point x="841" y="289" type="qcurve" smooth="yes"/>
      <point x="1010" y="1086" type="line"/>
      <point x="1104" y="1086" type="line"/>
      <point x="860" y="0" type="line"/>
      <point x="748" y="0" type="line"/>
      <point x="598.0" y="735.0" type="line" smooth="yes"/>
      <point x="597.0" y="740.0"/>
      <point x="585.0833333333333" y="809.9166666666665"/>
      <point x="569.5" y="903.5"/>
      <point x="563" y="944" type="qcurve"/>
      <point x="561.0" y="944.0" type="line"/>
      <point x="549.75" y="872.0"/>
      <point x="535.0" y="792.0"/>
      <point x="523" y="735" type="qcurve" smooth="yes"/>
      <point x="370" y="0" type="line"/>
    </contour>
    <contour>
      <point x="561" y="0" type="move" name="bottom"/>
    </contour>
    <contour>
      <point x="561" y="1086" type="move" name="top"/>
    </contour>
  </outline>
</glyph>
<glyph name="y" format="1">
  <advance width="653"/>
  <unicode hex="0079"/>
  <outline>
    <contour>
      <point x="88.0" y="-492.0" type="qcurve" smooth="yes"/>
      <point x="47.45454545454545" y="-492.0"/>
      <point x="-2" y="-475" type="qcurve"/>
      <point x="-2.0" y="-389.0" type="line"/>
      <point x="40.0" y="-403.0"/>
      <point x="74.0" y="-403.0" type="qcurve" smooth="yes"/>
      <point x="137.0" y="-403.0"/>
      <point x="203.0" y="-297.0"/>
      <point x="233.0" y="-186.0" type="qcurve" smooth="yes"/>
      <point x="245.75" y="-138.75"/>
      <point x="264.5" y="-66.25"/>
      <point x="281" y="2" type="qcurve"/>
      <point x="10" y="1085" type="line"/>
      <point x="106" y="1085" type="line"/>
      <point x="270.0" y="408.0" type="line" smooth="yes"/>
      <point x="282.0" y="357.75"/>
      <point x="313.25" y="205.75"/>
      <point x="326" y="133" type="qcurve"/>
      <point x="334.0" y="133.0" type="line"/>
      <point x="346.0" y="214.75"/>
      <point x="370.5" y="339.5"/>
      <point x="387" y="410" type="qcurve" smooth="yes"/>
      <point x="547" y="1085" type="line"/>
      <point x="643" y="1085" type="line"/>
      <point x="326.0" y="-205.0" type="line" smooth="yes"/>
      <point x="292.25" y="-342.25"/>
      <point x="181.0" y="-492.0"/>
    </contour>
    <contour>
      <point x="447" y="0" type="move" name="bottom"/>
    </contour>
    <contour>
      <point x="327" y="1085" type="move" name="top"/>
    </contour>
  </outline>
</glyph>
<glyph name="braceright" format="1">
  <advance width="737"/>
  <unicode hex="007D"/>
  <note>
    braceright
  </note>
  <outline>
    <contour>
      <point x="104" y="-324" type="line"/>
      <point x="202" y="-322"/>
      <point x="280" y="-292"/>
      <point x="334" y="-240" type="curve" smooth="yes"/>
      <point x="391" y="-185"/>
      <point x="422" y="-105"/>
      <point x="422" y="-4" type="curve" smooth="yes"/>
      <point x="422" y="319" type="line" smooth="yes"/>
      <point x="422" y="380"/>
      <point x="429" y="424"/>
      <point x="442" y="452" type="curve" smooth="yes"/>
      <point x="469" y="508"/>
      <point x="525" y="535"/>
      <point x="629" y="535" type="curve"/>
      <point x="629" y="604" type="line"/>
      <point x="532" y="604"/>
      <point x="457" y="629"/>
      <point x="435" y="707" type="curve" smooth="yes"/>
      <point x="426" y="735"/>
      <point x="422" y="771"/>
      <point x="422" y="819" type="curve" smooth="yes"/>
      <point x="422" y="1143" type="line" smooth="yes"/>
      <point x="422" y="1257"/>
      <point x="382" y="1344"/>
      <point x="310" y="1398" type="curve" smooth="yes"/>
      <point x="258" y="1438"/>
      <point x="188" y="1460"/>
      <point x="104" y="1462" type="curve"/>
      <point x="104" y="1382" type="line"/>
      <point x="154" y="1381"/>
      <point x="195" y="1372"/>
      <point x="227" y="1355" type="curve" smooth="yes"/>
      <point x="292" y="1321"/>
      <point x="324" y="1253"/>
      <point x="324" y="1147" type="curve" smooth="yes"/>
      <point x="324" y="831" type="line" smooth="yes"/>
      <point x="324" y="670"/>
      <point x="381" y="600"/>
      <point x="518" y="573" type="curve"/>
      <point x="518" y="565" type="line"/>
      <point x="378" y="538"/>
      <point x="324" y="468"/>
      <point x="324" y="307" type="curve" smooth="yes"/>
      <point x="324" y="-8" type="line" smooth="yes"/>
      <point x="324" y="-94"/>
      <point x="303" y="-155"/>
      <point x="261" y="-193" type="curve" smooth="yes"/>
      <point x="225" y="-226"/>
      <point x="173" y="-243"/>
      <point x="104" y="-244" type="curve"/>
    </contour>
  </outline>
</glyph>
<glyph name="exclamdown" format="1">
  <advance width="451"/>
  <unicode hex="00A1"/>
  <note>
exclamdown
</note>
  <outline>
    <contour>
      <point x="162" y="-391" type="line"/>
      <point x="197" y="705" type="line"/>
      <point x="252" y="705" type="line"/>
      <point x="287" y="-391" type="line"/>
    </contour>
    <contour>
      <point x="225.0" y="874.0" type="qcurve" smooth="yes"/>
      <point x="147.0" y="874.0"/>
      <point x="147.0" y="981.0" type="qcurve" smooth="yes"/>
      <point x="147.0" y="1087.0"/>
      <point x="225.0" y="1087.0" type="qcurve" smooth="yes"/>
      <point x="257.25" y="1087.0"/>
      <point x="303.0" y="1038.0"/>
      <point x="303.0" y="981.0" type="qcurve" smooth="yes"/>
      <point x="303.0" y="921.75"/>
      <point x="257.25" y="874.0"/>
    </contour>
  </outline>
</glyph>
<glyph name="cent" format="1">
  <advance width="819"/>
  <unicode hex="00A2"/>
  <note>
cent
</note>
  <outline>
    <contour>
      <point x="438" y="-20" type="line"/>
      <point x="438.0" y="193.0" type="line"/>
      <point x="303.0" y="216.25"/>
      <point x="168.0" y="498.25"/>
      <point x="168.0" y="745.0" type="qcurve" smooth="yes"/>
      <point x="168.0" y="994.0"/>
      <point x="302.25" y="1281.25"/>
      <point x="438" y="1309" type="qcurve"/>
      <point x="438" y="1483" type="line"/>
      <point x="520" y="1483" type="line"/>
      <point x="520" y="1269" type="line"/>
      <point x="483" y="1316" type="line"/>
      <point x="487.0" y="1316.0" type="line" smooth="yes"/>
      <point x="598.8614190687362" y="1314.4883592017738"/>
      <point x="666" y="1278" type="qcurve"/>
      <point x="629.0" y="1192.0" type="line"/>
      <point x="557.2631578947369" y="1221.0"/>
      <point x="506.0" y="1221.0" type="qcurve" smooth="yes"/>
      <point x="406.21153846153845" y="1221.0"/>
      <point x="350.0" y="1142.0" type="qcurve" smooth="yes"/>
      <point x="307.25" y="1084.25"/>
      <point x="268.0" y="885.25"/>
      <point x="268.0" y="748.0" type="qcurve" smooth="yes"/>
      <point x="268.0" y="457.39344262295083"/>
      <point x="359.0" y="347.0" type="qcurve" smooth="yes"/>
      <point x="414.9111111111111" y="279.0"/>
      <point x="506.0" y="279.0" type="qcurve" smooth="yes"/>
      <point x="575.1904761904761" y="279.0"/>
      <point x="659" y="311" type="qcurve"/>
      <point x="659.0" y="227.0" type="line"/>
      <point x="598.9526066350711" y="190.97156398104266"/>
      <point x="484" y="185" type="qcurve"/>
      <point x="481" y="185" type="line"/>
      <point x="520" y="234" type="line"/>
      <point x="520" y="-20" type="line"/>
    </contour>
  </outline>
</glyph>
<glyph name="brokenbar" format="1">
  <advance width="819"/>
  <unicode hex="00A6"/>
  <note>
    brokenbar
  </note>
  <outline>
    <contour>
      <point x="362" y="-492" type="line"/>
      <point x="457" y="-492" type="line"/>
      <point x="457" y="307" type="line"/>
      <point x="362" y="307" type="line"/>
    </contour>
    <contour>
      <point x="362" y="758" type="line"/>
      <point x="457" y="758" type="line"/>
      <point x="457" y="1556" type="line"/>
      <point x="362" y="1556" type="line"/>
    </contour>
  </outline>
</glyph>
<glyph name="section" format="1">
  <advance width="698"/>
  <unicode hex="00A7"/>
  <note>
section
</note>
  <outline>
    <contour>
      <point x="307.0" y="98.0" type="qcurve" smooth="yes"/>
      <point x="169.78378378378378" y="98.0"/>
      <point x="82" y="154" type="qcurve"/>
      <point x="82.0" y="254.0" type="line"/>
      <point x="121.75" y="218.75"/>
      <point x="239.75" y="180.0"/>
      <point x="305.0" y="180.0" type="qcurve" smooth="yes"/>
      <point x="395.0" y="180.0"/>
      <point x="506.0" y="284.0"/>
      <point x="506.0" y="362.0" type="qcurve" smooth="yes"/>
      <point x="506.0" y="401.0"/>
      <point x="484.0" y="461.0"/>
      <point x="454.0" y="491.0" type="qcurve" smooth="yes"/>
      <point x="415.57894736842104" y="527.9433198380567"/>
      <point x="340.0" y="573.0" type="qcurve" smooth="yes"/>
      <point x="316.75" y="586.5"/>
      <point x="269.25" y="614.5"/>
      <point x="246.0" y="628.0" type="qcurve" smooth="yes"/>
      <point x="200.25" y="655.0"/>
      <point x="133.5" y="713.0"/>
      <point x="114.0" y="746.0" type="qcurve" smooth="yes"/>
      <point x="82.0" y="796.2857142857143"/>
      <point x="82.0" y="858.0" type="qcurve" smooth="yes"/>
      <point x="82.0" y="939.0"/>
      <point x="160.75" y="1055.75"/>
      <point x="229.0" y="1085.0" type="qcurve"/>
      <point x="102.0" y="1173.1529411764707"/>
      <point x="102.0" y="1303.0" type="qcurve" smooth="yes"/>
      <point x="102.0" y="1416.25"/>
      <point x="257.75" y="1556.0"/>
      <point x="377.0" y="1556.0" type="qcurve" smooth="yes"/>
      <point x="436.25" y="1556.0"/>
      <point x="519.0" y="1536.25"/>
      <point x="582" y="1501" type="qcurve"/>
      <point x="543.0" y="1427.0" type="line"/>
      <point x="492.75" y="1457.0"/>
      <point x="418.0" y="1477.0"/>
      <point x="373.0" y="1477.0" type="qcurve" smooth="yes"/>
      <point x="292.0" y="1477.0"/>
      <point x="195.0" y="1387.0"/>
      <point x="195.0" y="1315.0" type="qcurve" smooth="yes"/>
      <point x="195.0" y="1272.5"/>
      <point x="222.74999999999994" y="1207.5"/>
      <point x="299.5" y="1142.5"/>
      <point x="373.0" y="1100.0" type="qcurve" smooth="yes"/>
      <point x="482.54979536152797" y="1036.9713506139153"/>
      <point x="521.0" y="1000.0" type="qcurve" smooth="yes"/>
      <point x="560.0" y="963.25"/>
      <point x="600.0" y="873.75"/>
      <point x="600.0" y="813.0" type="qcurve" smooth="yes"/>
      <point x="600.0" y="741.75"/>
      <point x="534.25" y="616.25"/>
      <point x="481.0" y="584.0" type="qcurve"/>
      <point x="546.25" y="533.75"/>
      <point x="600.0" y="431.25"/>
      <point x="600.0" y="369.0" type="qcurve" smooth="yes"/>
      <point x="600.0" y="246.0"/>
      <point x="441.25" y="98.0"/>
    </contour>
    <contour>
      <point x="414.0" y="635.0" type="qcurve"/>
      <point x="506.0" y="687.7868852459017"/>
      <point x="506.0" y="807.0" type="qcurve" smooth="yes"/>
      <point x="506.0" y="900.2"/>
      <point x="435.0" y="957.0" type="qcurve" smooth="yes"/>
      <point x="397.6470588235294" y="986.8823529411765"/>
      <point x="299.0" y="1040.0" type="qcurve"/>
      <point x="236.0" y="1019.75"/>
      <point x="174.0" y="929.25"/>
      <point x="174.0" y="870.0" type="qcurve" smooth="yes"/>
      <point x="174.0" y="811.5"/>
      <point x="258.0" y="714.75"/>
      <point x="363.0" y="660.0" type="qcurve" smooth="yes"/>
      <point x="375.0" y="654.0"/>
      <point x="400.5" y="641.75"/>
    </contour>
  </outline>
</glyph>
<glyph name="logicalnot" format="1">
  <advance width="819"/>
  <unicode hex="00AC"/>
  <note>
    logicalnot
  </note>
  <outline>
    <contour>
      <point x="657" y="250" type="line"/>
      <point x="739" y="250" type="line"/>
      <point x="739" y="764" type="line"/>
      <point x="59" y="764" type="line"/>
      <point x="59" y="682" type="line"/>
      <point x="657" y="682" type="line"/>
    </contour>
  </outline>
</glyph>
<glyph name="degree" format="1">
  <advance width="877"/>
  <unicode hex="00B0"/>
  <note>
degree
</note>
  <outline>
    <contour>
      <point x="438.0" y="885.0" type="qcurve" smooth="yes"/>
      <point x="308.25" y="885.0"/>
      <point x="139.0" y="1051.25"/>
      <point x="139.0" y="1184.0" type="qcurve" smooth="yes"/>
      <point x="139.0" y="1272.0"/>
      <point x="218.49999999999994" y="1406.8333333333335"/>
      <point x="354.0" y="1483.0"/>
      <point x="438.0" y="1483.0" type="qcurve" smooth="yes"/>
      <point x="522.0" y="1483.0"/>
      <point x="657.4999999999999" y="1406.8333333333335"/>
      <point x="737.0" y="1272.0"/>
      <point x="737.0" y="1184.0" type="qcurve" smooth="yes"/>
      <point x="737.0" y="1096.0"/>
      <point x="657.4999999999999" y="961.1666666666665"/>
      <point x="522.0" y="885.0"/>
    </contour>
    <contour>
      <point x="438.0" y="967.0" type="qcurve" smooth="yes"/>
      <point x="524.25" y="967.0"/>
      <point x="647.0" y="1091.0"/>
      <point x="647.0" y="1184.0" type="qcurve" smooth="yes"/>
      <point x="647.0" y="1276.25"/>
      <point x="527.25" y="1401.0"/>
      <point x="438.0" y="1401.0" type="qcurve" smooth="yes"/>
      <point x="348.0" y="1401.0"/>
      <point x="229.0" y="1273.25"/>
      <point x="229.0" y="1184.0" type="qcurve" smooth="yes"/>
      <point x="229.0" y="1093.25"/>
      <point x="351.0" y="967.0"/>
    </contour>
  </outline>
</glyph>
<glyph name="paragraph" format="1">
  <advance width="967"/>
  <unicode hex="00B6"/>
  <note>
paragraph
</note>
  <outline>
    <contour>
      <point x="434" y="-260" type="line"/>
      <point x="434.0" y="559.0" type="line"/>
      <point x="404.0" y="541.0"/>
      <point x="365.0" y="541.0" type="qcurve" smooth="yes"/>
      <point x="297.125" y="541.0"/>
      <point x="212.38020833333334" y="625.140625"/>
      <point x="166.86979166666666" y="768.109375"/>
      <point x="150.0" y="947.125"/>
      <point x="150.0" y="1042.0" type="qcurve" smooth="yes"/>
      <point x="150.0" y="1297.0"/>
      <point x="276.0" y="1556.0"/>
      <point x="414" y="1556" type="qcurve" smooth="yes"/>
      <point x="768" y="1556" type="line"/>
      <point x="768" y="-260" type="line"/>
      <point x="674" y="-260" type="line"/>
      <point x="674" y="1460" type="line"/>
      <point x="528" y="1460" type="line"/>
      <point x="528" y="-260" type="line"/>
    </contour>
  </outline>
</glyph>
<glyph name="periodcentered" format="1">
  <advance width="422"/>
  <unicode hex="00B7"/>
  <note>
    periodcentered
  </note>
  <outline>
    <contour>
      <point x="211" y="614" type="curve" smooth="yes"/>
      <point x="254" y="614"/>
      <point x="289" y="645"/>
      <point x="289" y="721" type="curve" smooth="yes"/>
      <point x="289" y="792"/>
      <point x="263" y="827"/>
      <point x="211" y="827" type="curve" smooth="yes"/>
      <point x="159" y="827"/>
      <point x="133" y="792"/>
      <point x="133" y="721" type="curve" smooth="yes"/>
      <point x="133" y="650"/>
      <point x="159" y="614"/>
    </contour>
  </outline>
</glyph>
<glyph name="onesuperior" format="1">
  <advance width="614"/>
  <unicode hex="00B9"/>
  <note>
onesuperior
</note>
  <outline>
    <contour>
      <point x="311" y="586" type="line"/>
      <point x="311.0" y="1200.0" type="line" smooth="yes"/>
      <point x="311.0" y="1286.0"/>
      <point x="317.0" y="1370.0" type="qcurve"/>
      <point x="284.6470588235294" y="1339.1176470588234"/>
      <point x="262.0" y="1321.0" type="qcurve" smooth="yes"/>
      <point x="250.75" y="1312.0"/>
      <point x="185.75" y="1264.0"/>
      <point x="131" y="1225" type="qcurve"/>
      <point x="82" y="1290" type="line"/>
      <point x="319" y="1462" type="line"/>
      <point x="397" y="1462" type="line"/>
      <point x="397" y="586" type="line"/>
    </contour>
  </outline>
</glyph>
<glyph name="Eth" format="1">
  <advance width="995"/>
  <unicode hex="00D0"/>
  <note>
Eth
</note>
  <outline>
    <contour>
      <point x="160" y="0" type="line"/>
      <point x="160" y="700" type="line"/>
      <point x="61" y="700" type="line"/>
      <point x="61" y="791" type="line"/>
      <point x="160" y="791" type="line"/>
      <point x="160" y="1462" type="line"/>
      <point x="426.0" y="1462.0" type="line" smooth="yes"/>
      <point x="651.75" y="1462.0"/>
      <point x="885.0" y="1096.75"/>
      <point x="885.0" y="745.0" type="qcurve" smooth="yes"/>
      <point x="885.0" y="0.0"/>
      <point x="420" y="0" type="qcurve" smooth="yes"/>
    </contour>
    <contour>
      <point x="258" y="90" type="line"/>
      <point x="414.0" y="90.0" type="line" smooth="yes"/>
      <point x="603.75" y="90.0"/>
      <point x="782.0" y="421.75"/>
      <point x="782.0" y="739.0" type="qcurve" smooth="yes"/>
      <point x="782.0" y="1048.0"/>
      <point x="599.75" y="1372.0"/>
      <point x="422" y="1372" type="qcurve" smooth="yes"/>
      <point x="258" y="1372" type="line"/>
      <point x="258" y="791" type="line"/>
      <point x="483" y="791" type="line"/>
      <point x="483" y="700" type="line"/>
      <point x="258" y="700" type="line"/>
    </contour>
  </outline>
</glyph>
<glyph name="Oslash" format="1">
  <advance width="1065"/>
  <unicode hex="00D8"/>
  <note>
Oslash
</note>
  <outline>
    <contour>
      <point x="178" y="-94" type="line"/>
      <point x="96" y="-57" type="line"/>
      <point x="215.0" y="180.0" type="line"/>
      <point x="111.0" y="374.4347826086956"/>
      <point x="111.0" y="735.0" type="qcurve" smooth="yes"/>
      <point x="111.0" y="1113.0"/>
      <point x="322.75" y="1483.0"/>
      <point x="535.0" y="1483.0" type="qcurve" smooth="yes"/>
      <point x="698.0919540229885" y="1483.0"/>
      <point x="805" y="1352" type="qcurve"/>
      <point x="901" y="1542" type="line"/>
      <point x="983" y="1501" type="line"/>
      <point x="860.0" y="1262.0" type="line"/>
      <point x="954.0" y="1072.5079365079366"/>
      <point x="954.0" y="733.0" type="qcurve" smooth="yes"/>
      <point x="954.0" y="370.0"/>
      <point x="736.75" y="-20.0"/>
      <point x="532.0" y="-20.0" type="qcurve" smooth="yes"/>
      <point x="374.0" y="-20.0"/>
      <point x="272" y="94" type="qcurve"/>
    </contour>
    <contour>
      <point x="272" y="293" type="qcurve"/>
      <point x="756.0" y="1251.0" type="line"/>
      <point x="676.5" y="1389.0"/>
      <point x="535.0" y="1389.0" type="qcurve" smooth="yes"/>
      <point x="373.75" y="1389.0"/>
      <point x="213.0" y="1054.0"/>
      <point x="213.0" y="733.0" type="qcurve" smooth="yes"/>
      <point x="213.0" y="451.8461538461538"/>
    </contour>
    <contour>
      <point x="532.0" y="74.0" type="qcurve" smooth="yes"/>
      <point x="852.0" y="74.0"/>
      <point x="852.0" y="733.0" type="qcurve" smooth="yes"/>
      <point x="852.0" y="986.1212121212121"/>
      <point x="803" y="1145" type="qcurve"/>
      <point x="322.0" y="190.0" type="line"/>
      <point x="398.83116883116884" y="74.0"/>
    </contour>
    <contour>
      <point x="533" y="0" type="move" name="bottom"/>
    </contour>
    <contour>
      <point x="533" y="1462" type="move" name="top"/>
    </contour>
  </outline>
</glyph>
<glyph name="eth" format="1">
  <advance width="856"/>
  <unicode hex="00F0"/>
  <note>
    eth
  </note>
  <outline>
    <contour>
      <point x="424" y="-20" type="curve" smooth="yes"/>
      <point x="649" y="-20"/>
      <point x="762" y="158"/>
      <point x="762" y="514" type="curve" smooth="yes"/>
      <point x="762" y="879"/>
      <point x="668" y="1169"/>
      <point x="479" y="1386" type="curve"/>
      <point x="653" y="1489" type="line"/>
      <point x="614" y="1554" type="line"/>
      <point x="426" y="1444" type="line"/>
      <point x="381" y="1488"/>
      <point x="334" y="1525"/>
      <point x="285" y="1556" type="curve"/>
      <point x="238" y="1495" type="line"/>
      <point x="273" y="1468"/>
      <point x="311" y="1436"/>
      <point x="350" y="1399" type="curve"/>
      <point x="190" y="1305" type="line"/>
      <point x="229" y="1239" type="line"/>
      <point x="403" y="1341" type="line"/>
      <point x="526" y="1198"/>
      <point x="606" y="1028"/>
      <point x="641" y="831" type="curve"/>
      <point x="633" y="831" type="line"/>
      <point x="584" y="913"/>
      <point x="508" y="954"/>
      <point x="406" y="954" type="curve" smooth="yes"/>
      <point x="205" y="954"/>
      <point x="94" y="780"/>
      <point x="94" y="469" type="curve" smooth="yes"/>
      <point x="94" y="178"/>
      <point x="227" y="-20"/>
    </contour>
    <contour>
      <point x="430" y="66" type="curve" smooth="yes"/>
      <point x="282" y="66"/>
      <point x="190" y="220"/>
      <point x="190" y="461" type="curve" smooth="yes"/>
      <point x="190" y="726"/>
      <point x="276" y="864"/>
      <point x="432" y="864" type="curve" smooth="yes"/>
      <point x="572" y="864"/>
      <point x="666" y="704"/>
      <point x="666" y="483" type="curve" smooth="yes"/>
      <point x="666" y="202"/>
      <point x="593" y="66"/>
    </contour>
  </outline>
</glyph>
<glyph name="idotless" format="1">
  <advance width="385"/>
  <unicode hex="0131"/>
  <note>
    dotlessi
  </note>
  <outline>
    <contour>
      <point x="240" y="1085" type="line"/>
      <point x="145" y="1085" type="line"/>
      <point x="145" y="0" type="line"/>
      <point x="240" y="0" type="line"/>
    </contour>
    <contour>
      <point x="193" y="0" type="move" name="bottom"/>
    </contour>
    <contour>
      <point x="326" y="10" type="move" name="ogonek"/>
    </contour>
    <contour>
      <point x="193" y="1085" type="move" name="top"/>
    </contour>
  </outline>
</glyph>
<glyph name="kgreenlandic" format="1">
  <advance width="711"/>
  <unicode hex="0138"/>
  <note>
kgreenlandic
</note>
  <outline>
    <contour>
      <point x="145" y="0" type="line"/>
      <point x="145" y="1085" type="line"/>
      <point x="240" y="1085" type="line"/>
      <point x="240.0" y="719.0" type="line" smooth="yes"/>
      <point x="240.0" y="665.75"/>
      <point x="236.75" y="574.5"/>
      <point x="233" y="537" type="qcurve"/>
      <point x="242.0" y="537.0" type="line"/>
      <point x="262.5882352941176" y="579.6470588235294"/>
      <point x="285" y="617" type="qcurve" smooth="yes"/>
      <point x="571" y="1085" type="line"/>
      <point x="674" y="1085" type="line"/>
      <point x="424" y="686" type="line"/>
      <point x="696" y="0" type="line"/>
      <point x="596" y="0" type="line"/>
      <point x="360" y="598" type="line"/>
      <point x="240" y="440" type="line"/>
      <point x="240" y="0" type="line"/>
    </contour>
    <contour>
      <point x="356" y="0" type="move" name="bottom"/>
    </contour>
    <contour>
      <point x="356" y="1085" type="move" name="top"/>
    </contour>
  </outline>
</glyph>
<glyph name="Ldot" format="1">
  <advance width="711"/>
  <unicode hex="013F"/>
  <note>
Ldot
</note>
  <outline>
    <contour>
      <point x="670" y="0" type="line"/>
      <point x="160" y="0" type="line"/>
      <point x="160" y="1462" type="line"/>
      <point x="258" y="1462" type="line"/>
      <point x="258" y="94" type="line"/>
      <point x="670" y="94" type="line"/>
    </contour>
    <contour>
      <point x="500.0" y="707.0" type="qcurve" smooth="yes"/>
      <point x="500.0" y="752.0"/>
      <point x="536.75" y="802.0"/>
      <point x="566.0" y="802.0" type="qcurve" smooth="yes"/>
      <point x="625.0" y="802.0"/>
      <point x="625.0" y="707.0" type="qcurve" smooth="yes"/>
      <point x="625.0" y="664.25"/>
      <point x="593.0" y="613.0"/>
      <point x="566.0" y="613.0" type="qcurve" smooth="yes"/>
      <point x="536.75" y="613.0"/>
      <point x="500.0" y="664.25"/>
    </contour>
  </outline>
</glyph>
<glyph name="OE" format="1">
  <advance width="1233"/>
  <unicode hex="0152"/>
  <note>
OE
</note>
  <outline>
    <contour>
      <point x="586.0" y="-6.0" type="qcurve" smooth="yes"/>
      <point x="111.0" y="-6.0"/>
      <point x="111.0" y="735.0" type="qcurve" smooth="yes"/>
      <point x="111.0" y="1098.75"/>
      <point x="357.75" y="1468.0"/>
      <point x="594.0" y="1468.0" type="qcurve"/>
      <point x="622.5" y="1466.5"/>
      <point x="680.5" y="1463.5"/>
      <point x="709" y="1462" type="qcurve"/>
      <point x="1135" y="1462" type="line"/>
      <point x="1135" y="1368" type="line"/>
      <point x="702" y="1368" type="line"/>
      <point x="702" y="813" type="line"/>
      <point x="1110" y="813" type="line"/>
      <point x="1110" y="719" type="line"/>
      <point x="702" y="719" type="line"/>
      <point x="702" y="94" type="line"/>
      <point x="1135" y="94" type="line"/>
      <point x="1135" y="0" type="line"/>
      <point x="711.0" y="0.0" type="line" smooth="yes"/>
      <point x="679.5" y="-1.5"/>
      <point x="617.5" y="-4.5"/>
    </contour>
    <contour>
      <point x="599.0" y="88.0" type="qcurve" smooth="yes"/>
      <point x="600.5" y="88.0"/>
      <point x="602.5" y="88.0"/>
      <point x="604" y="88" type="qcurve"/>
      <point x="604.0" y="1374.0" type="line"/>
      <point x="602.5" y="1374.0"/>
      <point x="600.5" y="1374.0"/>
      <point x="599.0" y="1374.0" type="qcurve" smooth="yes"/>
      <point x="400.25" y="1372.5"/>
      <point x="215.0" y="1072.0"/>
      <point x="215.0" y="733.0" type="qcurve" smooth="yes"/>
      <point x="215.0" y="395.5"/>
      <point x="398.0" y="89.5"/>
    </contour>
    <contour>
      <point x="617" y="0" type="move" name="bottom"/>
    </contour>
    <contour>
      <point x="617" y="1462" type="move" name="top"/>
    </contour>
  </outline>
</glyph>
<glyph name="Tbar" format="1">
  <advance width="711"/>
  <unicode hex="0166"/>
  <note>
Tbar
</note>
  <outline>
    <contour>
      <point x="80" y="791" type="line"/>
      <point x="305" y="791" type="line"/>
      <point x="305" y="1366" type="line"/>
      <point x="14" y="1366" type="line"/>
      <point x="14" y="1462" type="line"/>
      <point x="694" y="1462" type="line"/>
      <point x="694" y="1366" type="line"/>
      <point x="403" y="1366" type="line"/>
      <point x="403" y="791" type="line"/>
      <point x="629" y="791" type="line"/>
      <point x="629" y="700" type="line"/>
      <point x="403" y="700" type="line"/>
      <point x="403" y="0" type="line"/>
      <point x="305" y="0" type="line"/>
      <point x="305" y="700" type="line"/>
      <point x="80" y="700" type="line"/>
    </contour>
  </outline>
</glyph>
<glyph name="longs" format="1">
  <advance width="389"/>
  <unicode hex="017F"/>
  <note>
    longs
  </note>
  <outline>
    <contour>
      <point x="145" y="0" type="line"/>
      <point x="240" y="0" type="line"/>
      <point x="240" y="1176" type="line" smooth="yes"/>
      <point x="240" y="1249"/>
      <point x="244" y="1308"/>
      <point x="252" y="1353" type="curve" smooth="yes"/>
      <point x="268" y="1442"/>
      <point x="297" y="1479"/>
      <point x="365" y="1479" type="curve" smooth="yes"/>
      <point x="394" y="1479"/>
      <point x="426" y="1471"/>
      <point x="459" y="1454" type="curve"/>
      <point x="492" y="1542" type="line"/>
      <point x="454" y="1559"/>
      <point x="412" y="1567"/>
      <point x="365" y="1567" type="curve" smooth="yes"/>
      <point x="205" y="1567"/>
      <point x="145" y="1457"/>
      <point x="145" y="1178" type="curve" smooth="yes"/>
    </contour>
    <contour>
      <point x="195" y="0" type="move" name="bottom"/>
    </contour>
    <contour>
      <point x="195" y="1085" type="move" name="top"/>
    </contour>
  </outline>
</glyph>
<glyph name="Ohorn" format="1">
  <advance width="1053"/>
  <unicode hex="01A0"/>
  <note>
Ohorn
</note>
  <outline>
    <contour>
      <point x="532.0" y="-20.0" type="qcurve" smooth="yes"/>
      <point x="325.0" y="-20.0"/>
      <point x="111.0" y="372.75"/>
      <point x="111.0" y="735.0" type="qcurve" smooth="yes"/>
      <point x="111.0" y="1113.0"/>
      <point x="322.75" y="1483.0"/>
      <point x="535.0" y="1483.0" type="qcurve" smooth="yes"/>
      <point x="748.751724137931" y="1483.0"/>
      <point x="858.0" y="1266.0" type="qcurve"/>
      <point x="932.25" y="1281.75"/>
      <point x="996.75" y="1415.0"/>
      <point x="999" y="1556" type="qcurve"/>
      <point x="1085" y="1556" type="line"/>
      <point x="1102.0" y="1530.0" type="line"/>
      <point x="1093.0" y="1383.75"/>
      <point x="987.0" y="1218.0"/>
      <point x="891.0" y="1188.0" type="qcurve"/>
      <point x="954.0" y="1009.5"/>
      <point x="954.0" y="733.0" type="qcurve" smooth="yes"/>
      <point x="954.0" y="370.0"/>
      <point x="736.75" y="-20.0"/>
    </contour>
    <contour>
      <point x="532.0" y="74.0" type="qcurve" smooth="yes"/>
      <point x="852.0" y="74.0"/>
      <point x="852.0" y="733.0" type="qcurve" smooth="yes"/>
      <point x="852.0" y="1389.0"/>
      <point x="535.0" y="1389.0" type="qcurve" smooth="yes"/>
      <point x="373.75" y="1389.0"/>
      <point x="213.0" y="1054.0"/>
      <point x="213.0" y="733.0" type="qcurve" smooth="yes"/>
      <point x="213.0" y="406.75"/>
      <point x="376.0" y="74.0"/>
    </contour>
    <contour>
      <point x="536" y="0" type="move" name="bottom"/>
    </contour>
    <contour>
      <point x="536" y="1462" type="move" name="top"/>
    </contour>
  </outline>
</glyph>
<glyph name="ohorn" format="1">
  <advance width="850"/>
  <unicode hex="01A1"/>
  <note>
    ohorn
  </note>
  <outline>
    <contour>
      <point x="422" y="-20" type="curve" smooth="yes"/>
      <point x="637" y="-20"/>
      <point x="756" y="180"/>
      <point x="756" y="545" type="curve" smooth="yes"/>
      <point x="756" y="680"/>
      <point x="739" y="793"/>
      <point x="705" y="885" type="curve"/>
      <point x="818" y="929"/>
      <point x="878" y="1030"/>
      <point x="887" y="1217" type="curve"/>
      <point x="870" y="1243" type="line"/>
      <point x="784" y="1243" type="line"/>
      <point x="781" y="1079"/>
      <point x="751" y="993"/>
      <point x="668" y="958" type="curve"/>
      <point x="611" y="1057"/>
      <point x="531" y="1106"/>
      <point x="426" y="1106" type="curve" smooth="yes"/>
      <point x="205" y="1106"/>
      <point x="94" y="919"/>
      <point x="94" y="545" type="curve" smooth="yes"/>
      <point x="94" y="245"/>
      <point x="175" y="-20"/>
    </contour>
    <contour>
      <point x="424" y="66" type="curve" smooth="yes"/>
      <point x="336" y="66"/>
      <point x="274" y="118"/>
      <point x="236" y="222" type="curve" smooth="yes"/>
      <point x="207" y="300"/>
      <point x="193" y="408"/>
      <point x="193" y="545" type="curve" smooth="yes"/>
      <point x="193" y="700"/>
      <point x="210" y="816"/>
      <point x="246" y="895" type="curve" smooth="yes"/>
      <point x="283" y="976"/>
      <point x="341" y="1016"/>
      <point x="424" y="1016" type="curve" smooth="yes"/>
      <point x="500" y="1016"/>
      <point x="557" y="979"/>
      <point x="596" y="904" type="curve" smooth="yes"/>
      <point x="637" y="825"/>
      <point x="657" y="706"/>
      <point x="657" y="545" type="curve" smooth="yes"/>
      <point x="657" y="375"/>
      <point x="635" y="250"/>
      <point x="591" y="171" type="curve" smooth="yes"/>
      <point x="552" y="101"/>
      <point x="496" y="66"/>
    </contour>
    <contour>
      <point x="422" y="0" type="move" name="bottom"/>
    </contour>
    <contour>
      <point x="426" y="1085" type="move" name="top"/>
    </contour>
  </outline>
</glyph>
<glyph name="apostrophemod" format="1">
  <advance width="315"/>
  <unicode hex="02BC"/>
  <note>
afii57929
</note>
  <outline>
    <contour>
      <point x="43" y="993" type="line"/>
      <point x="117.2605633802817" y="1245.4859154929577"/>
      <point x="143" y="1462" type="qcurve"/>
      <point x="258" y="1462" type="line"/>
      <point x="272.0" y="1440.0" type="line"/>
      <point x="206.49740932642487" y="1219.1191709844559"/>
      <point x="106" y="993" type="qcurve"/>
    </contour>
  </outline>
</glyph>
<glyph name="firsttonechinese" format="1">
  <advance width="1112"/>
  <unicode hex="02C9"/>
  <note>
    uni02C9
  </note>
  <outline>
    <contour>
      <point x="330" y="1251" type="line"/>
      <point x="782" y="1251" type="line"/>
      <point x="782" y="1333" type="line"/>
      <point x="330" y="1333" type="line"/>
    </contour>
  </outline>
</glyph>
<glyph name="acutecomb" format="1">
  <unicode hex="0301"/>
  <note>
acutecomb
</note>
  <outline>
    <contour>
      <point x="-158" y="1241" type="line"/>
      <point x="-158.0" y="1262.0" type="line"/>
      <point x="-32.415604600559526" y="1425.9984457569165"/>
      <point x="33" y="1569" type="qcurve"/>
      <point x="158" y="1569" type="line"/>
      <point x="158.0" y="1552.0" type="line"/>
      <point x="132.0" y="1505.5"/>
      <point x="41.41666666666666" y="1390.6666666666665"/>
      <point x="-63.49999999999999" y="1280.5"/>
      <point x="-111" y="1241" type="qcurve"/>
    </contour>
    <contour>
      <point x="-90" y="1123" type="move" name="_top"/>
    </contour>
    <contour>
      <point x="0" y="1569" type="move" name="top"/>
    </contour>
  </outline>
</glyph>
<glyph name="tildecomb" format="1">
  <advance width="561"/>
  <unicode hex="0303"/>
  <note>
tildecomb
</note>
  <outline>
    <contour>
      <point x="0" y="1241" type="line"/>
      <point x="12.0" y="1337.75"/>
      <point x="94.0" y="1452.0"/>
      <point x="166.0" y="1452.0" type="qcurve" smooth="yes"/>
      <point x="201.25" y="1452.0"/>
      <point x="267.25" y="1412.25"/>
      <point x="298.0" y="1389.0" type="qcurve" smooth="yes"/>
      <point x="328.0" y="1365.0"/>
      <point x="383.25" y="1325.0"/>
      <point x="408.0" y="1325.0" type="qcurve" smooth="yes"/>
      <point x="443.25" y="1325.0"/>
      <point x="478.0" y="1397.0"/>
      <point x="487" y="1454" type="qcurve"/>
      <point x="561.0" y="1454.0" type="line"/>
      <point x="552.0" y="1352.75"/>
      <point x="467.75" y="1243.0"/>
      <point x="401.0" y="1243.0" type="qcurve" smooth="yes"/>
      <point x="365.75" y="1243.0"/>
      <point x="297.75" y="1283.0"/>
      <point x="267.0" y="1307.0" type="qcurve" smooth="yes"/>
      <point x="236.25" y="1330.25"/>
      <point x="181.25" y="1370.0"/>
      <point x="158.0" y="1370.0" type="qcurve" smooth="yes"/>
      <point x="125.75" y="1370.0"/>
      <point x="83.0" y="1298.0"/>
      <point x="74" y="1241" type="qcurve"/>
    </contour>
    <contour>
      <point x="280" y="1085" type="move" name="_top"/>
    </contour>
    <contour>
      <point x="280" y="1454" type="move" name="top"/>
    </contour>
  </outline>
</glyph>
<glyph name="brevecomb" format="1">
  <advance width="1157"/>
  <unicode hex="0306"/>
  <note>
    breve
  </note>
  <outline>
    <contour>
      <point x="572" y="1245" type="curve" smooth="yes"/>
      <point x="711" y="1245"/>
      <point x="792" y="1334"/>
      <point x="796" y="1479" type="curve"/>
      <point x="724" y="1479" type="line"/>
      <point x="711" y="1379"/>
      <point x="661" y="1329"/>
      <point x="576" y="1329" type="curve" smooth="yes"/>
      <point x="492" y="1329"/>
      <point x="438" y="1380"/>
      <point x="429" y="1479" type="curve"/>
      <point x="361" y="1479" type="line"/>
      <point x="370" y="1323"/>
      <point x="440" y="1245"/>
    </contour>
    <contour>
      <point x="579" y="1085" type="move" name="_top"/>
    </contour>
    <contour>
      <point x="579" y="1479" type="move" name="top"/>
    </contour>
  </outline>
</glyph>
<glyph name="dotaccentcomb" format="1">
  <advance width="385"/>
  <unicode hex="0307"/>
  <note>
    dotaccent
  </note>
  <outline>
    <contour>
      <point x="196" y="1292" type="curve" smooth="yes"/>
      <point x="232" y="1292"/>
      <point x="255" y="1329"/>
      <point x="255" y="1386" type="curve" smooth="yes"/>
      <point x="255" y="1446"/>
      <point x="232" y="1481"/>
      <point x="196" y="1481" type="curve" smooth="yes"/>
      <point x="157" y="1481"/>
      <point x="130" y="1446"/>
      <point x="130" y="1386" type="curve" smooth="yes"/>
      <point x="130" y="1329"/>
      <point x="157" y="1292"/>
    </contour>
    <contour>
      <point x="193" y="1085" type="move" name="_top"/>
    </contour>
    <contour>
      <point x="193" y="1481" type="move" name="top"/>
    </contour>
  </outline>
</glyph>
<glyph name="dieresiscomb" format="1">
  <advance width="1126"/>
  <unicode hex="0308"/>
  <note>
dieresis
</note>
  <outline>
    <contour>
      <point x="715.0" y="1305.0" type="qcurve" smooth="yes"/>
      <point x="691.75" y="1305.0"/>
      <point x="653.0" y="1344.75"/>
      <point x="653.0" y="1389.0" type="qcurve" smooth="yes"/>
      <point x="653.0" y="1431.75"/>
      <point x="691.75" y="1470.0"/>
      <point x="715.0" y="1470.0" type="qcurve" smooth="yes"/>
      <point x="739.75" y="1470.0"/>
      <point x="778.0" y="1431.75"/>
      <point x="778.0" y="1389.0" type="qcurve" smooth="yes"/>
      <point x="778.0" y="1344.75"/>
      <point x="739.75" y="1305.0"/>
    </contour>
    <contour>
      <point x="412.0" y="1305.0" type="qcurve" smooth="yes"/>
      <point x="387.25" y="1305.0"/>
      <point x="348.0" y="1344.75"/>
      <point x="348.0" y="1389.0" type="qcurve" smooth="yes"/>
      <point x="348.0" y="1431.75"/>
      <point x="387.25" y="1470.0"/>
      <point x="412.0" y="1470.0" type="qcurve" smooth="yes"/>
      <point x="435.25" y="1470.0"/>
      <point x="473.0" y="1431.75"/>
      <point x="473.0" y="1389.0" type="qcurve" smooth="yes"/>
      <point x="473.0" y="1344.75"/>
      <point x="435.25" y="1305.0"/>
    </contour>
    <contour>
      <point x="563" y="1127" type="move" name="_top"/>
    </contour>
    <contour>
      <point x="563" y="1470" type="move" name="top"/>
    </contour>
  </outline>
</glyph>
<glyph name="hookabovecomb" format="1">
  <unicode hex="0309"/>
  <note>
hookabovecomb
</note>
  <outline>
    <contour>
      <point x="-83" y="1208" type="line"/>
      <point x="-89.0" y="1386.0" type="line"/>
      <point x="-23.0" y="1386.0"/>
      <point x="68.0" y="1449.25"/>
      <point x="68.0" y="1501.0" type="qcurve" smooth="yes"/>
      <point x="68.0" y="1602.0"/>
      <point x="-70.0" y="1602.0" type="qcurve" smooth="yes"/>
      <point x="-109.0" y="1602.0"/>
      <point x="-154" y="1593" type="qcurve"/>
      <point x="-154.0" y="1663.0" type="line"/>
      <point x="-106.0" y="1675.0"/>
      <point x="-54.0" y="1675.0" type="qcurve" smooth="yes"/>
      <point x="154.0" y="1675.0"/>
      <point x="154.0" y="1505.0" type="qcurve" smooth="yes"/>
      <point x="154.0" y="1366.3809523809523"/>
      <point x="-3" y="1329" type="qcurve"/>
      <point x="-13" y="1208" type="line"/>
    </contour>
    <contour>
      <point x="-1" y="1085" type="move" name="_top"/>
    </contour>
    <contour>
      <point x="-1" y="1675" type="move" name="top"/>
    </contour>
  </outline>
</glyph>
<glyph name="ringcomb" format="1">
  <advance width="1182"/>
  <unicode hex="030A"/>
  <note>
ring
</note>
  <outline>
    <contour>
      <point x="591.0" y="1251.0" type="qcurve" smooth="yes"/>
      <point x="498.0" y="1251.0"/>
      <point x="392.0" y="1351.75"/>
      <point x="392.0" y="1438.0" type="qcurve" smooth="yes"/>
      <point x="392.0" y="1522.75"/>
      <point x="498.75" y="1624.0"/>
      <point x="591.0" y="1624.0" type="qcurve" smooth="yes"/>
      <point x="678.0" y="1624.0"/>
      <point x="790.0" y="1525.25"/>
      <point x="790.0" y="1442.0" type="qcurve" smooth="yes"/>
      <point x="790.0" y="1352.75"/>
      <point x="681.75" y="1251.0"/>
    </contour>
    <contour>
      <point x="591.0" y="1321.0" type="qcurve" smooth="yes"/>
      <point x="645.0" y="1321.0"/>
      <point x="712.0" y="1384.75"/>
      <point x="712.0" y="1438.0" type="qcurve" smooth="yes"/>
      <point x="712.0" y="1489.0"/>
      <point x="650.25" y="1554.0"/>
      <point x="591.0" y="1554.0" type="qcurve" smooth="yes"/>
      <point x="537.0" y="1554.0"/>
      <point x="470.0" y="1489.0"/>
      <point x="470.0" y="1438.0" type="qcurve" smooth="yes"/>
      <point x="470.0" y="1384.75"/>
      <point x="531.0" y="1321.0"/>
    </contour>
    <contour>
      <point x="591" y="1085" type="move" name="_top"/>
    </contour>
    <contour>
      <point x="591" y="1624" type="move" name="top"/>
    </contour>
  </outline>
</glyph>
<glyph name="commaaccentcomb" format="1">
  <advance width="387"/>
  <unicode hex="0326"/>
  <outline>
    <contour>
      <point x="100" y="-453" type="line"/>
      <point x="141" y="-453" type="line"/>
      <point x="196" y="-378"/>
      <point x="259" y="-249"/>
      <point x="287" y="-145" type="curve"/>
      <point x="287" y="-125" type="line"/>
      <point x="176" y="-125" type="line"/>
      <point x="168" y="-214"/>
      <point x="129" y="-352"/>
      <point x="100" y="-432" type="curve"/>
    </contour>
    <contour>
      <point x="194" y="0" type="move" name="_bottom"/>
    </contour>
    <contour>
      <point x="194" y="-453" type="move" name="bottom"/>
    </contour>
  </outline>
</glyph>
<glyph name="dieresistonos" format="1">
  <advance width="1126"/>
  <unicode hex="0385"/>
  <note>
dieresistonos
</note>
  <outline>
    <contour>
      <point x="516" y="1286" type="line"/>
      <point x="516.0" y="1307.0" type="line"/>
      <point x="530.5" y="1345.0"/>
      <point x="563.9999999999999" y="1461.75"/>
      <point x="589.5" y="1577.5"/>
      <point x="592" y="1614" type="qcurve"/>
      <point x="696" y="1614" type="line"/>
      <point x="696.0" y="1593.0" type="line"/>
      <point x="689.5" y="1559.5"/>
      <point x="642.9999999999999" y="1437.8333333333333"/>
      <point x="586.5" y="1317.5"/>
      <point x="565" y="1286" type="qcurve"/>
    </contour>
    <contour>
      <point x="399.0" y="1202.0" type="qcurve" smooth="yes"/>
      <point x="375.0" y="1202.0"/>
      <point x="336.0" y="1243.25"/>
      <point x="336.0" y="1286.0" type="qcurve" smooth="yes"/>
      <point x="336.0" y="1328.75"/>
      <point x="375.0" y="1368.0"/>
      <point x="399.0" y="1368.0" type="qcurve" smooth="yes"/>
      <point x="422.25" y="1368.0"/>
      <point x="461.0" y="1328.75"/>
      <point x="461.0" y="1286.0" type="qcurve" smooth="yes"/>
      <point x="461.0" y="1243.25"/>
      <point x="422.25" y="1202.0"/>
    </contour>
    <contour>
      <point x="727.0" y="1202.0" type="qcurve" smooth="yes"/>
      <point x="703.75" y="1202.0"/>
      <point x="666.0" y="1243.25"/>
      <point x="666.0" y="1286.0" type="qcurve" smooth="yes"/>
      <point x="666.0" y="1328.75"/>
      <point x="703.75" y="1368.0"/>
      <point x="727.0" y="1368.0" type="qcurve" smooth="yes"/>
      <point x="751.75" y="1368.0"/>
      <point x="791.0" y="1328.75"/>
      <point x="791.0" y="1286.0" type="qcurve" smooth="yes"/>
      <point x="791.0" y="1243.25"/>
      <point x="751.75" y="1202.0"/>
    </contour>
    <contour>
      <point x="564" y="1085" type="move" name="_top"/>
    </contour>
  </outline>
</glyph>
<glyph name="Alpha" format="1">
  <advance width="813"/>
  <unicode hex="0391"/>
  <note>
    Alpha
  </note>
  <outline>
    <component base="A"/>
    <contour>
      <point x="319" y="1461" type="move" name="topleft"/>
    </contour>
  </outline>
</glyph>
<glyph name="Epsilon" format="1">
  <advance width="788"/>
  <unicode hex="0395"/>
  <note>
    Epsilon
  </note>
  <outline>
    <component base="E"/>
    <contour>
      <point x="262" y="1461" type="move" name="topleft"/>
    </contour>
  </outline>
</glyph>
<glyph name="Theta" format="1">
  <advance width="1065"/>
  <unicode hex="0398"/>
  <note>
Theta
</note>
  <outline>
    <contour>
      <point x="532.0" y="-20.0" type="qcurve" smooth="yes"/>
      <point x="325.0" y="-20.0"/>
      <point x="111.0" y="372.75"/>
      <point x="111.0" y="735.0" type="qcurve" smooth="yes"/>
      <point x="111.0" y="1113.0"/>
      <point x="322.75" y="1483.0"/>
      <point x="535.0" y="1483.0" type="qcurve" smooth="yes"/>
      <point x="739.0" y="1483.0"/>
      <point x="954.0" y="1093.75"/>
      <point x="954.0" y="733.0" type="qcurve" smooth="yes"/>
      <point x="954.0" y="370.0"/>
      <point x="736.75" y="-20.0"/>
    </contour>
    <contour>
      <point x="532.0" y="74.0" type="qcurve" smooth="yes"/>
      <point x="852.0" y="74.0"/>
      <point x="852.0" y="733.0" type="qcurve" smooth="yes"/>
      <point x="852.0" y="1389.0"/>
      <point x="535.0" y="1389.0" type="qcurve" smooth="yes"/>
      <point x="373.75" y="1389.0"/>
      <point x="213.0" y="1054.0"/>
      <point x="213.0" y="733.0" type="qcurve" smooth="yes"/>
      <point x="213.0" y="406.75"/>
      <point x="376.0" y="74.0"/>
    </contour>
    <contour>
      <point x="340" y="698" type="line"/>
      <point x="340" y="793" type="line"/>
      <point x="725" y="793" type="line"/>
      <point x="725" y="698" type="line"/>
    </contour>
  </outline>
</glyph>
<glyph name="Lambda" format="1">
  <advance width="813"/>
  <unicode hex="039B"/>
  <note>
Lambda
</note>
  <outline>
    <contour>
      <point x="0" y="0" type="line"/>
      <point x="352" y="1462" type="line"/>
      <point x="453" y="1462" type="line"/>
      <point x="813" y="0" type="line"/>
      <point x="713" y="0" type="line"/>
      <point x="432.0" y="1174.0" type="line" smooth="yes"/>
      <point x="422.25" y="1219.75"/>
      <point x="406.25" y="1306.75"/>
      <point x="401.0" y="1348.0" type="qcurve"/>
      <point x="397.25" y="1306.0"/>
      <point x="382.75" y="1219.0"/>
      <point x="373" y="1174" type="qcurve" smooth="yes"/>
      <point x="102" y="0" type="line"/>
    </contour>
  </outline>
</glyph>
<glyph name="Xi" format="1">
  <advance width="758"/>
  <unicode hex="039E"/>
  <note>
    Xi
  </note>
  <outline>
    <contour>
      <point x="98" y="0" type="line"/>
      <point x="659" y="0" type="line"/>
      <point x="659" y="94" type="line"/>
      <point x="98" y="94" type="line"/>
    </contour>
    <contour>
      <point x="156" y="719" type="line"/>
      <point x="602" y="719" type="line"/>
      <point x="602" y="813" type="line"/>
      <point x="156" y="813" type="line"/>
    </contour>
    <contour>
      <point x="119" y="1368" type="line"/>
      <point x="639" y="1368" type="line"/>
      <point x="639" y="1462" type="line"/>
      <point x="119" y="1462" type="line"/>
    </contour>
  </outline>
</glyph>
<glyph name="Pi" format="1">
  <advance width="1026"/>
  <unicode hex="03A0"/>
  <note>
    Pi
  </note>
  <outline>
    <contour>
      <point x="160" y="0" type="line"/>
      <point x="258" y="0" type="line"/>
      <point x="258" y="1368" type="line"/>
      <point x="768" y="1368" type="line"/>
      <point x="768" y="0" type="line"/>
      <point x="866" y="0" type="line"/>
      <point x="866" y="1462" type="line"/>
      <point x="160" y="1462" type="line"/>
    </contour>
  </outline>
</glyph>
<glyph name="Sigma" format="1">
  <advance width="754"/>
  <unicode hex="03A3"/>
  <note>
Sigma
</note>
  <outline>
    <contour>
      <point x="61" y="0" type="line"/>
      <point x="61" y="84" type="line"/>
      <point x="401" y="760" type="line"/>
      <point x="74" y="1380" type="line"/>
      <point x="74" y="1462" type="line"/>
      <point x="678" y="1462" type="line"/>
      <point x="678" y="1368" type="line"/>
      <point x="313.0" y="1368.0" type="line" smooth="yes"/>
      <point x="281.5" y="1368.0"/>
      <point x="217.5" y="1368.0"/>
      <point x="186" y="1368" type="qcurve"/>
      <point x="512" y="760" type="line"/>
      <point x="170.0" y="94.0" type="line"/>
      <point x="205.25" y="94.0"/>
      <point x="275.75" y="94.0"/>
      <point x="311" y="94" type="qcurve" smooth="yes"/>
      <point x="709" y="94" type="line"/>
      <point x="709" y="0" type="line"/>
    </contour>
  </outline>
</glyph>
<glyph name="Omega" format="1">
  <advance width="1081"/>
  <unicode hex="03A9"/>
  <note>
uni03A9
</note>
  <outline>
    <contour>
      <point x="66" y="0" type="line"/>
      <point x="66" y="94" type="line"/>
      <point x="322.0" y="94.0" type="line"/>
      <point x="239.21378340365683" y="191.8382559774965"/>
      <point x="186.0" y="353.0" type="qcurve" smooth="yes"/>
      <point x="154.5" y="452.0"/>
      <point x="119.0" y="684.25"/>
      <point x="119.0" y="811.0" type="qcurve" smooth="yes"/>
      <point x="119.0" y="1185.7826086956522"/>
      <point x="258.0" y="1355.0" type="qcurve" smooth="yes"/>
      <point x="363.14285714285717" y="1483.0"/>
      <point x="541.0" y="1483.0" type="qcurve" smooth="yes"/>
      <point x="699.8266666666667" y="1483.0"/>
      <point x="805.0" y="1367.0" type="qcurve" smooth="yes"/>
      <point x="963.0" y="1190.4117647058824"/>
      <point x="963.0" y="811.0" type="qcurve" smooth="yes"/>
      <point x="963.0" y="560.0"/>
      <point x="903.0" y="371.0" type="qcurve" smooth="yes"/>
      <point x="851.598694123556" y="209.23706680060272"/>
      <point x="760" y="94" type="qcurve"/>
      <point x="1016" y="94" type="line"/>
      <point x="1016" y="0" type="line"/>
      <point x="623" y="0" type="line"/>
      <point x="623.0" y="51.0" type="line"/>
      <point x="692.375" y="142.125"/>
      <point x="784.203125" y="302.9270833333333"/>
      <point x="837.546875" y="472.0729166666667"/>
      <point x="860.0" y="676.375"/>
      <point x="860.0" y="811.0" type="qcurve" smooth="yes"/>
      <point x="860.0" y="1089.25"/>
      <point x="691.75" y="1389.0"/>
      <point x="541.0" y="1389.0" type="qcurve" smooth="yes"/>
      <point x="385.0" y="1389.0"/>
      <point x="221.0" y="1087.0"/>
      <point x="221.0" y="811.0" type="qcurve" smooth="yes"/>
      <point x="221.0" y="638.5"/>
      <point x="267.0833333333333" y="372.66666666666663"/>
      <point x="371.5" y="153.5"/>
      <point x="459" y="51" type="qcurve"/>
      <point x="459" y="0" type="line"/>
    </contour>
    <contour>
      <point x="541" y="0" type="move" name="bottom"/>
    </contour>
    <contour>
      <point x="263" y="1461" type="move" name="topleft"/>
    </contour>
  </outline>
</glyph>
<glyph name="zeta" format="1">
  <advance width="637"/>
  <unicode hex="03B6"/>
  <note>
zeta
</note>
  <outline>
    <contour>
      <point x="367" y="-422" type="line"/>
      <point x="420.25" y="-353.0"/>
      <point x="487.0" y="-212.25"/>
      <point x="487.0" y="-162.0" type="qcurve" smooth="yes"/>
      <point x="487.0" y="-87.09803921568627"/>
      <point x="411.0" y="-26.0" type="qcurve" smooth="yes"/>
      <point x="393.75" y="-12.5"/>
      <point x="350.25" y="15.5"/>
      <point x="324" y="29" type="qcurve" smooth="yes"/>
      <point x="320.0" y="31.0" type="line" smooth="yes"/>
      <point x="224.75" y="82.75"/>
      <point x="139.75" y="186.5"/>
      <point x="118.0" y="263.0" type="qcurve" smooth="yes"/>
      <point x="96.0" y="337.8"/>
      <point x="96.0" y="457.0" type="qcurve" smooth="yes"/>
      <point x="96.0" y="598.75"/>
      <point x="153.5" y="861.0"/>
      <point x="221.0" y="1005.0" type="qcurve" smooth="yes"/>
      <point x="250.25" y="1068.75"/>
      <point x="325.5" y="1203.75"/>
      <point x="372.0" y="1278.0" type="qcurve" smooth="yes"/>
      <point x="401.25" y="1324.5"/>
      <point x="467.25" y="1423.75"/>
      <point x="504.0" y="1477.0" type="qcurve"/>
      <point x="465.75" y="1473.25"/>
      <point x="361.0" y="1470.0"/>
      <point x="295" y="1470" type="qcurve" smooth="yes"/>
      <point x="129" y="1470" type="line"/>
      <point x="129" y="1556" type="line"/>
      <point x="600" y="1556" type="line"/>
      <point x="600.0" y="1477.0" type="line"/>
      <point x="455.25" y="1282.75"/>
      <point x="279.0" y="938.0"/>
      <point x="237.0" y="788.0" type="qcurve" smooth="yes"/>
      <point x="195.0" y="636.5"/>
      <point x="195.0" y="469.0" type="qcurve" smooth="yes"/>
      <point x="195.0" y="367.0"/>
      <point x="225.25" y="241.0"/>
      <point x="259.0" y="199.0" type="qcurve" smooth="yes"/>
      <point x="292.47443519619503" y="156.79310344827587"/>
      <point x="371.0" y="113.0" type="qcurve" smooth="yes"/>
      <point x="458.0" y="62.75"/>
      <point x="550.0" y="-13.75"/>
      <point x="568.0" y="-52.0" type="qcurve" smooth="yes"/>
      <point x="586.0" y="-89.5"/>
      <point x="586.0" y="-156.0" type="qcurve" smooth="yes"/>
      <point x="586.0" y="-201.75"/>
      <point x="518.75" y="-355.25"/>
      <point x="467" y="-422" type="qcurve"/>
    </contour>
  </outline>
</glyph>
<glyph name="theta" format="1">
  <advance width="891"/>
  <unicode hex="03B8"/>
  <note>
theta
</note>
  <outline>
    <contour>
      <point x="442.0" y="-20.0" type="qcurve" smooth="yes"/>
      <point x="96.0" y="-20.0"/>
      <point x="96.0" y="780.0" type="qcurve" smooth="yes"/>
      <point x="96.0" y="926.625"/>
      <point x="127.99479166666667" y="1210.7552083333333"/>
      <point x="206.25520833333334" y="1441.4947916666667"/>
      <point x="343.625" y="1579.0"/>
      <point x="449.0" y="1579.0" type="qcurve" smooth="yes"/>
      <point x="797.0" y="1579.0"/>
      <point x="797.0" y="782.0" type="qcurve" smooth="yes"/>
      <point x="797.0" y="-20.0"/>
    </contour>
    <contour>
      <point x="444.0" y="70.0" type="qcurve" smooth="yes"/>
      <point x="534.1904761904761" y="70.0"/>
      <point x="593.0" y="165.0" type="qcurve" smooth="yes"/>
      <point x="691.9858414673388" y="325.47704601523117"/>
      <point x="698" y="760" type="qcurve"/>
      <point x="195.0" y="760.0" type="line"/>
      <point x="201.0082007544694" y="379.9813022798097"/>
      <point x="276.0" y="209.0" type="qcurve" smooth="yes"/>
      <point x="335.78494623655916" y="70.0"/>
    </contour>
    <contour>
      <point x="195" y="846" type="qcurve"/>
      <point x="698.0" y="846.0" type="line"/>
      <point x="690.5" y="1162.5"/>
      <point x="629.0" y="1326.0" type="qcurve" smooth="yes"/>
      <point x="567.6880733944954" y="1489.0"/>
      <point x="444.0" y="1489.0" type="qcurve" smooth="yes"/>
      <point x="324.0" y="1489.0"/>
      <point x="264.0" y="1327.0" type="qcurve" smooth="yes"/>
      <point x="202.48741868172334" y="1163.4665521050692"/>
    </contour>
  </outline>
</glyph>
<glyph name="sigma" format="1">
  <advance width="860"/>
  <unicode hex="03C3"/>
  <note>
sigma
</note>
  <outline>
    <contour>
      <point x="418.0" y="-20.0" type="qcurve" smooth="yes"/>
      <point x="265.0" y="-20.0"/>
      <point x="96.0" y="255.75"/>
      <point x="96.0" y="522.0" type="qcurve" smooth="yes"/>
      <point x="96.0" y="1085.0"/>
      <point x="494" y="1085" type="qcurve" smooth="yes"/>
      <point x="823" y="1085" type="line"/>
      <point x="823" y="999" type="line"/>
      <point x="641.0" y="999.0" type="line"/>
      <point x="745.0" y="800.0434782608695"/>
      <point x="745.0" y="506.0" type="qcurve" smooth="yes"/>
      <point x="745.0" y="323.75"/>
      <point x="659.5" y="84.25"/>
      <point x="580.0" y="28.0" type="qcurve" smooth="yes"/>
      <point x="512.5" y="-20.0"/>
    </contour>
    <contour>
      <point x="420.0" y="66.0" type="qcurve" smooth="yes"/>
      <point x="499.5405405405405" y="66.0"/>
      <point x="551.0" y="122.0" type="qcurve" smooth="yes"/>
      <point x="647.0" y="224.0"/>
      <point x="647.0" y="506.0" type="qcurve" smooth="yes"/>
      <point x="647.0" y="667.5"/>
      <point x="611.0" y="819.0" type="qcurve" smooth="yes"/>
      <point x="590.7157712305026" y="907.3812824956673"/>
      <point x="555" y="999" type="qcurve"/>
      <point x="492.0" y="999.0" type="line" smooth="yes"/>
      <point x="353.7096774193548" y="999.0"/>
      <point x="281.0" y="907.0" type="qcurve" smooth="yes"/>
      <point x="195.0" y="794.3103448275862"/>
      <point x="195.0" y="528.0" type="qcurve" smooth="yes"/>
      <point x="195.0" y="276.35555555555555"/>
      <point x="263.0" y="160.0" type="qcurve" smooth="yes"/>
      <point x="318.2063492063492" y="66.0"/>
    </contour>
  </outline>
</glyph>
<glyph name="tau" format="1">
  <advance width="547"/>
  <unicode hex="03C4"/>
  <note>
    tau
  </note>
  <outline>
    <contour>
      <point x="395" y="-25" type="curve" smooth="yes"/>
      <point x="428" y="-25"/>
      <point x="493" y="-13"/>
      <point x="506" y="-4" type="curve"/>
      <point x="506" y="80" type="line"/>
      <point x="474" y="69"/>
      <point x="439" y="63"/>
      <point x="401" y="63" type="curve" smooth="yes"/>
      <point x="313" y="63"/>
      <point x="274" y="143"/>
      <point x="274" y="299" type="curve" smooth="yes"/>
      <point x="274" y="999" type="line"/>
      <point x="516" y="999" type="line"/>
      <point x="516" y="1085" type="line"/>
      <point x="76" y="1085" type="line"/>
      <point x="0" y="1034" type="line"/>
      <point x="0" y="999" type="line"/>
      <point x="180" y="999" type="line"/>
      <point x="180" y="291" type="line" smooth="yes"/>
      <point x="180" y="78"/>
      <point x="243" y="-25"/>
    </contour>
  </outline>
</glyph>
<glyph name="omega" format="1">
  <advance width="971"/>
  <unicode hex="03C9"/>
  <note>
omega
</note>
  <outline>
    <contour>
      <point x="305.0" y="-20.0" type="qcurve" smooth="yes"/>
      <point x="204.68817204301075" y="-20.0"/>
      <point x="152.0" y="120.0" type="qcurve" smooth="yes"/>
      <point x="98.0" y="259.5"/>
      <point x="98.0" y="524.0" type="qcurve" smooth="yes"/>
      <point x="98.0" y="817.876923076923"/>
      <point x="195" y="1085" type="qcurve"/>
      <point x="287.0" y="1085.0" type="line"/>
      <point x="193.0" y="816.4285714285714"/>
      <point x="193.0" y="522.0" type="qcurve" smooth="yes"/>
      <point x="193.0" y="70.0"/>
      <point x="322.0" y="70.0" type="qcurve" smooth="yes"/>
      <point x="380.0" y="70.0"/>
      <point x="410.0" y="157.0" type="qcurve" smooth="yes"/>
      <point x="440.0" y="242.5"/>
      <point x="440" y="403" type="qcurve" smooth="yes"/>
      <point x="440" y="676" type="line"/>
      <point x="530" y="676" type="line"/>
      <point x="530.0" y="403.0" type="line" smooth="yes"/>
      <point x="530.0" y="242.5"/>
      <point x="560.0" y="157.0" type="qcurve" smooth="yes"/>
      <point x="590.0" y="70.0"/>
      <point x="649.0" y="70.0" type="qcurve" smooth="yes"/>
      <point x="778.0" y="70.0"/>
      <point x="778.0" y="522.0" type="qcurve" smooth="yes"/>
      <point x="778.0" y="816.4285714285714"/>
      <point x="684" y="1085" type="qcurve"/>
      <point x="776.0" y="1085.0" type="line"/>
      <point x="872.0" y="819.5"/>
      <point x="872.0" y="524.0" type="qcurve" smooth="yes"/>
      <point x="872.0" y="172.9375"/>
      <point x="773.0" y="43.0" type="qcurve" smooth="yes"/>
      <point x="725.0" y="-20.0"/>
      <point x="659.0" y="-20.0" type="qcurve" smooth="yes"/>
      <point x="593.0" y="-20.0"/>
      <point x="504.25" y="74.25"/>
      <point x="487" y="156" type="qcurve"/>
      <point x="483.0" y="156.0" type="line"/>
      <point x="465.75" y="74.25"/>
      <point x="374.0" y="-20.0"/>
    </contour>
    <contour>
      <point x="486" y="0" type="move" name="bottom"/>
    </contour>
    <contour>
      <point x="486" y="1085" type="move" name="top"/>
    </contour>
  </outline>
</glyph>
<glyph name="Nje-cy" format="1">
  <advance width="1341"/>
  <unicode hex="040A"/>
  <note>
afii10059
</note>
  <outline>
    <contour>
      <point x="160" y="0" type="line"/>
      <point x="160" y="1462" type="line"/>
      <point x="258" y="1462" type="line"/>
      <point x="258" y="813" type="line"/>
      <point x="672" y="813" type="line"/>
      <point x="672" y="1462" type="line"/>
      <point x="770" y="1462" type="line"/>
      <point x="770" y="813" type="line"/>
      <point x="885.0" y="813.0" type="line" smooth="yes"/>
      <point x="1080.75" y="813.0"/>
      <point x="1268.0" y="617.75"/>
      <point x="1268.0" y="410.0" type="qcurve" smooth="yes"/>
      <point x="1268.0" y="218.0"/>
      <point x="1064.75" y="0.0"/>
      <point x="887" y="0" type="qcurve" smooth="yes"/>
      <point x="672" y="0" type="line"/>
      <point x="672" y="723" type="line"/>
      <point x="258" y="723" type="line"/>
      <point x="258" y="0" type="line"/>
    </contour>
    <contour>
      <point x="770" y="90" type="line"/>
      <point x="891.0" y="90.0" type="line" smooth="yes"/>
      <point x="1025.25" y="90.0"/>
      <point x="1167.0" y="254.75"/>
      <point x="1167.0" y="410.0" type="qcurve" smooth="yes"/>
      <point x="1167.0" y="571.25"/>
      <point x="1033.0" y="723.0"/>
      <point x="889" y="723" type="qcurve" smooth="yes"/>
      <point x="770" y="723" type="line"/>
    </contour>
  </outline>
</glyph>
<glyph name="Tshe-cy" format="1">
  <advance width="950"/>
  <unicode hex="040B"/>
  <note>
afii10060
</note>
  <outline>
    <contour>
      <point x="254" y="0" type="line"/>
      <point x="254" y="1368" type="line"/>
      <point x="14" y="1368" type="line"/>
      <point x="14" y="1462" type="line"/>
      <point x="631" y="1462" type="line"/>
      <point x="631" y="1368" type="line"/>
      <point x="352" y="1368" type="line"/>
      <point x="352" y="877" type="line"/>
      <point x="487.0" y="877.0" type="line" smooth="yes"/>
      <point x="652.75" y="877.0"/>
      <point x="815.0" y="716.25"/>
      <point x="815" y="543" type="qcurve" smooth="yes"/>
      <point x="815" y="0" type="line"/>
      <point x="717" y="0" type="line"/>
      <point x="717.0" y="543.0" type="line" smooth="yes"/>
      <point x="717.0" y="668.25"/>
      <point x="609.25" y="782.0"/>
      <point x="487" y="782" type="qcurve" smooth="yes"/>
      <point x="352" y="782" type="line"/>
      <point x="352" y="0" type="line"/>
    </contour>
  </outline>
</glyph>
<glyph name="Dzhe-cy" format="1">
  <advance width="1026"/>
  <unicode hex="040F"/>
  <note>
afii10145
</note>
  <outline>
    <contour>
      <point x="866" y="1462" type="line"/>
      <point x="866" y="0" type="line"/>
      <point x="561" y="0" type="line"/>
      <point x="561" y="-369" type="line"/>
      <point x="467" y="-369" type="line"/>
      <point x="467" y="0" type="line"/>
      <point x="160" y="0" type="line"/>
      <point x="160" y="1462" type="line"/>
      <point x="258" y="1462" type="line"/>
      <point x="258" y="94" type="line"/>
      <point x="768" y="94" type="line"/>
      <point x="768" y="1462" type="line"/>
    </contour>
  </outline>
</glyph>
<glyph name="Ge-cy" format="1">
  <advance width="686"/>
  <unicode hex="0413"/>
  <note>
afii10020
</note>
  <outline>
    <contour>
      <point x="160" y="0" type="line"/>
      <point x="160" y="1462" type="line"/>
      <point x="670" y="1462" type="line"/>
      <point x="670" y="1368" type="line"/>
      <point x="258" y="1368" type="line"/>
      <point x="258" y="0" type="line"/>
    </contour>
    <contour>
      <point x="666" y="0" type="move" name="bottomright"/>
    </contour>
    <contour>
      <point x="393" y="1462" type="move" name="top"/>
    </contour>
  </outline>
</glyph>
<glyph name="Zhe-cy" format="1">
  <advance width="1122"/>
  <unicode hex="0416"/>
  <note>
    afii10024
  </note>
  <outline>
    <contour>
      <point x="111" y="0" type="line"/>
      <point x="512" y="748" type="line"/>
      <point x="512" y="0" type="line"/>
      <point x="610" y="0" type="line"/>
      <point x="610" y="748" type="line"/>
      <point x="1012" y="0" type="line"/>
      <point x="1122" y="0" type="line"/>
      <point x="711" y="756" type="line"/>
      <point x="1110" y="1462" type="line"/>
      <point x="1004" y="1462" type="line"/>
      <point x="610" y="756" type="line"/>
      <point x="610" y="1462" type="line"/>
      <point x="512" y="1462" type="line"/>
      <point x="512" y="756" type="line"/>
      <point x="119" y="1462" type="line"/>
      <point x="12" y="1462" type="line"/>
      <point x="412" y="756" type="line"/>
      <point x="0" y="0" type="line"/>
    </contour>
    <contour>
      <point x="1102" y="0" type="move" name="bottomright"/>
    </contour>
    <contour>
      <point x="561" y="1462" type="move" name="top"/>
    </contour>
  </outline>
</glyph>
<glyph name="Ze-cy" format="1">
  <advance width="813"/>
  <unicode hex="0417"/>
  <note>
afii10025
</note>
  <outline>
    <contour>
      <point x="313.0" y="-20.0" type="qcurve" smooth="yes"/>
      <point x="171.45945945945945" y="-20.0"/>
      <point x="57" y="35" type="qcurve"/>
      <point x="57.0" y="143.0" type="line"/>
      <point x="166.11627906976744" y="74.0"/>
      <point x="313.0" y="74.0" type="qcurve" smooth="yes"/>
      <point x="584.0" y="74.0"/>
      <point x="584.0" y="389.0" type="qcurve" smooth="yes"/>
      <point x="584.0" y="554.75"/>
      <point x="428.25" y="711.0"/>
      <point x="264" y="711" type="qcurve" smooth="yes"/>
      <point x="164" y="711" type="line"/>
      <point x="164" y="805" type="line"/>
      <point x="270.0" y="805.0" type="line" smooth="yes"/>
      <point x="411.0" y="805.0"/>
      <point x="565.0" y="969.0"/>
      <point x="565.0" y="1128.0" type="qcurve" smooth="yes"/>
      <point x="565.0" y="1260.0"/>
      <point x="447.75" y="1389.0"/>
      <point x="342.0" y="1389.0" type="qcurve" smooth="yes"/>
      <point x="282.75" y="1389.0"/>
      <point x="183.75" y="1337.25"/>
      <point x="150" y="1296" type="qcurve"/>
      <point x="84.0" y="1364.0" type="line"/>
      <point x="193.9620253164557" y="1483.0"/>
      <point x="350.0" y="1483.0" type="qcurve" smooth="yes"/>
      <point x="499.25" y="1483.0"/>
      <point x="666.0" y="1293.75"/>
      <point x="666.0" y="1128.0" type="qcurve" smooth="yes"/>
      <point x="666.0" y="984.75"/>
      <point x="530.75" y="792.0"/>
      <point x="416" y="762" type="qcurve"/>
      <point x="416.0" y="754.0" type="line"/>
      <point x="548.75" y="736.75"/>
      <point x="686.0" y="549.25"/>
      <point x="686.0" y="391.0" type="qcurve" smooth="yes"/>
      <point x="686.0" y="196.0"/>
      <point x="490.0" y="-20.0"/>
    </contour>
    <contour>
      <point x="307" y="0" type="move" name="bottom"/>
    </contour>
    <contour>
      <point x="407" y="1462" type="move" name="top"/>
    </contour>
  </outline>
</glyph>
<glyph name="Ii-cy" format="1">
  <advance width="1090"/>
  <unicode hex="0418"/>
  <note>
    afii10026
  </note>
  <outline>
    <contour>
      <point x="160" y="0" type="line"/>
      <point x="285" y="0" type="line"/>
      <point x="838" y="1311" type="line"/>
      <point x="846" y="1311" type="line"/>
      <point x="838" y="1220"/>
      <point x="834" y="1133"/>
      <point x="834" y="1049" type="curve" smooth="yes"/>
      <point x="834" y="0" type="line"/>
      <point x="930" y="0" type="line"/>
      <point x="930" y="1462" type="line"/>
      <point x="803" y="1462" type="line"/>
      <point x="254" y="166" type="line"/>
      <point x="246" y="166" type="line"/>
      <point x="253" y="297"/>
      <point x="256" y="340"/>
      <point x="256" y="440" type="curve" smooth="yes"/>
      <point x="256" y="1462" type="line"/>
      <point x="160" y="1462" type="line"/>
    </contour>
    <contour>
      <point x="1070" y="0" type="move" name="bottomright"/>
    </contour>
    <contour>
      <point x="545" y="1462" type="move" name="top"/>
    </contour>
  </outline>
</glyph>
<glyph name="Ka-cy" format="1">
  <advance width="811"/>
  <unicode hex="041A"/>
  <note>
afii10028
</note>
  <outline>
    <contour>
      <point x="360" y="756" type="line"/>
      <point x="811" y="0" type="line"/>
      <point x="698" y="0" type="line"/>
      <point x="258" y="748" type="line"/>
      <point x="258" y="0" type="line"/>
      <point x="160" y="0" type="line"/>
      <point x="160" y="1462" type="line"/>
      <point x="258" y="1462" type="line"/>
      <point x="258" y="756" type="line"/>
      <point x="672" y="1462" type="line"/>
      <point x="778" y="1462" type="line"/>
    </contour>
    <contour>
      <point x="791" y="0" type="move" name="bottomright"/>
    </contour>
    <contour>
      <point x="486" y="1462" type="move" name="top"/>
    </contour>
  </outline>
</glyph>
<glyph name="El-cy" format="1">
  <advance width="930"/>
  <unicode hex="041B"/>
  <note>
afii10029
</note>
  <outline>
    <contour>
      <point x="55.0" y="-14.0" type="qcurve" smooth="yes"/>
      <point x="8.5" y="-14.0"/>
      <point x="-20" y="4" type="qcurve"/>
      <point x="-20.0" y="96.0" type="line"/>
      <point x="1.8181818181818183" y="80.0"/>
      <point x="49.0" y="80.0" type="qcurve" smooth="yes"/>
      <point x="82.0" y="80.0"/>
      <point x="127.25" y="106.5"/>
      <point x="146.0" y="144.0" type="qcurve" smooth="yes"/>
      <point x="164.0" y="181.5"/>
      <point x="193.5" y="321.0"/>
      <point x="207.0" y="435.0" type="qcurve" smooth="yes"/>
      <point x="213.75" y="492.0"/>
      <point x="259.25" y="1005.25"/>
      <point x="299" y="1462" type="qcurve"/>
      <point x="770" y="1462" type="line"/>
      <point x="770" y="0" type="line"/>
      <point x="672" y="0" type="line"/>
      <point x="672" y="1368" type="line"/>
      <point x="385.0" y="1368.0" type="line"/>
      <point x="375.25" y="1248.75"/>
      <point x="355.75" y="1011.25"/>
      <point x="346.0" y="892.0" type="qcurve" smooth="yes"/>
      <point x="324.25" y="631.75"/>
      <point x="289.25" y="304.5"/>
      <point x="275.0" y="237.0" type="qcurve" smooth="yes"/>
      <point x="247.25" y="102.0"/>
      <point x="150.25" y="-14.0"/>
    </contour>
    <contour>
      <point x="682" y="0" type="move" name="cyrillicbighook"/>
    </contour>
  </outline>
</glyph>
<glyph name="O-cy" format="1">
  <advance width="1065"/>
  <unicode hex="041E"/>
  <note>
    afii10032
  </note>
  <outline>
    <component base="O"/>
    <contour>
      <point x="533" y="1462" type="move" name="top"/>
    </contour>
  </outline>
</glyph>
<glyph name="U-cy" format="1">
  <advance width="686"/>
  <unicode hex="0423"/>
  <note>
afii10037
</note>
  <outline>
    <contour>
      <point x="127.0" y="-20.0" type="qcurve" smooth="yes"/>
      <point x="78.53846153846153" y="-20.0"/>
      <point x="37" y="0" type="qcurve"/>
      <point x="37.0" y="92.0" type="line"/>
      <point x="80.5" y="74.0"/>
      <point x="120.0" y="74.0" type="qcurve" smooth="yes"/>
      <point x="174.75" y="74.0"/>
      <point x="241.25" y="164.0"/>
      <point x="269.0" y="266.0" type="qcurve" smooth="yes"/>
      <point x="283.25" y="317.75"/>
      <point x="310.75" y="420.25"/>
      <point x="325" y="472" type="qcurve"/>
      <point x="326" y="384" type="line"/>
      <point x="0" y="1462" type="line"/>
      <point x="102" y="1462" type="line"/>
      <point x="324.0" y="713.0" type="line" smooth="yes"/>
      <point x="327.0" y="702.5"/>
      <point x="347.5" y="618.5"/>
      <point x="358" y="569" type="qcurve"/>
      <point x="367.0" y="569.0" type="line"/>
      <point x="374.5" y="621.5"/>
      <point x="387.5" y="682.25"/>
      <point x="395" y="713" type="qcurve" smooth="yes"/>
      <point x="584" y="1462" type="line"/>
      <point x="686" y="1462" type="line"/>
      <point x="360.0" y="242.0" type="line" smooth="yes"/>
      <point x="345.75" y="187.25"/>
      <point x="304.5" y="81.5"/>
      <point x="267.0" y="41.0" type="qcurve" smooth="yes"/>
      <point x="211.8095238095238" y="-20.0"/>
    </contour>
    <contour>
      <point x="343" y="1462" type="move" name="top"/>
    </contour>
  </outline>
</glyph>
<glyph name="Shcha-cy" format="1">
  <advance width="1413"/>
  <unicode hex="0429"/>
  <note>
    afii10043
  </note>
  <outline>
    <contour>
      <point x="752" y="1462" type="line"/>
      <point x="653" y="1462" type="line"/>
      <point x="653" y="94" type="line"/>
      <point x="258" y="94" type="line"/>
      <point x="258" y="1462" type="line"/>
      <point x="160" y="1462" type="line"/>
      <point x="160" y="0" type="line"/>
      <point x="1264" y="0" type="line"/>
      <point x="1264" y="-369" type="line"/>
      <point x="1358" y="-369" type="line"/>
      <point x="1358" y="94" type="line"/>
      <point x="1247" y="94" type="line"/>
      <point x="1247" y="1462" type="line"/>
      <point x="1149" y="1462" type="line"/>
      <point x="1149" y="94" type="line"/>
      <point x="752" y="94" type="line"/>
    </contour>
  </outline>
</glyph>
<glyph name="Softsign-cy" format="1">
  <advance width="874"/>
  <unicode hex="042C"/>
  <note>
afii10046
</note>
  <outline>
    <contour>
      <point x="160" y="0" type="line"/>
      <point x="160" y="1462" type="line"/>
      <point x="258" y="1462" type="line"/>
      <point x="258" y="813" type="line"/>
      <point x="414.0" y="813.0" type="line" smooth="yes"/>
      <point x="609.75" y="813.0"/>
      <point x="797.0" y="617.75"/>
      <point x="797.0" y="410.0" type="qcurve" smooth="yes"/>
      <point x="797.0" y="218.0"/>
      <point x="593.75" y="0.0"/>
      <point x="416" y="0" type="qcurve" smooth="yes"/>
    </contour>
    <contour>
      <point x="258" y="90" type="line"/>
      <point x="420.0" y="90.0" type="line" smooth="yes"/>
      <point x="554.25" y="90.0"/>
      <point x="696.0" y="254.75"/>
      <point x="696.0" y="410.0" type="qcurve" smooth="yes"/>
      <point x="696.0" y="571.25"/>
      <point x="562.0" y="723.0"/>
      <point x="418" y="723" type="qcurve" smooth="yes"/>
      <point x="258" y="723" type="line"/>
    </contour>
  </outline>
</glyph>
<glyph name="Iu-cy" format="1">
  <advance width="1384"/>
  <unicode hex="042E"/>
  <note>
afii10048
</note>
  <outline>
    <contour>
      <point x="887.0" y="-20.0" type="qcurve" smooth="yes"/>
      <point x="701.75" y="-20.0"/>
      <point x="502.25" y="358.25"/>
      <point x="500" y="719" type="qcurve"/>
      <point x="258" y="719" type="line"/>
      <point x="258" y="0" type="line"/>
      <point x="160" y="0" type="line"/>
      <point x="160" y="1462" type="line"/>
      <point x="258" y="1462" type="line"/>
      <point x="258" y="813" type="line"/>
      <point x="500.0" y="813.0" type="line"/>
      <point x="516.4876957494407" y="1483.0"/>
      <point x="889.0" y="1483.0" type="qcurve" smooth="yes"/>
      <point x="1075.0" y="1483.0"/>
      <point x="1274.0" y="1096.75"/>
      <point x="1274.0" y="733.0" type="qcurve" smooth="yes"/>
      <point x="1274.0" y="372.25"/>
      <point x="1075.25" y="-20.0"/>
    </contour>
    <contour>
      <point x="887.0" y="74.0" type="qcurve" smooth="yes"/>
      <point x="1027.0" y="74.0"/>
      <point x="1099.0" y="242.0" type="qcurve" smooth="yes"/>
      <point x="1171.0" y="408.5"/>
      <point x="1171.0" y="733.0" type="qcurve" smooth="yes"/>
      <point x="1171.0" y="1058.8297872340427"/>
      <point x="1100.0" y="1225.0" type="qcurve" smooth="yes"/>
      <point x="1027.7798165137615" y="1389.0"/>
      <point x="889.0" y="1389.0" type="qcurve" smooth="yes"/>
      <point x="746.7837837837837" y="1389.0"/>
      <point x="675.0" y="1223.0" type="qcurve" smooth="yes"/>
      <point x="602.0" y="1057.6326530612246"/>
      <point x="602.0" y="733.0" type="qcurve" smooth="yes"/>
      <point x="602.0" y="406.3673469387755"/>
      <point x="675.0" y="241.0" type="qcurve" smooth="yes"/>
      <point x="748.7207207207207" y="74.0"/>
    </contour>
    <contour>
      <point x="692" y="1462" type="move" name="top"/>
    </contour>
  </outline>
</glyph>
<glyph name="Ia-cy" format="1">
  <advance width="877"/>
  <unicode hex="042F"/>
  <note>
    afii10049
  </note>
  <outline>
    <contour>
      <point x="43" y="0" type="line"/>
      <point x="154" y="0" type="line"/>
      <point x="426" y="637" type="line"/>
      <point x="618" y="637" type="line"/>
      <point x="618" y="0" type="line"/>
      <point x="717" y="0" type="line"/>
      <point x="717" y="1462" type="line"/>
      <point x="479" y="1462" type="line" smooth="yes"/>
      <point x="226" y="1462"/>
      <point x="100" y="1322"/>
      <point x="100" y="1042" type="curve" smooth="yes"/>
      <point x="100" y="838"/>
      <point x="187" y="692"/>
      <point x="334" y="653" type="curve"/>
    </contour>
    <contour>
      <point x="467" y="725" type="line" smooth="yes"/>
      <point x="283" y="725"/>
      <point x="203" y="826"/>
      <point x="203" y="1047" type="curve" smooth="yes"/>
      <point x="203" y="1275"/>
      <point x="286" y="1372"/>
      <point x="494" y="1372" type="curve" smooth="yes"/>
      <point x="618" y="1372" type="line"/>
      <point x="618" y="725" type="line"/>
    </contour>
    <contour>
      <point x="439" y="1462" type="move" name="top"/>
    </contour>
  </outline>
</glyph>
<glyph name="ge-cy" format="1">
  <advance width="592"/>
  <unicode hex="0433"/>
  <note>
    afii10068
  </note>
  <outline>
    <contour>
      <point x="145" y="0" type="line"/>
      <point x="240" y="0" type="line"/>
      <point x="240" y="995" type="line"/>
      <point x="575" y="995" type="line"/>
      <point x="575" y="1085" type="line"/>
      <point x="145" y="1085" type="line"/>
    </contour>
    <contour>
      <point x="572" y="0" type="move" name="bottomright"/>
    </contour>
    <contour>
      <point x="336" y="1085" type="move" name="top"/>
    </contour>
  </outline>
</glyph>
<glyph name="zhe-cy" format="1">
  <advance width="958"/>
  <unicode hex="0436"/>
  <note>
afii10072
</note>
  <outline>
    <contour>
      <point x="10" y="0" type="line"/>
      <point x="338" y="575" type="line"/>
      <point x="37" y="1085" type="line"/>
      <point x="143" y="1085" type="line"/>
      <point x="432" y="575" type="line"/>
      <point x="432" y="1085" type="line"/>
      <point x="526" y="1085" type="line"/>
      <point x="526" y="575" type="line"/>
      <point x="815" y="1085" type="line"/>
      <point x="922" y="1085" type="line"/>
      <point x="621" y="575" type="line"/>
      <point x="948" y="0" type="line"/>
      <point x="838" y="0" type="line"/>
      <point x="526" y="567" type="line"/>
      <point x="526" y="0" type="line"/>
      <point x="432" y="0" type="line"/>
      <point x="432" y="567" type="line"/>
      <point x="121" y="0" type="line"/>
    </contour>
    <contour>
      <point x="938" y="0" type="move" name="bottomright"/>
    </contour>
    <contour>
      <point x="479" y="1085" type="move" name="top"/>
    </contour>
  </outline>
</glyph>
<glyph name="ze-cy" format="1">
  <advance width="643"/>
  <unicode hex="0437"/>
  <note>
afii10073
</note>
  <outline>
    <contour>
      <point x="268.0" y="-20.0" type="qcurve" smooth="yes"/>
      <point x="128.04255319148936" y="-20.0"/>
      <point x="51" y="51" type="qcurve"/>
      <point x="51.0" y="150.0" type="line"/>
      <point x="93.0" y="117.0"/>
      <point x="196.75" y="66.0"/>
      <point x="268.0" y="66.0" type="qcurve" smooth="yes"/>
      <point x="358.0" y="66.0"/>
      <point x="457.0" y="188.0"/>
      <point x="457.0" y="305.0" type="qcurve" smooth="yes"/>
      <point x="457.0" y="449.75"/>
      <point x="357.0" y="506.0" type="qcurve" smooth="yes"/>
      <point x="312.6470588235294" y="532.0"/>
      <point x="252" y="532" type="qcurve" smooth="yes"/>
      <point x="203" y="532" type="line"/>
      <point x="203" y="618" type="line"/>
      <point x="258.0" y="618.0" type="line" smooth="yes"/>
      <point x="303.75" y="618.0"/>
      <point x="383.5" y="670.25"/>
      <point x="406.0" y="719.0" type="qcurve" smooth="yes"/>
      <point x="428.0" y="765.9333333333333"/>
      <point x="428.0" y="831.0" type="qcurve" smooth="yes"/>
      <point x="428.0" y="927.0"/>
      <point x="340.75" y="1022.0"/>
      <point x="268.0" y="1022.0" type="qcurve" smooth="yes"/>
      <point x="190.72727272727272" y="1022.0"/>
      <point x="115" y="973" type="qcurve"/>
      <point x="70.0" y="1047.0" type="line"/>
      <point x="165.30769230769232" y="1106.0"/>
      <point x="279.0" y="1106.0" type="qcurve" smooth="yes"/>
      <point x="396.0" y="1106.0"/>
      <point x="526.0" y="964.25"/>
      <point x="526.0" y="836.0" type="qcurve" smooth="yes"/>
      <point x="526.0" y="746.75"/>
      <point x="442.75" y="614.25"/>
      <point x="379" y="588" type="qcurve"/>
      <point x="379.0" y="580.0" type="line"/>
      <point x="555.0" y="522.3716814159292"/>
      <point x="555.0" y="305.0" type="qcurve" smooth="yes"/>
      <point x="555.0" y="155.75"/>
      <point x="396.25" y="-20.0"/>
    </contour>
    <contour>
      <point x="272" y="0" type="move" name="bottom"/>
    </contour>
    <contour>
      <point x="322" y="1085" type="move" name="top"/>
    </contour>
  </outline>
</glyph>
<glyph name="ii-cy" format="1">
  <advance width="883"/>
  <unicode hex="0438"/>
  <note>
afii10074
</note>
  <outline>
    <contour>
      <point x="145" y="0" type="line"/>
      <point x="145" y="1085" type="line"/>
      <point x="240" y="1085" type="line"/>
      <point x="240.0" y="352.0" type="line"/>
      <point x="238.5" y="301.0"/>
      <point x="234.5" y="198.0"/>
      <point x="233" y="147" type="qcurve"/>
      <point x="618" y="1085" type="line"/>
      <point x="737" y="1085" type="line"/>
      <point x="737" y="0" type="line"/>
      <point x="643" y="0" type="line"/>
      <point x="643.0" y="702.0" type="line" smooth="yes"/>
      <point x="643.75" y="761.25"/>
      <point x="646.25" y="878.75"/>
      <point x="647" y="938" type="qcurve"/>
      <point x="262" y="0" type="line"/>
    </contour>
    <contour>
      <point x="863" y="0" type="move" name="bottomright"/>
    </contour>
    <contour>
      <point x="442" y="1085" type="move" name="top"/>
    </contour>
  </outline>
</glyph>
<glyph name="el-cy" format="1">
  <advance width="776"/>
  <unicode hex="043B"/>
  <note>
    afii10077
  </note>
  <outline>
    <contour>
      <point x="35" y="-10" type="curve" smooth="yes"/>
      <point x="136" y="-10"/>
      <point x="187" y="58"/>
      <point x="224" y="212" type="curve" smooth="yes"/>
      <point x="261" y="366"/>
      <point x="288" y="626"/>
      <point x="303" y="995" type="curve"/>
      <point x="537" y="995" type="line"/>
      <point x="537" y="0" type="line"/>
      <point x="631" y="0" type="line"/>
      <point x="631" y="1085" type="line"/>
      <point x="215" y="1085" type="line"/>
      <point x="206" y="834"/>
      <point x="193" y="637"/>
      <point x="178" y="494" type="curve" smooth="yes"/>
      <point x="163" y="351"/>
      <point x="143" y="247"/>
      <point x="120" y="180" type="curve" smooth="yes"/>
      <point x="96" y="113"/>
      <point x="64" y="80"/>
      <point x="25" y="80" type="curve" smooth="yes"/>
      <point x="10" y="80"/>
      <point x="-2" y="82"/>
      <point x="-10" y="86" type="curve"/>
      <point x="-10" y="-2" type="line"/>
      <point x="4" y="-7"/>
      <point x="19" y="-10"/>
    </contour>
    <contour>
      <point x="543" y="0" type="move" name="cyrillicbighook"/>
    </contour>
  </outline>
</glyph>
<glyph name="en-cy" format="1">
  <advance width="883"/>
  <unicode hex="043D"/>
  <note>
afii10079
</note>
  <outline>
    <contour>
      <point x="145" y="0" type="line"/>
      <point x="145" y="1085" type="line"/>
      <point x="240" y="1085" type="line"/>
      <point x="240" y="610" type="line"/>
      <point x="643" y="610" type="line"/>
      <point x="643" y="1085" type="line"/>
      <point x="737" y="1085" type="line"/>
      <point x="737" y="0" type="line"/>
      <point x="643" y="0" type="line"/>
      <point x="643" y="524" type="line"/>
      <point x="240" y="524" type="line"/>
      <point x="240" y="0" type="line"/>
    </contour>
    <contour>
      <point x="863" y="0" type="move" name="bottomright"/>
    </contour>
  </outline>
</glyph>
<glyph name="yeru-cy" format="1">
  <advance width="1169"/>
  <unicode hex="044B"/>
  <note>
    afii10093
  </note>
  <outline>
    <component base="softsign-cy"/>
    <component base="idotless" xOffset="784"/>
    <contour>
      <point x="585" y="1085" type="move" name="top"/>
    </contour>
  </outline>
</glyph>
<glyph name="iu-cy" format="1">
  <advance width="1174"/>
  <unicode hex="044E"/>
  <note>
afii10096
</note>
  <outline>
    <contour>
      <point x="762.0" y="-20.0" type="qcurve" smooth="yes"/>
      <point x="612.0" y="-20.0"/>
      <point x="453.25" y="266.0"/>
      <point x="451" y="524" type="qcurve"/>
      <point x="240" y="524" type="line"/>
      <point x="240" y="0" type="line"/>
      <point x="145" y="0" type="line"/>
      <point x="145" y="1085" type="line"/>
      <point x="240" y="1085" type="line"/>
      <point x="240" y="610" type="line"/>
      <point x="451.0" y="610.0" type="line"/>
      <point x="465.98489425981876" y="1106.0"/>
      <point x="766.0" y="1106.0" type="qcurve" smooth="yes"/>
      <point x="915.25" y="1106.0"/>
      <point x="1079.0" y="812.75"/>
      <point x="1079.0" y="545.0" type="qcurve" smooth="yes"/>
      <point x="1079.0" y="274.25"/>
      <point x="915.75" y="-20.0"/>
    </contour>
    <contour>
      <point x="764.0" y="66.0" type="qcurve" smooth="yes"/>
      <point x="849.5" y="66.0"/>
      <point x="902.0" y="141.0" type="qcurve" smooth="yes"/>
      <point x="981.0" y="254.2830188679245"/>
      <point x="981.0" y="545.0" type="qcurve" smooth="yes"/>
      <point x="981.0" y="819.2857142857143"/>
      <point x="908.0" y="934.0" type="qcurve" smooth="yes"/>
      <point x="854.3272727272728" y="1016.0"/>
      <point x="764.0" y="1016.0" type="qcurve" smooth="yes"/>
      <point x="650.7848101265823" y="1016.0"/>
      <point x="600.0" y="898.0" type="qcurve" smooth="yes"/>
      <point x="549.0" y="779.5"/>
      <point x="549.0" y="545.0" type="qcurve" smooth="yes"/>
      <point x="549.0" y="66.00000000000003"/>
    </contour>
    <contour>
      <point x="587" y="1085" type="move" name="top"/>
    </contour>
  </outline>
</glyph>
<glyph name="dje-cy" format="1">
  <advance width="870"/>
  <unicode hex="0452"/>
  <note>
afii10099
</note>
  <outline>
    <contour>
      <point x="553.0" y="-492.0" type="qcurve" smooth="yes"/>
      <point x="514.3636363636364" y="-492.0"/>
      <point x="485" y="-475" type="qcurve"/>
      <point x="485.0" y="-385.0" type="line"/>
      <point x="518.4545454545455" y="-401.0"/>
      <point x="549.0" y="-401.0" type="qcurve" smooth="yes"/>
      <point x="635.0" y="-401.0"/>
      <point x="635" y="-215" type="qcurve" smooth="yes"/>
      <point x="635.0" y="748.0" type="line" smooth="yes"/>
      <point x="635.0" y="895.0"/>
      <point x="558.0" y="1018.0"/>
      <point x="471.0" y="1018.0" type="qcurve" smooth="yes"/>
      <point x="380.6190476190476" y="1018.0"/>
      <point x="326.0" y="956.0" type="qcurve" smooth="yes"/>
      <point x="240.0" y="857.9298245614035"/>
      <point x="240" y="594" type="qcurve" smooth="yes"/>
      <point x="240" y="0" type="line"/>
      <point x="145" y="0" type="line"/>
      <point x="145" y="1270" type="line"/>
      <point x="27" y="1270" type="line"/>
      <point x="27" y="1354" type="line"/>
      <point x="145" y="1354" type="line"/>
      <point x="145" y="1556" type="line"/>
      <point x="240" y="1556" type="line"/>
      <point x="240" y="1354" type="line"/>
      <point x="502" y="1354" type="line"/>
      <point x="502" y="1270" type="line"/>
      <point x="240" y="1270" type="line"/>
      <point x="240.0" y="1051.0" type="line" smooth="yes"/>
      <point x="240.0" y="1016.5"/>
      <point x="238.25" y="959.25"/>
      <point x="236" y="936" type="qcurve"/>
      <point x="244.0" y="936.0" type="line"/>
      <point x="276.25" y="1017.0"/>
      <point x="405.25" y="1106.0"/>
      <point x="475.0" y="1106.0" type="qcurve" smooth="yes"/>
      <point x="613.0" y="1106.0"/>
      <point x="729.0" y="925.75"/>
      <point x="729" y="748" type="qcurve" smooth="yes"/>
      <point x="729.0" y="-201.0" type="line" smooth="yes"/>
      <point x="729.0" y="-492.0"/>
    </contour>
  </outline>
</glyph>
<glyph name="e-cy" format="1">
  <advance width="682"/>
  <unicode hex="0454"/>
  <note>
afii10101
</note>
  <outline>
    <contour>
      <point x="444.0" y="-20.0" type="qcurve" smooth="yes"/>
      <point x="96.00000000000001" y="-20.0"/>
      <point x="96.0" y="537.0" type="qcurve" smooth="yes"/>
      <point x="96.0" y="815.25"/>
      <point x="272.75" y="1106.0"/>
      <point x="446.0" y="1106.0" type="qcurve" smooth="yes"/>
      <point x="544.0" y="1106.0"/>
      <point x="625" y="1067" type="qcurve"/>
      <point x="590.0" y="981.0" type="line"/>
      <point x="568.25" y="993.75"/>
      <point x="491.0" y="1016.0"/>
      <point x="455.0" y="1016.0" type="qcurve" smooth="yes"/>
      <point x="214.4760147601476" y="1016.0"/>
      <point x="195" y="610" type="qcurve"/>
      <point x="489" y="610" type="line"/>
      <point x="489" y="524" type="line"/>
      <point x="195.0" y="524.0" type="line"/>
      <point x="199.4950495049505" y="70.0"/>
      <point x="453.0" y="70.0" type="qcurve" smooth="yes"/>
      <point x="535.5" y="70.0"/>
      <point x="618" y="109" type="qcurve"/>
      <point x="618.0" y="18.0" type="line"/>
      <point x="585.75" y="0.75"/>
      <point x="486.0" y="-20.0"/>
    </contour>
  </outline>
</glyph>
<glyph name="i-cy" format="1">
  <advance width="385"/>
  <unicode hex="0456"/>
  <note>
    afii10103
  </note>
  <outline>
    <component base="i"/>
    <contour>
      <point x="193" y="1085" type="move" name="top"/>
    </contour>
  </outline>
</glyph>
<glyph name="nje-cy" format="1">
  <advance width="1257"/>
  <unicode hex="045A"/>
  <note>
    afii10107
  </note>
  <outline>
    <contour>
      <point x="145" y="0" type="line"/>
      <point x="240" y="0" type="line"/>
      <point x="240" y="524" type="line"/>
      <point x="618" y="524" type="line"/>
      <point x="618" y="0" type="line"/>
      <point x="852" y="0" type="line" smooth="yes"/>
      <point x="1060" y="0"/>
      <point x="1180" y="112"/>
      <point x="1180" y="305" type="curve" smooth="yes"/>
      <point x="1180" y="500"/>
      <point x="1065" y="610"/>
      <point x="854" y="610" type="curve" smooth="yes"/>
      <point x="713" y="610" type="line"/>
      <point x="713" y="1085" type="line"/>
      <point x="618" y="1085" type="line"/>
      <point x="618" y="610" type="line"/>
      <point x="240" y="610" type="line"/>
      <point x="240" y="1085" type="line"/>
      <point x="145" y="1085" type="line"/>
    </contour>
    <contour>
      <point x="713" y="86" type="line"/>
      <point x="713" y="524" type="line"/>
      <point x="854" y="524" type="line" smooth="yes"/>
      <point x="1005" y="524"/>
      <point x="1081" y="451"/>
      <point x="1081" y="305" type="curve" smooth="yes"/>
      <point x="1081" y="159"/>
      <point x="1005" y="86"/>
      <point x="852" y="86" type="curve" smooth="yes"/>
    </contour>
  </outline>
</glyph>
<glyph name="tshe-cy" format="1">
  <advance width="870"/>
  <unicode hex="045B"/>
  <note>
afii10108
</note>
  <outline>
    <contour>
      <point x="145" y="0" type="line"/>
      <point x="145" y="1270" type="line"/>
      <point x="27" y="1270" type="line"/>
      <point x="27" y="1354" type="line"/>
      <point x="145" y="1354" type="line"/>
      <point x="145" y="1556" type="line"/>
      <point x="240" y="1556" type="line"/>
      <point x="240" y="1354" type="line"/>
      <point x="502" y="1354" type="line"/>
      <point x="502" y="1270" type="line"/>
      <point x="240" y="1270" type="line"/>
      <point x="240.0" y="1051.0" type="line" smooth="yes"/>
      <point x="240.0" y="1016.5"/>
      <point x="238.25" y="959.25"/>
      <point x="236" y="936" type="qcurve"/>
      <point x="244.0" y="936.0" type="line"/>
      <point x="276.25" y="1017.0"/>
      <point x="405.25" y="1106.0"/>
      <point x="475.0" y="1106.0" type="qcurve" smooth="yes"/>
      <point x="613.0" y="1106.0"/>
      <point x="729.0" y="925.75"/>
      <point x="729" y="748" type="qcurve" smooth="yes"/>
      <point x="729" y="0" type="line"/>
      <point x="635" y="0" type="line"/>
      <point x="635.0" y="748.0" type="line" smooth="yes"/>
      <point x="635.0" y="895.0"/>
      <point x="558.0" y="1018.0"/>
      <point x="471.0" y="1018.0" type="qcurve" smooth="yes"/>
      <point x="362.73333333333335" y="1018.0"/>
      <point x="307.0" y="930.0" type="qcurve" smooth="yes"/>
      <point x="240.0" y="827.2666666666667"/>
      <point x="240" y="594" type="qcurve" smooth="yes"/>
      <point x="240" y="0" type="line"/>
    </contour>
  </outline>
</glyph>
<glyph name="Yat-cy" format="1">
  <advance width="936"/>
  <unicode hex="0462"/>
  <note>
afii10146
</note>
  <outline>
    <contour>
      <point x="221" y="0" type="line"/>
      <point x="221" y="1155" type="line"/>
      <point x="10" y="1155" type="line"/>
      <point x="10" y="1237" type="line"/>
      <point x="221" y="1237" type="line"/>
      <point x="221" y="1556" type="line"/>
      <point x="319" y="1556" type="line"/>
      <point x="319" y="1237" type="line"/>
      <point x="582" y="1237" type="line"/>
      <point x="582" y="1155" type="line"/>
      <point x="319" y="1155" type="line"/>
      <point x="319" y="813" type="line"/>
      <point x="475.0" y="813.0" type="line" smooth="yes"/>
      <point x="669.25" y="813.0"/>
      <point x="858.0" y="620.75"/>
      <point x="858.0" y="410.0" type="qcurve" smooth="yes"/>
      <point x="858.0" y="218.75"/>
      <point x="657.0" y="0.0"/>
      <point x="477" y="0" type="qcurve" smooth="yes"/>
    </contour>
    <contour>
      <point x="319" y="90" type="line"/>
      <point x="481.0" y="90.0" type="line" smooth="yes"/>
      <point x="615.25" y="90.0"/>
      <point x="758.0" y="254.75"/>
      <point x="758.0" y="410.0" type="qcurve" smooth="yes"/>
      <point x="758.0" y="571.25"/>
      <point x="622.25" y="723.0"/>
      <point x="479" y="723" type="qcurve" smooth="yes"/>
      <point x="319" y="723" type="line"/>
    </contour>
  </outline>
</glyph>
<glyph name="Eiotified-cy" format="1">
  <advance width="1249"/>
  <unicode hex="0464"/>
  <note>
uni0464
</note>
  <outline>
    <contour>
      <point x="946.0" y="-20.0" type="qcurve" smooth="yes"/>
      <point x="810.5" y="-20.0"/>
      <point x="611.3333333333334" y="158.25"/>
      <point x="501.5" y="489.5"/>
      <point x="500" y="719" type="qcurve"/>
      <point x="258" y="719" type="line"/>
      <point x="258" y="0" type="line"/>
      <point x="160" y="0" type="line"/>
      <point x="160" y="1462" type="line"/>
      <point x="258" y="1462" type="line"/>
      <point x="258" y="813" type="line"/>
      <point x="502.0" y="813.0" type="line"/>
      <point x="516.25" y="1128.0"/>
      <point x="752.75" y="1485.0"/>
      <point x="950.0" y="1485.0" type="qcurve" smooth="yes"/>
      <point x="1090.7755102040817" y="1485.0"/>
      <point x="1198" y="1411" type="qcurve"/>
      <point x="1153.0" y="1327.0" type="line"/>
      <point x="1059.2325581395348" y="1391.0"/>
      <point x="948.0" y="1391.0" type="qcurve" smooth="yes"/>
      <point x="798.0" y="1391.0"/>
      <point x="616.0" y="1083.75"/>
      <point x="604" y="813" type="qcurve"/>
      <point x="1061" y="813" type="line"/>
      <point x="1061" y="719" type="line"/>
      <point x="602.0" y="719.0" type="line"/>
      <point x="603.5" y="520.5"/>
      <point x="690.9166666666666" y="231.08333333333334"/>
      <point x="848.0" y="74.0"/>
      <point x="954.0" y="74.0" type="qcurve" smooth="yes"/>
      <point x="1068.0" y="74.0"/>
      <point x="1161" y="131" type="qcurve"/>
      <point x="1161.0" y="37.0" type="line"/>
      <point x="1075.5" y="-20.0"/>
    </contour>
  </outline>
</glyph>
<glyph name="eiotified-cy" format="1">
  <advance width="1034"/>
  <unicode hex="0465"/>
  <note>
uni0465
</note>
  <outline>
    <contour>
      <point x="797.0" y="-20.0" type="qcurve" smooth="yes"/>
      <point x="453.495867768595" y="-20.0"/>
      <point x="449" y="524" type="qcurve"/>
      <point x="240" y="524" type="line"/>
      <point x="240" y="0" type="line"/>
      <point x="145" y="0" type="line"/>
      <point x="145" y="1085" type="line"/>
      <point x="240" y="1085" type="line"/>
      <point x="240" y="610" type="line"/>
      <point x="449.0" y="610.0" type="line"/>
      <point x="460.25" y="853.75"/>
      <point x="637.75" y="1106.0"/>
      <point x="799.0" y="1106.0" type="qcurve" smooth="yes"/>
      <point x="896.0" y="1106.0"/>
      <point x="977" y="1067" type="qcurve"/>
      <point x="942.0" y="981.0" type="line"/>
      <point x="920.25" y="993.75"/>
      <point x="843.0" y="1016.0"/>
      <point x="807.0" y="1016.0" type="qcurve" smooth="yes"/>
      <point x="566.4760147601476" y="1016.0"/>
      <point x="547" y="610" type="qcurve"/>
      <point x="842" y="610" type="line"/>
      <point x="842" y="524" type="line"/>
      <point x="547.0" y="524.0" type="line"/>
      <point x="551.4950495049505" y="70.0"/>
      <point x="805.0" y="70.0" type="qcurve" smooth="yes"/>
      <point x="888.5" y="70.0"/>
      <point x="971" y="109" type="qcurve"/>
      <point x="971.0" y="18.0" type="line"/>
      <point x="940.25" y="0.75"/>
      <point x="839.0" y="-20.0"/>
    </contour>
  </outline>
</glyph>
<glyph name="yuslittle-cy" format="1">
  <advance width="778"/>
  <unicode hex="0467"/>
  <note>
uni0467
</note>
  <outline>
    <contour>
      <point x="10" y="0" type="line"/>
      <point x="342" y="1085" type="line"/>
      <point x="440" y="1085" type="line"/>
      <point x="768" y="0" type="line"/>
      <point x="672" y="0" type="line"/>
      <point x="516" y="524" type="line"/>
      <point x="432" y="524" type="line"/>
      <point x="432" y="0" type="line"/>
      <point x="342" y="0" type="line"/>
      <point x="342" y="524" type="line"/>
      <point x="260" y="524" type="line"/>
      <point x="106" y="0" type="line"/>
    </contour>
    <contour>
      <point x="287" y="610" type="qcurve"/>
      <point x="489.0" y="610.0" type="line"/>
      <point x="459.75" y="710.5"/>
      <point x="429.0" y="820.5"/>
      <point x="420.0" y="855.0" type="qcurve" smooth="yes"/>
      <point x="395.1098901098901" y="951.2417582417582"/>
      <point x="393" y="985" type="qcurve"/>
      <point x="385.0" y="985.0" type="line"/>
      <point x="379.75" y="949.0"/>
      <point x="364.75" y="884.0"/>
      <point x="355.0" y="848.0" type="qcurve" smooth="yes"/>
      <point x="344.5" y="809.0"/>
      <point x="310.25" y="690.25"/>
    </contour>
  </outline>
</glyph>
<glyph name="Yusbig-cy" format="1">
  <advance width="1010"/>
  <unicode hex="046A"/>
  <note>
uni046A
</note>
  <outline>
    <contour>
      <point x="10" y="0" type="line"/>
      <point x="111.0" y="457.0" type="line" smooth="yes"/>
      <point x="155.41379310344828" y="671.6666666666666"/>
      <point x="233.0" y="755.0" type="qcurve" smooth="yes"/>
      <point x="300.1787018825513" y="826.4667041303737"/>
      <point x="412" y="831" type="qcurve"/>
      <point x="115" y="1376" type="line"/>
      <point x="115" y="1462" type="line"/>
      <point x="895" y="1462" type="line"/>
      <point x="895" y="1376" type="line"/>
      <point x="596.0" y="831.0" type="line"/>
      <point x="696.8868144690782" y="826.414235705951"/>
      <point x="761.0" y="768.0" type="qcurve" smooth="yes"/>
      <point x="851.7042982910409" y="684.6105644743656"/>
      <point x="899" y="457" type="qcurve" smooth="yes"/>
      <point x="999" y="0" type="line"/>
      <point x="895" y="0" type="line"/>
      <point x="793.0" y="483.0" type="line" smooth="yes"/>
      <point x="778.75" y="552.75"/>
      <point x="745.0" y="648.25"/>
      <point x="721.0" y="679.0" type="qcurve" smooth="yes"/>
      <point x="694.0" y="714.25"/>
      <point x="617.25" y="743.0"/>
      <point x="561" y="743" type="qcurve" smooth="yes"/>
      <point x="553" y="743" type="line"/>
      <point x="553" y="0" type="line"/>
      <point x="455" y="0" type="line"/>
      <point x="455" y="743" type="line"/>
      <point x="446.0" y="743.0" type="line" smooth="yes"/>
      <point x="374.75" y="743.0"/>
      <point x="295.0" y="698.25"/>
      <point x="268.0" y="645.0" type="qcurve" smooth="yes"/>
      <point x="239.5" y="591.0"/>
      <point x="217" y="483" type="qcurve" smooth="yes"/>
      <point x="115" y="0" type="line"/>
    </contour>
    <contour>
      <point x="504" y="848" type="line"/>
      <point x="778" y="1368" type="line"/>
      <point x="231" y="1368" type="line"/>
    </contour>
  </outline>
</glyph>
<glyph name="yusbig-cy" format="1">
  <advance width="961"/>
  <unicode hex="046B"/>
  <note>
uni046B
</note>
  <outline>
    <contour>
      <point x="16" y="0" type="line"/>
      <point x="115.0" y="328.0" type="line" smooth="yes"/>
      <point x="156.24347826086955" y="465.47826086956525"/>
      <point x="188.0" y="516.0" type="qcurve" smooth="yes"/>
      <point x="220.25" y="569.25"/>
      <point x="313.75" y="625.0"/>
      <point x="385" y="631" type="qcurve"/>
      <point x="127" y="1014" type="line"/>
      <point x="127" y="1085" type="line"/>
      <point x="831" y="1085" type="line"/>
      <point x="831" y="1014" type="line"/>
      <point x="575.0" y="631.0" type="line"/>
      <point x="647.0" y="624.25"/>
      <point x="741.0" y="567.5"/>
      <point x="774.0" y="515.0" type="qcurve" smooth="yes"/>
      <point x="804.8863636363636" y="463.52272727272725"/>
      <point x="846" y="328" type="qcurve" smooth="yes"/>
      <point x="944" y="0" type="line"/>
      <point x="840" y="0" type="line"/>
      <point x="745.0" y="344.0" type="line" smooth="yes"/>
      <point x="710.8411261940673" y="467.2689793866264"/>
      <point x="667.0" y="507.0" type="qcurve" smooth="yes"/>
      <point x="644.5" y="528.75"/>
      <point x="587.25" y="545.0"/>
      <point x="549" y="545" type="qcurve" smooth="yes"/>
      <point x="526" y="545" type="line"/>
      <point x="526" y="0" type="line"/>
      <point x="432" y="0" type="line"/>
      <point x="432" y="545" type="line"/>
      <point x="412.0" y="545.0" type="line" smooth="yes"/>
      <point x="310.156862745098" y="545.0"/>
      <point x="267.0" y="474.0" type="qcurve" smooth="yes"/>
      <point x="242.35700934579438" y="435.49532710280374"/>
      <point x="217" y="346" type="qcurve" smooth="yes"/>
      <point x="121" y="0" type="line"/>
    </contour>
    <contour>
      <point x="479" y="645" type="line"/>
      <point x="713" y="999" type="line"/>
      <point x="246" y="999" type="line"/>
    </contour>
  </outline>
</glyph>
<glyph name="Yusbigiotified-cy" format="1">
  <advance width="1430"/>
  <unicode hex="046C"/>
  <note>
uni046C
</note>
  <outline>
    <contour>
      <point x="160" y="0" type="line"/>
      <point x="160" y="1462" type="line"/>
      <point x="258" y="1462" type="line"/>
      <point x="258" y="813" type="line"/>
      <point x="829" y="813" type="line"/>
      <point x="535" y="1376" type="line"/>
      <point x="535" y="1462" type="line"/>
      <point x="1315" y="1462" type="line"/>
      <point x="1315" y="1376" type="line"/>
      <point x="1016.0" y="807.0" type="line"/>
      <point x="1171.4077190946025" y="799.7379570516541"/>
      <point x="1247.0" y="653.0" type="qcurve" smooth="yes"/>
      <point x="1284.2826908541194" y="579.925925925926"/>
      <point x="1319" y="432" type="qcurve" smooth="yes"/>
      <point x="1419" y="0" type="line"/>
      <point x="1315" y="0" type="line"/>
      <point x="1212.0" y="459.0" type="line" smooth="yes"/>
      <point x="1194.0" y="539.25"/>
      <point x="1153.5" y="641.75"/>
      <point x="1125.0" y="671.0" type="qcurve" smooth="yes"/>
      <point x="1077.0" y="719.0"/>
      <point x="981" y="719" type="qcurve" smooth="yes"/>
      <point x="973" y="719" type="line"/>
      <point x="973" y="0" type="line"/>
      <point x="874" y="0" type="line"/>
      <point x="874" y="719" type="line"/>
      <point x="866.0" y="719.0" type="line" smooth="yes"/>
      <point x="794.75" y="719.0"/>
      <point x="716.0" y="673.25"/>
      <point x="689.0" y="620.0" type="qcurve" smooth="yes"/>
      <point x="661.5346534653465" y="569.4059405940594"/>
      <point x="637" y="459" type="qcurve" smooth="yes"/>
      <point x="535" y="0" type="line"/>
      <point x="430" y="0" type="line"/>
      <point x="530.0" y="432.0" type="line" smooth="yes"/>
      <point x="578.3473637571998" y="640.4980062029242"/>
      <point x="645" y="719" type="qcurve"/>
      <point x="258" y="719" type="line"/>
      <point x="258" y="0" type="line"/>
    </contour>
    <contour>
      <point x="924" y="823" type="line"/>
      <point x="1198" y="1368" type="line"/>
      <point x="649" y="1368" type="line"/>
    </contour>
  </outline>
</glyph>
<glyph name="Ksi-cy" format="1">
  <advance width="813"/>
  <unicode hex="046E"/>
  <note>
uni046E
</note>
  <outline>
    <contour>
      <point x="596" y="-381" type="line"/>
      <point x="553.8181818181819" y="-365.0"/>
      <point x="492.0" y="-365.0" type="qcurve" smooth="yes"/>
      <point x="465.0" y="-365.0"/>
      <point x="428.5" y="-369.0"/>
      <point x="412.0" y="-372.0" type="qcurve"/>
      <point x="394.75" y="-374.25"/>
      <point x="354.75" y="-379.0"/>
      <point x="324.0" y="-379.0" type="qcurve" smooth="yes"/>
      <point x="192.75" y="-379.0"/>
      <point x="61.0" y="-250.75"/>
      <point x="61.0" y="-139.0" type="qcurve" smooth="yes"/>
      <point x="61.0" y="-33.25"/>
      <point x="187.75" y="89.5"/>
      <point x="313.0" y="94.0" type="qcurve" smooth="yes"/>
      <point x="451.0" y="98.5"/>
      <point x="584.0" y="245.25"/>
      <point x="584.0" y="399.0" type="qcurve" smooth="yes"/>
      <point x="584.0" y="561.0"/>
      <point x="432.0" y="711.0"/>
      <point x="264" y="711" type="qcurve" smooth="yes"/>
      <point x="164" y="711" type="line"/>
      <point x="164" y="805" type="line"/>
      <point x="270.0" y="805.0" type="line" smooth="yes"/>
      <point x="411.0" y="805.0"/>
      <point x="565.0" y="969.0"/>
      <point x="565.0" y="1128.0" type="qcurve" smooth="yes"/>
      <point x="565.0" y="1260.0"/>
      <point x="447.75" y="1389.0"/>
      <point x="342.0" y="1389.0" type="qcurve" smooth="yes"/>
      <point x="282.75" y="1389.0"/>
      <point x="182.25" y="1337.25"/>
      <point x="150" y="1296" type="qcurve"/>
      <point x="84.0" y="1364.0" type="line"/>
      <point x="160.37063563115487" y="1449.3554162936437"/>
      <point x="272.0" y="1475.0" type="qcurve"/>
      <point x="258.0" y="1505.5"/>
      <point x="210.58333333333331" y="1594.5"/>
      <point x="157.5" y="1683.5"/>
      <point x="135" y="1714" type="qcurve"/>
      <point x="135" y="1731" type="line"/>
      <point x="207.0" y="1731.0" type="line"/>
      <point x="274.5" y="1651.5"/>
      <point x="360.0" y="1509.0" type="qcurve"/>
      <point x="401.25" y="1593.0"/>
      <point x="496.0" y="1726.0"/>
      <point x="553.0" y="1726.0" type="qcurve" smooth="yes"/>
      <point x="580.0" y="1726.0"/>
      <point x="604" y="1714" type="qcurve"/>
      <point x="604.0" y="1630.0" type="line"/>
      <point x="588.2857142857143" y="1640.0"/>
      <point x="571.0" y="1640.0" type="qcurve" smooth="yes"/>
      <point x="532.75" y="1640.0"/>
      <point x="468.5" y="1534.5"/>
      <point x="440.0" y="1473.0" type="qcurve"/>
      <point x="548.75" y="1446.75"/>
      <point x="666.0" y="1266.75"/>
      <point x="666.0" y="1128.0" type="qcurve" smooth="yes"/>
      <point x="666.0" y="984.75"/>
      <point x="530.75" y="792.0"/>
      <point x="416" y="762" type="qcurve"/>
      <point x="416.0" y="754.0" type="line"/>
      <point x="554.0" y="736.75"/>
      <point x="686.0" y="551.75"/>
      <point x="686.0" y="401.0" type="qcurve" smooth="yes"/>
      <point x="686.0" y="209.0"/>
      <point x="493.75" y="6.0"/>
      <point x="313.0" y="0.0" type="qcurve" smooth="yes"/>
      <point x="238.75" y="-3.0"/>
      <point x="160.0" y="-76.0"/>
      <point x="160.0" y="-139.0" type="qcurve" smooth="yes"/>
      <point x="160.0" y="-285.0"/>
      <point x="319.0" y="-285.0" type="qcurve" smooth="yes"/>
      <point x="351.25" y="-285.0"/>
      <point x="389.0" y="-280.0"/>
      <point x="407.0" y="-277.0" type="qcurve" smooth="yes"/>
      <point x="422.75" y="-274.0"/>
      <point x="459.75" y="-270.0"/>
      <point x="489.0" y="-270.0" type="qcurve" smooth="yes"/>
      <point x="545.4444444444445" y="-270.0"/>
      <point x="596" y="-283" type="qcurve"/>
    </contour>
  </outline>
</glyph>
<glyph name="Fita-cy" format="1">
  <advance width="1065"/>
  <unicode hex="0472"/>
  <note>
    afii10147
  </note>
  <outline>
    <contour>
      <point x="532" y="-20" type="curve" smooth="yes"/>
      <point x="805" y="-20"/>
      <point x="954" y="249"/>
      <point x="954" y="733" type="curve" smooth="yes"/>
      <point x="954" y="1214"/>
      <point x="807" y="1483"/>
      <point x="535" y="1483" type="curve" smooth="yes"/>
      <point x="252" y="1483"/>
      <point x="111" y="1239"/>
      <point x="111" y="735" type="curve" smooth="yes"/>
      <point x="111" y="252"/>
      <point x="256" y="-20"/>
    </contour>
    <contour>
      <point x="532" y="74" type="curve" smooth="yes"/>
      <point x="324" y="74"/>
      <point x="216" y="298"/>
      <point x="213" y="698" type="curve"/>
      <point x="852" y="698" type="line"/>
      <point x="847" y="286"/>
      <point x="737" y="74"/>
    </contour>
    <contour>
      <point x="213" y="793" type="line"/>
      <point x="224" y="1190"/>
      <point x="332" y="1389"/>
      <point x="535" y="1389" type="curve" smooth="yes"/>
      <point x="734" y="1389"/>
      <point x="842" y="1186"/>
      <point x="850" y="793" type="curve"/>
    </contour>
  </outline>
</glyph>
<glyph name="fita-cy" format="1">
  <advance width="852"/>
  <unicode hex="0473"/>
  <note>
    afii10195
  </note>
  <outline>
    <contour>
      <point x="422" y="-20" type="curve" smooth="yes"/>
      <point x="637" y="-20"/>
      <point x="756" y="180"/>
      <point x="756" y="545" type="curve" smooth="yes"/>
      <point x="756" y="691"/>
      <point x="736" y="811"/>
      <point x="697" y="903" type="curve" smooth="yes"/>
      <point x="641" y="1035"/>
      <point x="549" y="1106"/>
      <point x="426" y="1106" type="curve" smooth="yes"/>
      <point x="205" y="1106"/>
      <point x="94" y="919"/>
      <point x="94" y="545" type="curve" smooth="yes"/>
      <point x="94" y="409"/>
      <point x="111" y="295"/>
      <point x="142" y="207" type="curve" smooth="yes"/>
      <point x="195" y="58"/>
      <point x="289" y="-20"/>
    </contour>
    <contour>
      <point x="424" y="66" type="curve" smooth="yes"/>
      <point x="271" y="66"/>
      <point x="194" y="219"/>
      <point x="193" y="524" type="curve"/>
      <point x="657" y="524" type="line"/>
      <point x="653" y="219"/>
      <point x="575" y="66"/>
    </contour>
    <contour>
      <point x="193" y="610" type="line"/>
      <point x="202" y="879"/>
      <point x="272" y="1016"/>
      <point x="424" y="1016" type="curve" smooth="yes"/>
      <point x="567" y="1016"/>
      <point x="644" y="881"/>
      <point x="655" y="610" type="curve"/>
    </contour>
  </outline>
</glyph>
<glyph name="Izhitsa-cy" format="1">
  <advance width="887"/>
  <unicode hex="0474"/>
  <note>
afii10148
</note>
  <outline>
    <contour>
      <point x="344" y="0" type="line"/>
      <point x="0" y="1462" type="line"/>
      <point x="102" y="1462" type="line"/>
      <point x="342.0" y="434.0" type="line" smooth="yes"/>
      <point x="377.10867865519936" y="286.250977326036"/>
      <point x="397.0" y="121.0" type="qcurve"/>
      <point x="406.0" y="181.75"/>
      <point x="430.25" y="306.25"/>
      <point x="446" y="370" type="qcurve" smooth="yes"/>
      <point x="629.0" y="1153.0" type="line" smooth="yes"/>
      <point x="658.25" y="1279.75"/>
      <point x="718.0" y="1418.0"/>
      <point x="757.0" y="1448.0" type="qcurve" smooth="yes"/>
      <point x="795.1578947368421" y="1477.0"/>
      <point x="858.0" y="1477.0" type="qcurve" smooth="yes"/>
      <point x="896.5" y="1477.0"/>
      <point x="928" y="1462" type="qcurve"/>
      <point x="928.0" y="1372.0" type="line"/>
      <point x="896.8888888888889" y="1386.0"/>
      <point x="866.0" y="1386.0" type="qcurve" smooth="yes"/>
      <point x="816.8064516129032" y="1386.0"/>
      <point x="788.0" y="1339.0" type="qcurve" smooth="yes"/>
      <point x="759.7036346691519" y="1292.8322460391425"/>
      <point x="725" y="1151" type="qcurve" smooth="yes"/>
      <point x="453" y="0" type="line"/>
    </contour>
    <contour>
      <point x="444" y="1462" type="move" name="top"/>
    </contour>
  </outline>
</glyph>
<glyph name="izhitsa-cy" format="1">
  <advance width="733"/>
  <unicode hex="0475"/>
  <note>
afii10196
</note>
  <outline>
    <contour>
      <point x="266" y="0" type="line"/>
      <point x="10" y="1085" type="line"/>
      <point x="106" y="1085" type="line"/>
      <point x="268.0" y="387.0" type="line" smooth="yes"/>
      <point x="278.125" y="343.5"/>
      <point x="288.09375" y="297.015625"/>
      <point x="295.90625" y="255.734375"/>
      <point x="308.875" y="187.875"/>
      <point x="322" y="123" type="qcurve"/>
      <point x="330.0" y="123.0" type="line"/>
      <point x="338.25" y="178.5"/>
      <point x="364.25" y="311.75"/>
      <point x="383" y="389" type="qcurve" smooth="yes"/>
      <point x="475.0" y="782.0" type="line" smooth="yes"/>
      <point x="502.75" y="905.0"/>
      <point x="564.0" y="1043.0"/>
      <point x="603.0" y="1073.0" type="qcurve" smooth="yes"/>
      <point x="641.1578947368421" y="1102.0"/>
      <point x="705.0" y="1102.0" type="qcurve" smooth="yes"/>
      <point x="738.5" y="1102.0"/>
      <point x="770" y="1087" type="qcurve"/>
      <point x="770.0" y="1001.0" type="line"/>
      <point x="738.5" y="1016.0"/>
      <point x="709.0" y="1016.0" type="qcurve" smooth="yes"/>
      <point x="672.25" y="1016.0"/>
      <point x="627.75" y="973.5"/>
      <point x="609.0" y="924.0" type="qcurve" smooth="yes"/>
      <point x="589.5" y="874.5"/>
      <point x="567" y="780" type="qcurve" smooth="yes"/>
      <point x="379" y="0" type="line"/>
    </contour>
    <contour>
      <point x="367" y="1085" type="move" name="top"/>
    </contour>
  </outline>
</glyph>
<glyph name="uni047A" format="1">
  <advance width="1167"/>
  <unicode hex="047A"/>
  <note>
uni047A
</note>
  <outline>
    <contour>
      <point x="584.0" y="-94.0" type="qcurve" smooth="yes"/>
      <point x="525.0943396226415" y="-94.0"/>
      <point x="510.0" y="-14.0" type="qcurve"/>
      <point x="317.25" y="13.75"/>
      <point x="111.0" y="399.0"/>
      <point x="111.0" y="735.0" type="qcurve" smooth="yes"/>
      <point x="111.0" y="1083.75"/>
      <point x="312.0" y="1450.0"/>
      <point x="510.0" y="1477.0" type="qcurve"/>
      <point x="524.9056603773585" y="1556.0"/>
      <point x="584.0" y="1556.0" type="qcurve" smooth="yes"/>
      <point x="642.0943396226415" y="1556.0"/>
      <point x="657.0" y="1477.0" type="qcurve"/>
      <point x="851.25" y="1447.75"/>
      <point x="1057.0" y="1068.25"/>
      <point x="1057.0" y="733.0" type="qcurve" smooth="yes"/>
      <point x="1057.0" y="402.25"/>
      <point x="849.75" y="16.75"/>
      <point x="657.0" y="-14.0" type="qcurve"/>
      <point x="641.9056603773585" y="-94.0"/>
    </contour>
    <contour>
      <point x="657.0" y="80.0" type="qcurve"/>
      <point x="954.0" y="149.0"/>
      <point x="954.0" y="733.0" type="qcurve" smooth="yes"/>
      <point x="954.0" y="1318.5"/>
      <point x="657.0" y="1380.0" type="qcurve"/>
      <point x="646.5" y="1296.0"/>
      <point x="584.0" y="1296.0" type="qcurve" smooth="yes"/>
      <point x="523.0" y="1296.0"/>
      <point x="508.0" y="1380.0" type="qcurve"/>
      <point x="361.75" y="1346.25"/>
      <point x="213.0" y="1018.0"/>
      <point x="213.0" y="733.0" type="qcurve" smooth="yes"/>
      <point x="213.0" y="447.25"/>
      <point x="361.75" y="114.25"/>
      <point x="508.0" y="82.0" type="qcurve"/>
      <point x="523.0" y="166.0"/>
      <point x="584.0" y="166.0" type="qcurve" smooth="yes"/>
      <point x="646.438596491228" y="166.0"/>
    </contour>
  </outline>
</glyph>
<glyph name="uni047B" format="1">
  <advance width="940"/>
  <unicode hex="047B"/>
  <note>
uni047B
</note>
  <outline>
    <contour>
      <point x="471.0" y="-94.0" type="qcurve" smooth="yes"/>
      <point x="410.58490566037733" y="-94.0"/>
      <point x="397.0" y="-14.0" type="qcurve"/>
      <point x="249.25" y="12.25"/>
      <point x="94.0" y="301.25"/>
      <point x="94.0" y="545.0" type="qcurve" smooth="yes"/>
      <point x="94.0" y="1049.0"/>
      <point x="397.0" y="1100.0" type="qcurve"/>
      <point x="410.4117647058824" y="1176.0"/>
      <point x="471.0" y="1176.0" type="qcurve" smooth="yes"/>
      <point x="528.0" y="1176.0"/>
      <point x="543.0" y="1098.0" type="qcurve"/>
      <point x="689.25" y="1068.0"/>
      <point x="846.0" y="784.25"/>
      <point x="846.0" y="545.0" type="qcurve" smooth="yes"/>
      <point x="846.0" y="299.0"/>
      <point x="687.75" y="15.0"/>
      <point x="543.0" y="-12.0" type="qcurve"/>
      <point x="528.0909090909091" y="-94.0"/>
    </contour>
    <contour>
      <point x="395.0" y="76.0" type="qcurve"/>
      <point x="405.4406779661017" y="164.0"/>
      <point x="471.0" y="164.0" type="qcurve" smooth="yes"/>
      <point x="532.5593220338983" y="164.0"/>
      <point x="543.0" y="76.0" type="qcurve"/>
      <point x="748.0" y="137.35036496350364"/>
      <point x="748.0" y="545.0" type="qcurve" smooth="yes"/>
      <point x="748.0" y="944.6496350364963"/>
      <point x="543.0" y="1006.0" type="qcurve"/>
      <point x="532.5593220338983" y="918.0"/>
      <point x="471.0" y="918.0" type="qcurve" smooth="yes"/>
      <point x="405.4406779661017" y="918.0"/>
      <point x="395.0" y="1006.0" type="qcurve"/>
      <point x="289.25" y="978.25"/>
      <point x="193.0" y="746.75"/>
      <point x="193.0" y="545.0" type="qcurve" smooth="yes"/>
      <point x="193.0" y="132.85925925925926"/>
    </contour>
  </outline>
</glyph>
<glyph name="uni047D" format="1">
  <advance width="1126"/>
  <unicode hex="047D"/>
  <note>
uni047D
</note>
  <outline>
    <contour>
      <point x="356.0" y="-20.0" type="qcurve" smooth="yes"/>
      <point x="227.75" y="-20.0"/>
      <point x="94.0" y="270.75"/>
      <point x="94.0" y="537.0" type="qcurve" smooth="yes"/>
      <point x="94.0" y="813.75"/>
      <point x="233.0" y="1106.0"/>
      <point x="371.0" y="1106.0" type="qcurve" smooth="yes"/>
      <point x="445.2758620689655" y="1106.0"/>
      <point x="512" y="1063" type="qcurve"/>
      <point x="481.0" y="981.0" type="line"/>
      <point x="433.82608695652175" y="1016.0"/>
      <point x="383.0" y="1016.0" type="qcurve" smooth="yes"/>
      <point x="193.0" y="1016.0"/>
      <point x="193.0" y="539.0" type="qcurve" smooth="yes"/>
      <point x="193.0" y="458.375"/>
      <point x="209.4375" y="291.9739583333333"/>
      <point x="248.5625" y="151.77604166666666"/>
      <point x="316.0" y="66.0"/>
      <point x="367.0" y="66.0" type="qcurve" smooth="yes"/>
      <point x="468.5" y="66.0"/>
      <point x="563.0" y="195.0" type="qcurve"/>
      <point x="659.0" y="66.0"/>
      <point x="754.0" y="66.0" type="qcurve" smooth="yes"/>
      <point x="808.0" y="66.0"/>
      <point x="878.125" y="151.77604166666666"/>
      <point x="917.875" y="291.9739583333333"/>
      <point x="934.0" y="458.375"/>
      <point x="934.0" y="539.0" type="qcurve" smooth="yes"/>
      <point x="934.0" y="1016.0"/>
      <point x="743.0" y="1016.0" type="qcurve" smooth="yes"/>
      <point x="692.1739130434783" y="1016.0"/>
      <point x="645" y="981" type="qcurve"/>
      <point x="614.0" y="1063.0" type="line"/>
      <point x="680.7241379310345" y="1106.0"/>
      <point x="756.0" y="1106.0" type="qcurve" smooth="yes"/>
      <point x="893.25" y="1106.0"/>
      <point x="1032.0" y="813.75"/>
      <point x="1032.0" y="537.0" type="qcurve" smooth="yes"/>
      <point x="1032.0" y="267.75"/>
      <point x="895.75" y="-20.0"/>
      <point x="766.0" y="-20.0" type="qcurve" smooth="yes"/>
      <point x="651.031746031746" y="-20.0"/>
      <point x="563.0" y="74.0" type="qcurve"/>
      <point x="476.46031746031747" y="-20.0"/>
    </contour>
    <contour>
      <point x="469" y="1227" type="qcurve"/>
      <point x="469.0" y="1282.0" type="line"/>
      <point x="582.0" y="1318.16"/>
      <point x="582.0" y="1389.0" type="qcurve" smooth="yes"/>
      <point x="582.0" y="1413.0"/>
      <point x="555.75" y="1435.0"/>
      <point x="540.0" y="1444.0" type="qcurve" smooth="yes"/>
      <point x="524.25" y="1452.25"/>
      <point x="498.0" y="1476.25"/>
      <point x="498.0" y="1501.0" type="qcurve" smooth="yes"/>
      <point x="498.0" y="1531.75"/>
      <point x="534.25" y="1569.0"/>
      <point x="565.0" y="1569.0" type="qcurve" smooth="yes"/>
      <point x="609.25" y="1569.0"/>
      <point x="659.0" y="1499.0"/>
      <point x="659.0" y="1442.0" type="qcurve" smooth="yes"/>
      <point x="659.0" y="1358.0"/>
      <point x="565.75" y="1256.25"/>
    </contour>
    <contour>
      <point x="305" y="1565" type="line"/>
      <point x="305.0" y="1578.0" type="line" smooth="yes"/>
      <point x="307.25" y="1665.0"/>
      <point x="385.75" y="1763.0"/>
      <point x="469.0" y="1763.0" type="qcurve" smooth="yes"/>
      <point x="551.0" y="1763.0"/>
      <point x="653.0" y="1712.0" type="qcurve" smooth="yes"/>
      <point x="670.25" y="1703.0"/>
      <point x="700.75" y="1689.0"/>
      <point x="715.0" y="1683.0" type="qcurve" smooth="yes"/>
      <point x="769.0" y="1658.25"/>
      <point x="841.5" y="1642.0"/>
      <point x="879" y="1642" type="qcurve"/>
      <point x="879" y="1565" type="line"/>
      <point x="868.0" y="1565.0" type="line" smooth="yes"/>
      <point x="780.5" y="1565.0"/>
      <point x="680.0" y="1613.0" type="qcurve" smooth="yes"/>
      <point x="667.25" y="1619.0"/>
      <point x="641.75" y="1632.0"/>
      <point x="629.0" y="1638.0" type="qcurve" smooth="yes"/>
      <point x="584.0" y="1659.0"/>
      <point x="518.0" y="1686.0"/>
      <point x="485.0" y="1686.0" type="qcurve" smooth="yes"/>
      <point x="431.75" y="1686.0"/>
      <point x="392.5" y="1629.5"/>
      <point x="391" y="1565" type="qcurve"/>
    </contour>
  </outline>
</glyph>
<glyph name="koppa-cy" format="1">
  <advance width="651"/>
  <unicode hex="0481"/>
  <note>
uni0481
</note>
  <outline>
    <contour>
      <point x="461" y="-492" type="line"/>
      <point x="461" y="32" type="line"/>
      <point x="494.0" y="-6.0" type="line"/>
      <point x="442.6666666666667" y="-20.0"/>
      <point x="401.0" y="-20.0" type="qcurve" smooth="yes"/>
      <point x="251.0" y="-20.0"/>
      <point x="96.0" y="261.75"/>
      <point x="96.0" y="537.0" type="qcurve" smooth="yes"/>
      <point x="96.0" y="815.25"/>
      <point x="263.25" y="1106.0"/>
      <point x="426.0" y="1106.0" type="qcurve" smooth="yes"/>
      <point x="527.4" y="1106.0"/>
      <point x="594" y="1069" type="qcurve"/>
      <point x="559.0" y="985.0" type="line"/>
      <point x="535.0" y="997.0"/>
      <point x="461.75" y="1016.0"/>
      <point x="434.0" y="1016.0" type="qcurve" smooth="yes"/>
      <point x="338.5" y="1016.0"/>
      <point x="234.91666666666669" y="880.0"/>
      <point x="195.0" y="662.0"/>
      <point x="195.0" y="539.0" type="qcurve" smooth="yes"/>
      <point x="195.0" y="418.0"/>
      <point x="231.16666666666666" y="201.66666666666663"/>
      <point x="326.0" y="66.0"/>
      <point x="414.0" y="66.0" type="qcurve" smooth="yes"/>
      <point x="478.8095238095238" y="66.0"/>
      <point x="555" y="98" type="qcurve"/>
      <point x="555" y="-492" type="line"/>
    </contour>
  </outline>
</glyph>
<glyph name="titlocomb-cy" format="1">
  <advance width="1112"/>
  <unicode hex="0483"/>
  <note>
uni0483
</note>
  <outline>
    <contour>
      <point x="384.0" y="1188.0" type="qcurve" smooth="yes"/>
      <point x="359.25" y="1188.0"/>
      <point x="321.0" y="1227.75"/>
      <point x="321.0" y="1272.0" type="qcurve" smooth="yes"/>
      <point x="321.0" y="1346.0"/>
      <point x="384" y="1346" type="qcurve" smooth="yes"/>
      <point x="667.0" y="1346.0" type="line"/>
      <point x="667.0" y="1388.75"/>
      <point x="706.0" y="1430.0"/>
      <point x="730.0" y="1430.0" type="qcurve" smooth="yes"/>
      <point x="753.25" y="1430.0"/>
      <point x="792.0" y="1388.75"/>
      <point x="792.0" y="1346.0" type="qcurve" smooth="yes"/>
      <point x="792.0" y="1272.0"/>
      <point x="730" y="1272" type="qcurve" smooth="yes"/>
      <point x="446.0" y="1272.0" type="line"/>
      <point x="446.0" y="1227.75"/>
      <point x="407.25" y="1188.0"/>
    </contour>
  </outline>
</glyph>
<glyph name="palatalizationcomb-cy" format="1">
  <advance width="1126"/>
  <unicode hex="0484"/>
  <note>
uni0484
</note>
  <outline>
    <contour>
      <point x="764" y="1257" type="line"/>
      <point x="764.0" y="1259.0" type="line" smooth="yes"/>
      <point x="764.0" y="1322.0"/>
      <point x="721.5" y="1378.0"/>
      <point x="669.0" y="1378.0" type="qcurve" smooth="yes"/>
      <point x="634.6666666666666" y="1378.0"/>
      <point x="604.0" y="1366.0" type="qcurve" smooth="yes"/>
      <point x="569.5" y="1352.5"/>
      <point x="475.0" y="1306.0" type="qcurve" smooth="yes"/>
      <point x="375.46875" y="1257.0"/>
      <point x="286" y="1257" type="qcurve" smooth="yes"/>
      <point x="276" y="1257" type="line"/>
      <point x="276.0" y="1335.0" type="line"/>
      <point x="321.75" y="1335.0"/>
      <point x="414.25" y="1360.75"/>
      <point x="502.0" y="1405.0" type="qcurve" smooth="yes"/>
      <point x="604.0" y="1456.0"/>
      <point x="686.0" y="1456.0" type="qcurve" smooth="yes"/>
      <point x="827.5" y="1456.0"/>
      <point x="847.0" y="1309.0" type="qcurve" smooth="yes"/>
      <point x="850.0" y="1285.0"/>
      <point x="850" y="1257" type="qcurve"/>
    </contour>
  </outline>
</glyph>
<glyph name="dasiapneumatacomb-cy" format="1">
  <advance width="1182"/>
  <unicode hex="0485"/>
  <note>
uni0485
</note>
  <outline>
    <contour>
      <point x="686" y="1247" type="line"/>
      <point x="496.0" y="1303.40625"/>
      <point x="496.0" y="1459.0" type="qcurve" smooth="yes"/>
      <point x="496.0" y="1519.75"/>
      <point x="547.25" y="1589.0"/>
      <point x="590.0" y="1589.0" type="qcurve" smooth="yes"/>
      <point x="620.75" y="1589.0"/>
      <point x="658.0" y="1552.75"/>
      <point x="658.0" y="1522.0" type="qcurve" smooth="yes"/>
      <point x="658.0" y="1495.75"/>
      <point x="631.75" y="1471.5"/>
      <point x="616.0" y="1464.0" type="qcurve" smooth="yes"/>
      <point x="597.25" y="1455.0"/>
      <point x="574.0" y="1431.25"/>
      <point x="574.0" y="1408.0" type="qcurve" smooth="yes"/>
      <point x="574.0" y="1340.3333333333333"/>
      <point x="686" y="1303" type="qcurve"/>
    </contour>
  </outline>
</glyph>
<glyph name="psilipneumatacomb-cy" format="1">
  <advance width="1182"/>
  <unicode hex="0486"/>
  <note>
    uni0486
  </note>
  <outline>
    <contour>
      <point x="496" y="1247" type="line"/>
      <point x="624" y="1285"/>
      <point x="686" y="1353"/>
      <point x="686" y="1459" type="curve" smooth="yes"/>
      <point x="686" y="1540"/>
      <point x="649" y="1589"/>
      <point x="592" y="1589" type="curve" smooth="yes"/>
      <point x="551" y="1589"/>
      <point x="524" y="1563"/>
      <point x="524" y="1522" type="curve" smooth="yes"/>
      <point x="524" y="1487"/>
      <point x="545" y="1475"/>
      <point x="566" y="1464" type="curve" smooth="yes"/>
      <point x="591" y="1451"/>
      <point x="608" y="1439"/>
      <point x="608" y="1408" type="curve" smooth="yes"/>
      <point x="608" y="1363"/>
      <point x="571" y="1328"/>
      <point x="496" y="1303" type="curve"/>
    </contour>
  </outline>
</glyph>
<glyph name="millionssigncomb-cy" format="1">
  <advance width="1958"/>
  <unicode hex="0489"/>
  <note>
    uni0489
  </note>
  <outline>
    <contour>
      <point x="891" y="1141" type="line"/>
      <point x="1004" y="1141" type="line"/>
      <point x="1011" y="1218"/>
      <point x="1030" y="1349"/>
      <point x="1053" y="1468" type="curve"/>
      <point x="1016" y="1468" type="line"/>
      <point x="965" y="1389"/>
      <point x="904" y="1240"/>
      <point x="891" y="1161" type="curve"/>
    </contour>
    <contour>
      <point x="1411" y="950" type="line"/>
      <point x="1448" y="981"/>
      <point x="1588" y="1085"/>
      <point x="1679" y="1149" type="curve"/>
      <point x="1653" y="1174" type="line"/>
      <point x="1558" y="1154"/>
      <point x="1412" y="1092"/>
      <point x="1348" y="1044" type="curve"/>
      <point x="1333" y="1030" type="line"/>
    </contour>
    <contour>
      <point x="1892" y="481" type="curve"/>
      <point x="1892" y="518" type="line"/>
      <point x="1829" y="559"/>
      <point x="1668" y="626"/>
      <point x="1585" y="641" type="curve"/>
      <point x="1565" y="641" type="line"/>
      <point x="1565" y="528" type="line"/>
      <point x="1626" y="524"/>
      <point x="1784" y="502"/>
    </contour>
    <contour>
      <point x="1575" y="-145" type="curve"/>
      <point x="1602" y="-119" type="line"/>
      <point x="1583" y="-38"/>
      <point x="1518" y="119"/>
      <point x="1470" y="184" type="curve"/>
      <point x="1456" y="199" type="line"/>
      <point x="1376" y="121" type="line"/>
      <point x="1433" y="53"/>
      <point x="1520" y="-64"/>
    </contour>
    <contour>
      <point x="907" y="-362" type="curve"/>
      <point x="944" y="-362" type="line"/>
      <point x="995" y="-283"/>
      <point x="1056" y="-134"/>
      <point x="1069" y="-55" type="curve"/>
      <point x="1069" y="-35" type="line"/>
      <point x="956" y="-35" type="line"/>
      <point x="949" y="-112"/>
      <point x="930" y="-243"/>
    </contour>
    <contour>
      <point x="307" y="-70" type="line"/>
      <point x="400" y="-50"/>
      <point x="548" y="14"/>
      <point x="612" y="59" type="curve"/>
      <point x="627" y="74" type="line"/>
      <point x="547" y="154" type="line"/>
      <point x="506" y="119"/>
      <point x="365" y="14"/>
      <point x="281" y="-43" type="curve"/>
    </contour>
    <contour>
      <point x="373" y="463" type="curve"/>
      <point x="393" y="463" type="line"/>
      <point x="393" y="575" type="line"/>
      <point x="319" y="582"/>
      <point x="183" y="602"/>
      <point x="66" y="625" type="curve"/>
      <point x="66" y="588" type="line"/>
      <point x="145" y="537"/>
      <point x="294" y="476"/>
    </contour>
    <contour>
      <point x="500" y="905" type="line"/>
      <point x="580" y="985" type="line"/>
      <point x="551" y="1018"/>
      <point x="435" y="1175"/>
      <point x="383" y="1251" type="curve"/>
      <point x="356" y="1225" type="line"/>
      <point x="376" y="1132"/>
      <point x="440" y="984"/>
      <point x="485" y="920" type="curve"/>
    </contour>
  </outline>
</glyph>
<glyph name="Iishorttail-cy" format="1">
  <advance width="1090"/>
  <unicode hex="048A"/>
  <note>
uni048A
</note>
  <outline>
    <contour>
      <point x="813" y="-369" type="line"/>
      <point x="930" y="0" type="line"/>
      <point x="834" y="0" type="line"/>
      <point x="834.0" y="1049.0" type="line" smooth="yes"/>
      <point x="834.0" y="1174.5"/>
      <point x="846" y="1311" type="qcurve"/>
      <point x="838" y="1311" type="line"/>
      <point x="285" y="0" type="line"/>
      <point x="160" y="0" type="line"/>
      <point x="160" y="1462" type="line"/>
      <point x="256" y="1462" type="line"/>
      <point x="256.0" y="440.0" type="line" smooth="yes"/>
      <point x="256.0" y="390.0"/>
      <point x="253.91666666666669" y="315.9166666666667"/>
      <point x="249.5" y="231.5"/>
      <point x="246" y="166" type="qcurve"/>
      <point x="254" y="166" type="line"/>
      <point x="803" y="1462" type="line"/>
      <point x="930" y="1462" type="line"/>
      <point x="930" y="94" type="line"/>
      <point x="1036" y="94" type="line"/>
      <point x="920" y="-369" type="line"/>
    </contour>
    <contour>
      <point x="540.0" y="1579.0" type="qcurve" smooth="yes"/>
      <point x="420.75" y="1579.0"/>
      <point x="292.75" y="1712.25"/>
      <point x="283" y="1860" type="qcurve"/>
      <point x="371.0" y="1860.0" type="line"/>
      <point x="380.75" y="1748.25"/>
      <point x="461.0" y="1657.0"/>
      <point x="542.0" y="1657.0" type="qcurve" smooth="yes"/>
      <point x="629.0" y="1657.0"/>
      <point x="708.0" y="1755.0"/>
      <point x="717" y="1860" type="qcurve"/>
      <point x="805.0" y="1860.0" type="line"/>
      <point x="796.0" y="1713.75"/>
      <point x="660.75" y="1579.0"/>
    </contour>
  </outline>
</glyph>
<glyph name="Semisoftsign-cy" format="1">
  <advance width="874"/>
  <unicode hex="048C"/>
  <note>
    uni048C
  </note>
  <outline>
    <contour>
      <point x="160" y="0" type="line"/>
      <point x="416" y="0" type="line" smooth="yes"/>
      <point x="653" y="0"/>
      <point x="797" y="154"/>
      <point x="797" y="410" type="curve" smooth="yes"/>
      <point x="797" y="687"/>
      <point x="675" y="813"/>
      <point x="414" y="813" type="curve" smooth="yes"/>
      <point x="258" y="813" type="line"/>
      <point x="258" y="1155" type="line"/>
      <point x="500" y="1155" type="line"/>
      <point x="500" y="1237" type="line"/>
      <point x="258" y="1237" type="line"/>
      <point x="258" y="1462" type="line"/>
      <point x="160" y="1462" type="line"/>
      <point x="160" y="1237" type="line"/>
      <point x="0" y="1237" type="line"/>
      <point x="0" y="1155" type="line"/>
      <point x="160" y="1155" type="line"/>
    </contour>
    <contour>
      <point x="258" y="90" type="line"/>
      <point x="258" y="723" type="line"/>
      <point x="418" y="723" type="line" smooth="yes"/>
      <point x="610" y="723"/>
      <point x="696" y="625"/>
      <point x="696" y="410" type="curve" smooth="yes"/>
      <point x="696" y="203"/>
      <point x="599" y="90"/>
      <point x="420" y="90" type="curve" smooth="yes"/>
    </contour>
  </outline>
</glyph>
<glyph name="Gheupturn-cy" format="1">
  <advance width="686"/>
  <unicode hex="0490"/>
  <note>
    afii10050
  </note>
  <outline>
    <contour>
      <point x="637" y="1368" type="line"/>
      <point x="637" y="1763" type="line"/>
      <point x="543" y="1763" type="line"/>
      <point x="543" y="1462" type="line"/>
      <point x="160" y="1462" type="line"/>
      <point x="160" y="0" type="line"/>
      <point x="258" y="0" type="line"/>
      <point x="258" y="1368" type="line"/>
    </contour>
  </outline>
</glyph>
<glyph name="gheupturn-cy" format="1">
  <advance width="592"/>
  <unicode hex="0491"/>
  <note>
    afii10098
  </note>
  <outline>
    <contour>
      <point x="145" y="0" type="line"/>
      <point x="240" y="0" type="line"/>
      <point x="240" y="995" type="line"/>
      <point x="543" y="995" type="line"/>
      <point x="543" y="1411" type="line"/>
      <point x="453" y="1411" type="line"/>
      <point x="453" y="1085" type="line"/>
      <point x="145" y="1085" type="line"/>
    </contour>
  </outline>
</glyph>
<glyph name="Ghestroke-cy" format="1">
  <advance width="686"/>
  <unicode hex="0492"/>
  <note>
uni0492
</note>
  <outline>
    <contour>
      <point x="160" y="0" type="line"/>
      <point x="160" y="680" type="line"/>
      <point x="61" y="680" type="line"/>
      <point x="61" y="770" type="line"/>
      <point x="160" y="770" type="line"/>
      <point x="160" y="1462" type="line"/>
      <point x="670" y="1462" type="line"/>
      <point x="670" y="1368" type="line"/>
      <point x="258" y="1368" type="line"/>
      <point x="258" y="770" type="line"/>
      <point x="483" y="770" type="line"/>
      <point x="483" y="680" type="line"/>
      <point x="258" y="680" type="line"/>
      <point x="258" y="0" type="line"/>
    </contour>
    <contour>
      <point x="170" y="0" type="move" name="cyrillicbighook"/>
    </contour>
  </outline>
</glyph>
<glyph name="ghemiddlehook-cy" format="1">
  <advance width="805"/>
  <unicode hex="0495"/>
  <note>
uni0495
</note>
  <outline>
    <contour>
      <point x="432.0" y="-502.0" type="qcurve" smooth="yes"/>
      <point x="321.8974358974359" y="-502.0"/>
      <point x="252" y="-444" type="qcurve"/>
      <point x="252.0" y="-344.0" type="line"/>
      <point x="338.1333333333333" y="-412.0"/>
      <point x="420.0" y="-412.0" type="qcurve" smooth="yes"/>
      <point x="522.2168674698795" y="-412.0"/>
      <point x="576.0" y="-288.0" type="qcurve" smooth="yes"/>
      <point x="629.0" y="-163.82857142857142"/>
      <point x="629.0" y="59.0" type="qcurve" smooth="yes"/>
      <point x="629.0" y="296.0"/>
      <point x="494.75" y="549.0"/>
      <point x="365.0" y="549.0" type="qcurve" smooth="yes"/>
      <point x="294.94736842105266" y="549.0"/>
      <point x="240" y="520" type="qcurve"/>
      <point x="240" y="0" type="line"/>
      <point x="145" y="0" type="line"/>
      <point x="145" y="1085" type="line"/>
      <point x="575" y="1085" type="line"/>
      <point x="575" y="995" type="line"/>
      <point x="240" y="995" type="line"/>
      <point x="240.0" y="610.0" type="line"/>
      <point x="306.0" y="637.0"/>
      <point x="365.0" y="637.0" type="qcurve" smooth="yes"/>
      <point x="578.9416058394161" y="637.0"/>
      <point x="667.0" y="429.0" type="qcurve" smooth="yes"/>
      <point x="727.0" y="289.5"/>
      <point x="727.0" y="57.0" type="qcurve" smooth="yes"/>
      <point x="727.0" y="-286.75"/>
      <point x="605.0" y="-424.0" type="qcurve" smooth="yes"/>
      <point x="534.6470588235294" y="-502.0"/>
    </contour>
  </outline>
</glyph>
<glyph name="kaverticalstroke-cy" format="1">
  <advance width="795"/>
  <unicode hex="049D"/>
  <note>
uni049D
</note>
  <outline>
    <contour>
      <point x="145" y="0" type="line"/>
      <point x="145" y="1085" type="line"/>
      <point x="240" y="1085" type="line"/>
      <point x="240" y="575" type="line"/>
      <point x="342" y="705" type="line"/>
      <point x="342" y="1014" type="line"/>
      <point x="424" y="1014" type="line"/>
      <point x="424" y="807" type="line"/>
      <point x="645" y="1085" type="line"/>
      <point x="758" y="1085" type="line"/>
      <point x="424" y="676" type="line"/>
      <point x="424" y="469" type="line"/>
      <point x="784" y="0" type="line"/>
      <point x="668" y="0" type="line"/>
      <point x="424" y="322" type="line"/>
      <point x="424" y="106" type="line"/>
      <point x="342" y="106" type="line"/>
      <point x="342" y="430" type="line"/>
      <point x="240" y="567" type="line"/>
      <point x="240" y="0" type="line"/>
    </contour>
  </outline>
</glyph>
<glyph name="Kastroke-cy" format="1">
  <advance width="825"/>
  <unicode hex="049E"/>
  <note>
uni049E
</note>
  <outline>
    <contour>
      <point x="160" y="0" type="line"/>
      <point x="160" y="1182" type="line"/>
      <point x="27" y="1182" type="line"/>
      <point x="27" y="1272" type="line"/>
      <point x="160" y="1272" type="line"/>
      <point x="160" y="1462" type="line"/>
      <point x="258" y="1462" type="line"/>
      <point x="258" y="1272" type="line"/>
      <point x="451" y="1272" type="line"/>
      <point x="451" y="1182" type="line"/>
      <point x="258" y="1182" type="line"/>
      <point x="258.0" y="688.0" type="line"/>
      <point x="264.0" y="699.0"/>
      <point x="320.4166666666667" y="801.8333333333333"/>
      <point x="394.5" y="936.0"/>
      <point x="427.0" y="994.0" type="qcurve" smooth="yes"/>
      <point x="442.5" y="1022.0"/>
      <point x="522.6666666666667" y="1165.0833333333333"/>
      <point x="631.5" y="1358.5"/>
      <point x="690" y="1462" type="qcurve"/>
      <point x="797" y="1462" type="line"/>
      <point x="430" y="819" type="line"/>
      <point x="825" y="0" type="line"/>
      <point x="715" y="0" type="line"/>
      <point x="371" y="729" type="line"/>
      <point x="258" y="580" type="line"/>
      <point x="258" y="0" type="line"/>
    </contour>
  </outline>
</glyph>
<glyph name="Kabashkir-cy" format="1">
  <advance width="971"/>
  <unicode hex="04A0"/>
  <note>
    uni04A0
  </note>
  <outline>
    <contour>
      <point x="305" y="0" type="line"/>
      <point x="403" y="0" type="line"/>
      <point x="403" y="580" type="line"/>
      <point x="516" y="729" type="line"/>
      <point x="860" y="0" type="line"/>
      <point x="971" y="0" type="line"/>
      <point x="575" y="819" type="line"/>
      <point x="942" y="1462" type="line"/>
      <point x="836" y="1462" type="line"/>
      <point x="500" y="864" type="line"/>
      <point x="403" y="688" type="line"/>
      <point x="403" y="1462" type="line"/>
      <point x="14" y="1462" type="line"/>
      <point x="14" y="1368" type="line"/>
      <point x="305" y="1368" type="line"/>
    </contour>
  </outline>
</glyph>
<glyph name="Endescender-cy" format="1">
  <advance width="1036"/>
  <unicode hex="04A2"/>
  <note>
    uni04A2
  </note>
  <outline>
    <contour>
      <point x="883" y="-369" type="line"/>
      <point x="977" y="-369" type="line"/>
      <point x="977" y="94" type="line"/>
      <point x="866" y="94" type="line"/>
      <point x="866" y="1462" type="line"/>
      <point x="768" y="1462" type="line"/>
      <point x="768" y="813" type="line"/>
      <point x="258" y="813" type="line"/>
      <point x="258" y="1462" type="line"/>
      <point x="160" y="1462" type="line"/>
      <point x="160" y="0" type="line"/>
      <point x="258" y="0" type="line"/>
      <point x="258" y="719" type="line"/>
      <point x="768" y="719" type="line"/>
      <point x="768" y="0" type="line"/>
      <point x="883" y="0" type="line"/>
    </contour>
  </outline>
</glyph>
<glyph name="Enghe-cy" format="1">
  <advance width="1174"/>
  <unicode hex="04A4"/>
  <note>
uni04A4
</note>
  <outline>
    <contour>
      <point x="160" y="0" type="line"/>
      <point x="160" y="1462" type="line"/>
      <point x="258" y="1462" type="line"/>
      <point x="258" y="813" type="line"/>
      <point x="768" y="813" type="line"/>
      <point x="768" y="1462" type="line"/>
      <point x="1157" y="1462" type="line"/>
      <point x="1157" y="1368" type="line"/>
      <point x="866" y="1368" type="line"/>
      <point x="866" y="0" type="line"/>
      <point x="768" y="0" type="line"/>
      <point x="768" y="719" type="line"/>
      <point x="258" y="719" type="line"/>
      <point x="258" y="0" type="line"/>
    </contour>
  </outline>
</glyph>
<glyph name="enghe-cy" format="1">
  <advance width="946"/>
  <unicode hex="04A5"/>
  <note>
    uni04A5
  </note>
  <outline>
    <contour>
      <point x="145" y="0" type="line"/>
      <point x="240" y="0" type="line"/>
      <point x="240" y="524" type="line"/>
      <point x="643" y="524" type="line"/>
      <point x="643" y="0" type="line"/>
      <point x="737" y="0" type="line"/>
      <point x="737" y="999" type="line"/>
      <point x="930" y="999" type="line"/>
      <point x="930" y="1085" type="line"/>
      <point x="643" y="1085" type="line"/>
      <point x="643" y="610" type="line"/>
      <point x="240" y="610" type="line"/>
      <point x="240" y="1085" type="line"/>
      <point x="145" y="1085" type="line"/>
    </contour>
  </outline>
</glyph>
<glyph name="Pemiddlehook-cy" format="1">
  <advance width="1462"/>
  <unicode hex="04A6"/>
  <note>
uni04A6
</note>
  <outline>
    <contour>
      <point x="1004.0" y="-512.0" type="qcurve" smooth="yes"/>
      <point x="904.2121212121212" y="-512.0"/>
      <point x="827" y="-463" type="qcurve"/>
      <point x="827.0" y="-362.0" type="line"/>
      <point x="916.2972972972973" y="-418.0"/>
      <point x="994.0" y="-418.0" type="qcurve" smooth="yes"/>
      <point x="1122.5408163265306" y="-418.0"/>
      <point x="1194.0" y="-269.0" type="qcurve" smooth="yes"/>
      <point x="1230.75" y="-192.5"/>
      <point x="1266.0" y="21.25"/>
      <point x="1266.0" y="145.0" type="qcurve" smooth="yes"/>
      <point x="1266.0" y="424.75"/>
      <point x="1099.75" y="713.0"/>
      <point x="952.0" y="713.0" type="qcurve" smooth="yes"/>
      <point x="922.0" y="713.0"/>
      <point x="851.0" y="700.75"/>
      <point x="815" y="688" type="qcurve"/>
      <point x="815" y="0" type="line"/>
      <point x="717" y="0" type="line"/>
      <point x="717" y="1368" type="line"/>
      <point x="258" y="1368" type="line"/>
      <point x="258" y="0" type="line"/>
      <point x="160" y="0" type="line"/>
      <point x="160" y="1462" type="line"/>
      <point x="815" y="1462" type="line"/>
      <point x="815.0" y="780.0" type="line"/>
      <point x="887.0666666666667" y="803.0"/>
      <point x="959.0" y="803.0" type="qcurve" smooth="yes"/>
      <point x="1055.75" y="803.0"/>
      <point x="1201.25" y="718.0"/>
      <point x="1253.0" y="640.0" type="qcurve" smooth="yes"/>
      <point x="1309.25" y="555.25"/>
      <point x="1368.0" y="310.0"/>
      <point x="1368.0" y="145.0" type="qcurve" smooth="yes"/>
      <point x="1368.0" y="-20.0"/>
      <point x="1309.5" y="-288.25"/>
      <point x="1254.0" y="-373.0" type="qcurve" smooth="yes"/>
      <point x="1210.5" y="-439.75"/>
      <point x="1086.5" y="-512.0"/>
    </contour>
  </outline>
</glyph>
<glyph name="Haabkhasian-cy" format="1">
  <advance width="1145"/>
  <unicode hex="04A8"/>
  <note>
uni04A8
</note>
  <outline>
    <contour>
      <point x="973.0" y="-84.0" type="qcurve" smooth="yes"/>
      <point x="850.0" y="-84.0"/>
      <point x="743.0" y="23.0" type="qcurve"/>
      <point x="713.0" y="5.75"/>
      <point x="606.5" y="-20.0"/>
      <point x="554.0" y="-20.0" type="qcurve" smooth="yes"/>
      <point x="420.0" y="-20.0"/>
      <point x="220.83333333333331" y="162.91666666666666"/>
      <point x="111.0" y="499.50000000000006"/>
      <point x="111.0" y="730.0" type="qcurve" smooth="yes"/>
      <point x="111.0" y="959.5"/>
      <point x="221.25" y="1301.5"/>
      <point x="321.0" y="1393.0" type="qcurve" smooth="yes"/>
      <point x="369.0" y="1437.25"/>
      <point x="486.5" y="1485.0"/>
      <point x="560.0" y="1485.0" type="qcurve" smooth="yes"/>
      <point x="661.5555555555555" y="1485.0"/>
      <point x="739" y="1444" type="qcurve"/>
      <point x="702.0" y="1356.0" type="line"/>
      <point x="675.75" y="1372.5"/>
      <point x="599.75" y="1391.0"/>
      <point x="563.0" y="1391.0" type="qcurve" smooth="yes"/>
      <point x="454.0" y="1391.0"/>
      <point x="297.16666666666663" y="1229.5"/>
      <point x="213.0" y="934.0"/>
      <point x="213.0" y="733.0" type="qcurve" smooth="yes"/>
      <point x="213.0" y="523.0"/>
      <point x="303.5" y="228.25"/>
      <point x="383.0" y="151.0" type="qcurve" smooth="yes"/>
      <point x="419.75" y="115.0"/>
      <point x="510.5" y="74.0"/>
      <point x="566.0" y="74.0" type="qcurve" smooth="yes"/>
      <point x="627.7333333333333" y="74.0"/>
      <point x="682.0" y="96.0" type="qcurve"/>
      <point x="606.25" y="189.75"/>
      <point x="518.0" y="492.0"/>
      <point x="518.0" y="684.0" type="qcurve" smooth="yes"/>
      <point x="518.0" y="924.0"/>
      <point x="658.5" y="1194.0"/>
      <point x="783.0" y="1194.0" type="qcurve" smooth="yes"/>
      <point x="910.5" y="1194.0"/>
      <point x="1047.0" y="921.5"/>
      <point x="1047.0" y="698.0" type="qcurve" smooth="yes"/>
      <point x="1047.0" y="481.25"/>
      <point x="926.5" y="165.0"/>
      <point x="829.0" y="78.0" type="qcurve"/>
      <point x="897.0" y="10.0"/>
      <point x="978.0" y="10.0" type="qcurve" smooth="yes"/>
      <point x="1026.5" y="10.0"/>
      <point x="1079" y="31" type="qcurve"/>
      <point x="1079.0" y="-61.0" type="line"/>
      <point x="1036.0666666666666" y="-84.0"/>
    </contour>
    <contour>
      <point x="764.0" y="143.0" type="qcurve"/>
      <point x="850.25" y="218.75"/>
      <point x="944.0" y="498.5"/>
      <point x="944.0" y="692.0" type="qcurve" smooth="yes"/>
      <point x="944.0" y="782.0"/>
      <point x="923.25" y="940.75"/>
      <point x="903.0" y="994.0" type="qcurve" smooth="yes"/>
      <point x="862.1142857142858" y="1100.0"/>
      <point x="781.0" y="1100.0" type="qcurve" smooth="yes"/>
      <point x="705.3066666666666" y="1100.0"/>
      <point x="662.0" y="988.0" type="qcurve" smooth="yes"/>
      <point x="618.0" y="874.2068965517242"/>
      <point x="618.0" y="681.0" type="qcurve" smooth="yes"/>
      <point x="618.0" y="343.1855670103093"/>
    </contour>
  </outline>
</glyph>
